<svg width="1024" height="200" viewBox="0 0 1024 200" fill="none" xmlns="http://www.w3.org/2000/svg">
<rect width="1024" height="200" fill="#FCFCFC"/>
<path d="M275.308 150.456C275.308 151.632 275.019 152.659 274.44 153.536C273.861 154.413 273.021 155.095 271.92 155.58C270.837 156.047 269.512 156.28 267.944 156.28C267.253 156.28 266.572 156.233 265.9 156.14C265.247 156.047 264.612 155.916 263.996 155.748C263.399 155.561 262.829 155.337 262.288 155.076V151.128C263.24 151.539 264.22 151.921 265.228 152.276C266.255 152.612 267.272 152.78 268.28 152.78C268.971 152.78 269.521 152.687 269.932 152.5C270.361 152.313 270.669 152.061 270.856 151.744C271.061 151.427 271.164 151.063 271.164 150.652C271.164 150.148 270.987 149.719 270.632 149.364C270.296 149.009 269.839 148.683 269.26 148.384C268.681 148.067 268.019 147.731 267.272 147.376C266.805 147.152 266.301 146.891 265.76 146.592C265.219 146.275 264.696 145.892 264.192 145.444C263.707 144.977 263.305 144.417 262.988 143.764C262.671 143.111 262.512 142.327 262.512 141.412C262.512 140.217 262.783 139.2 263.324 138.36C263.884 137.501 264.668 136.848 265.676 136.4C266.703 135.952 267.907 135.728 269.288 135.728C270.333 135.728 271.323 135.849 272.256 136.092C273.208 136.335 274.197 136.68 275.224 137.128L273.852 140.432C272.937 140.059 272.116 139.769 271.388 139.564C270.66 139.359 269.913 139.256 269.148 139.256C268.625 139.256 268.177 139.34 267.804 139.508C267.431 139.676 267.141 139.909 266.936 140.208C266.749 140.507 266.656 140.861 266.656 141.272C266.656 141.739 266.796 142.14 267.076 142.476C267.356 142.793 267.776 143.101 268.336 143.4C268.896 143.699 269.596 144.053 270.436 144.464C271.463 144.949 272.331 145.453 273.04 145.976C273.768 146.499 274.328 147.115 274.72 147.824C275.112 148.533 275.308 149.411 275.308 150.456Z" fill="black"/>
<path d="M285.046 152.948C285.513 152.948 285.961 152.901 286.39 152.808C286.819 152.715 287.249 152.603 287.678 152.472V155.58C287.23 155.767 286.67 155.925 285.998 156.056C285.345 156.205 284.626 156.28 283.842 156.28C282.927 156.28 282.106 156.131 281.378 155.832C280.669 155.533 280.099 155.02 279.67 154.292C279.259 153.545 279.054 152.519 279.054 151.212V143.848H277.066V142.084L279.362 140.684L280.566 137.464H283.226V140.712H287.51V143.848H283.226V151.212C283.226 151.791 283.394 152.229 283.73 152.528C284.066 152.808 284.505 152.948 285.046 152.948Z" fill="black"/>
<path d="M297.018 140.404C299.072 140.404 300.64 140.852 301.722 141.748C302.824 142.625 303.374 143.979 303.374 145.808V156H300.462L299.65 153.928H299.538C299.109 154.469 298.661 154.917 298.194 155.272C297.746 155.627 297.224 155.879 296.626 156.028C296.048 156.196 295.329 156.28 294.47 156.28C293.574 156.28 292.762 156.112 292.034 155.776C291.325 155.421 290.765 154.889 290.354 154.18C289.944 153.452 289.738 152.537 289.738 151.436C289.738 149.812 290.308 148.617 291.446 147.852C292.585 147.068 294.293 146.639 296.57 146.564L299.23 146.48V145.808C299.23 145.005 299.016 144.417 298.586 144.044C298.176 143.671 297.597 143.484 296.85 143.484C296.104 143.484 295.376 143.596 294.666 143.82C293.957 144.025 293.248 144.287 292.538 144.604L291.166 141.776C291.988 141.347 292.893 141.011 293.882 140.768C294.89 140.525 295.936 140.404 297.018 140.404ZM297.606 148.972C296.262 149.009 295.329 149.252 294.806 149.7C294.284 150.148 294.022 150.736 294.022 151.464C294.022 152.099 294.209 152.556 294.582 152.836C294.956 153.097 295.441 153.228 296.038 153.228C296.934 153.228 297.69 152.967 298.306 152.444C298.922 151.903 299.23 151.147 299.23 150.176V148.916L297.606 148.972Z" fill="black"/>
<path d="M316.325 140.432C317.968 140.432 319.284 140.88 320.273 141.776C321.262 142.653 321.757 144.072 321.757 146.032V156H317.585V147.068C317.585 145.967 317.389 145.145 316.997 144.604C316.605 144.044 315.98 143.764 315.121 143.764C313.852 143.764 312.984 144.203 312.517 145.08C312.05 145.939 311.817 147.18 311.817 148.804V156H307.645V140.712H310.837L311.397 142.672H311.621C311.957 142.149 312.368 141.729 312.853 141.412C313.338 141.076 313.88 140.833 314.477 140.684C315.074 140.516 315.69 140.432 316.325 140.432Z" fill="black"/>
<path d="M330.891 156.28C329.193 156.28 327.802 155.617 326.719 154.292C325.655 152.948 325.123 150.979 325.123 148.384C325.123 145.771 325.665 143.792 326.747 142.448C327.83 141.104 329.249 140.432 331.003 140.432C331.731 140.432 332.375 140.535 332.935 140.74C333.495 140.927 333.971 141.188 334.363 141.524C334.774 141.86 335.119 142.243 335.399 142.672H335.539C335.483 142.373 335.418 141.944 335.343 141.384C335.269 140.805 335.231 140.217 335.231 139.62V134.72H339.403V156H336.211L335.399 154.012H335.231C334.97 154.423 334.634 154.805 334.223 155.16C333.831 155.496 333.365 155.767 332.823 155.972C332.282 156.177 331.638 156.28 330.891 156.28ZM332.347 152.948C333.505 152.948 334.317 152.612 334.783 151.94C335.25 151.249 335.493 150.223 335.511 148.86V148.412C335.511 146.919 335.278 145.78 334.811 144.996C334.363 144.212 333.523 143.82 332.291 143.82C331.377 143.82 330.658 144.221 330.135 145.024C329.613 145.808 329.351 146.947 329.351 148.44C329.351 149.933 329.613 151.063 330.135 151.828C330.658 152.575 331.395 152.948 332.347 152.948Z" fill="black"/>
<path d="M350.038 140.404C352.091 140.404 353.659 140.852 354.742 141.748C355.843 142.625 356.394 143.979 356.394 145.808V156H353.482L352.67 153.928H352.558C352.129 154.469 351.681 154.917 351.214 155.272C350.766 155.627 350.243 155.879 349.646 156.028C349.067 156.196 348.349 156.28 347.49 156.28C346.594 156.28 345.782 156.112 345.054 155.776C344.345 155.421 343.785 154.889 343.374 154.18C342.963 153.452 342.758 152.537 342.758 151.436C342.758 149.812 343.327 148.617 344.466 147.852C345.605 147.068 347.313 146.639 349.59 146.564L352.25 146.48V145.808C352.25 145.005 352.035 144.417 351.606 144.044C351.195 143.671 350.617 143.484 349.87 143.484C349.123 143.484 348.395 143.596 347.686 143.82C346.977 144.025 346.267 144.287 345.558 144.604L344.186 141.776C345.007 141.347 345.913 141.011 346.902 140.768C347.91 140.525 348.955 140.404 350.038 140.404ZM350.626 148.972C349.282 149.009 348.349 149.252 347.826 149.7C347.303 150.148 347.042 150.736 347.042 151.464C347.042 152.099 347.229 152.556 347.602 152.836C347.975 153.097 348.461 153.228 349.058 153.228C349.954 153.228 350.71 152.967 351.326 152.444C351.942 151.903 352.25 151.147 352.25 150.176V148.916L350.626 148.972Z" fill="black"/>
<path d="M369.204 140.432C369.41 140.432 369.652 140.441 369.932 140.46C370.212 140.479 370.436 140.507 370.604 140.544L370.296 144.464C370.166 144.427 369.97 144.399 369.708 144.38C369.466 144.343 369.251 144.324 369.064 144.324C368.523 144.324 368 144.399 367.496 144.548C366.992 144.679 366.535 144.893 366.124 145.192C365.732 145.491 365.415 145.892 365.172 146.396C364.948 146.881 364.836 147.488 364.836 148.216V156H360.664V140.712H363.828L364.444 143.288H364.64C364.939 142.765 365.312 142.289 365.76 141.86C366.208 141.431 366.722 141.085 367.3 140.824C367.898 140.563 368.532 140.432 369.204 140.432Z" fill="black"/>
<path d="M377.676 156.28C375.978 156.28 374.587 155.617 373.504 154.292C372.44 152.948 371.908 150.979 371.908 148.384C371.908 145.771 372.45 143.792 373.532 142.448C374.615 141.104 376.034 140.432 377.788 140.432C378.516 140.432 379.16 140.535 379.72 140.74C380.28 140.927 380.756 141.188 381.148 141.524C381.559 141.86 381.904 142.243 382.184 142.672H382.324C382.268 142.373 382.203 141.944 382.128 141.384C382.054 140.805 382.016 140.217 382.016 139.62V134.72H386.188V156H382.996L382.184 154.012H382.016C381.755 154.423 381.419 154.805 381.008 155.16C380.616 155.496 380.15 155.767 379.608 155.972C379.067 156.177 378.423 156.28 377.676 156.28ZM379.132 152.948C380.29 152.948 381.102 152.612 381.568 151.94C382.035 151.249 382.278 150.223 382.296 148.86V148.412C382.296 146.919 382.063 145.78 381.596 144.996C381.148 144.212 380.308 143.82 379.076 143.82C378.162 143.82 377.443 144.221 376.92 145.024C376.398 145.808 376.136 146.947 376.136 148.44C376.136 149.933 376.398 151.063 376.92 151.828C377.443 152.575 378.18 152.948 379.132 152.948Z" fill="black"/>
<path d="M406.337 140.432C408.054 140.432 409.445 141.104 410.509 142.448C411.573 143.773 412.105 145.733 412.105 148.328C412.105 150.064 411.853 151.529 411.349 152.724C410.845 153.9 410.154 154.787 409.277 155.384C408.399 155.981 407.382 156.28 406.225 156.28C405.497 156.28 404.862 156.187 404.321 156C403.798 155.813 403.35 155.571 402.977 155.272C402.603 154.973 402.277 154.656 401.997 154.32H401.773C401.847 154.675 401.903 155.048 401.941 155.44C401.978 155.813 401.997 156.187 401.997 156.56V162.72H397.825V140.712H401.213L401.801 142.7H401.997C402.277 142.289 402.613 141.916 403.005 141.58C403.397 141.225 403.863 140.945 404.405 140.74C404.965 140.535 405.609 140.432 406.337 140.432ZM404.993 143.764C404.265 143.764 403.686 143.913 403.257 144.212C402.827 144.511 402.51 144.968 402.305 145.584C402.118 146.181 402.015 146.937 401.997 147.852V148.3C401.997 149.289 402.09 150.129 402.277 150.82C402.463 151.492 402.781 152.005 403.229 152.36C403.677 152.715 404.283 152.892 405.049 152.892C405.683 152.892 406.206 152.715 406.617 152.36C407.027 152.005 407.335 151.483 407.541 150.792C407.746 150.101 407.849 149.261 407.849 148.272C407.849 146.779 407.615 145.659 407.149 144.912C406.701 144.147 405.982 143.764 404.993 143.764Z" fill="black"/>
<path d="M421.815 140.404C423.869 140.404 425.437 140.852 426.519 141.748C427.621 142.625 428.171 143.979 428.171 145.808V156H425.259L424.447 153.928H424.335C423.906 154.469 423.458 154.917 422.991 155.272C422.543 155.627 422.021 155.879 421.423 156.028C420.845 156.196 420.126 156.28 419.267 156.28C418.371 156.28 417.559 156.112 416.831 155.776C416.122 155.421 415.562 154.889 415.151 154.18C414.741 153.452 414.535 152.537 414.535 151.436C414.535 149.812 415.105 148.617 416.243 147.852C417.382 147.068 419.09 146.639 421.367 146.564L424.027 146.48V145.808C424.027 145.005 423.813 144.417 423.383 144.044C422.973 143.671 422.394 143.484 421.647 143.484C420.901 143.484 420.173 143.596 419.463 143.82C418.754 144.025 418.045 144.287 417.335 144.604L415.963 141.776C416.785 141.347 417.69 141.011 418.679 140.768C419.687 140.525 420.733 140.404 421.815 140.404ZM422.403 148.972C421.059 149.009 420.126 149.252 419.603 149.7C419.081 150.148 418.819 150.736 418.819 151.464C418.819 152.099 419.006 152.556 419.379 152.836C419.753 153.097 420.238 153.228 420.835 153.228C421.731 153.228 422.487 152.967 423.103 152.444C423.719 151.903 424.027 151.147 424.027 150.176V148.916L422.403 148.972Z" fill="black"/>
<path d="M438.882 152.948C439.348 152.948 439.796 152.901 440.226 152.808C440.655 152.715 441.084 152.603 441.514 152.472V155.58C441.066 155.767 440.506 155.925 439.834 156.056C439.18 156.205 438.462 156.28 437.678 156.28C436.763 156.28 435.942 156.131 435.214 155.832C434.504 155.533 433.935 155.02 433.506 154.292C433.095 153.545 432.89 152.519 432.89 151.212V143.848H430.902V142.084L433.198 140.684L434.402 137.464H437.062V140.712H441.346V143.848H437.062V151.212C437.062 151.791 437.23 152.229 437.566 152.528C437.902 152.808 438.34 152.948 438.882 152.948Z" fill="black"/>
<path d="M448.754 139.06C448.754 139.807 448.726 140.525 448.67 141.216C448.633 141.907 448.596 142.392 448.558 142.672H448.782C449.118 142.149 449.51 141.729 449.958 141.412C450.406 141.076 450.901 140.833 451.442 140.684C452.002 140.516 452.59 140.432 453.206 140.432C454.308 140.432 455.269 140.628 456.09 141.02C456.912 141.412 457.546 142.019 457.994 142.84C458.461 143.661 458.694 144.725 458.694 146.032V156H454.522V147.068C454.522 145.967 454.317 145.145 453.906 144.604C453.514 144.044 452.898 143.764 452.058 143.764C451.218 143.764 450.556 143.96 450.07 144.352C449.604 144.744 449.268 145.313 449.062 146.06C448.857 146.807 448.754 147.721 448.754 148.804V156H444.582V134.72H448.754V139.06Z" fill="black"/>
<path d="M467.073 153.06C466.905 153.713 466.69 154.423 466.429 155.188C466.167 155.935 465.887 156.681 465.589 157.428C465.29 158.193 464.982 158.921 464.665 159.612H461.669C461.855 158.865 462.033 158.081 462.201 157.26C462.369 156.457 462.527 155.664 462.677 154.88C462.826 154.096 462.947 153.387 463.041 152.752H466.877L467.073 153.06Z" fill="black"/>
<path d="M488.911 151.464C488.911 152.491 488.668 153.368 488.183 154.096C487.697 154.805 486.969 155.347 485.999 155.72C485.028 156.093 483.824 156.28 482.387 156.28C481.323 156.28 480.408 156.205 479.643 156.056C478.877 155.925 478.112 155.701 477.347 155.384V151.94C478.168 152.313 479.055 152.621 480.007 152.864C480.959 153.107 481.799 153.228 482.527 153.228C483.348 153.228 483.927 153.107 484.263 152.864C484.617 152.621 484.795 152.304 484.795 151.912C484.795 151.651 484.72 151.417 484.571 151.212C484.44 151.007 484.141 150.773 483.675 150.512C483.208 150.251 482.48 149.915 481.491 149.504C480.539 149.093 479.755 148.692 479.139 148.3C478.523 147.889 478.065 147.404 477.767 146.844C477.468 146.265 477.319 145.547 477.319 144.688C477.319 143.269 477.869 142.205 478.971 141.496C480.072 140.787 481.537 140.432 483.367 140.432C484.319 140.432 485.224 140.525 486.083 140.712C486.941 140.899 487.828 141.207 488.743 141.636L487.483 144.632C486.979 144.408 486.493 144.212 486.027 144.044C485.56 143.876 485.103 143.745 484.655 143.652C484.225 143.559 483.777 143.512 483.311 143.512C482.695 143.512 482.228 143.596 481.911 143.764C481.612 143.932 481.463 144.184 481.463 144.52C481.463 144.763 481.537 144.987 481.687 145.192C481.855 145.379 482.163 145.584 482.611 145.808C483.077 146.032 483.759 146.331 484.655 146.704C485.532 147.059 486.288 147.432 486.923 147.824C487.557 148.197 488.043 148.673 488.379 149.252C488.733 149.812 488.911 150.549 488.911 151.464Z" fill="black"/>
<path d="M498.601 152.948C499.067 152.948 499.515 152.901 499.945 152.808C500.374 152.715 500.803 152.603 501.233 152.472V155.58C500.785 155.767 500.225 155.925 499.553 156.056C498.899 156.205 498.181 156.28 497.397 156.28C496.482 156.28 495.661 156.131 494.933 155.832C494.223 155.533 493.654 155.02 493.225 154.292C492.814 153.545 492.609 152.519 492.609 151.212V143.848H490.621V142.084L492.917 140.684L494.121 137.464H496.781V140.712H501.065V143.848H496.781V151.212C496.781 151.791 496.949 152.229 497.285 152.528C497.621 152.808 498.059 152.948 498.601 152.948Z" fill="black"/>
<path d="M512.841 140.432C513.046 140.432 513.289 140.441 513.569 140.46C513.849 140.479 514.073 140.507 514.241 140.544L513.933 144.464C513.802 144.427 513.606 144.399 513.345 144.38C513.102 144.343 512.888 144.324 512.701 144.324C512.16 144.324 511.637 144.399 511.133 144.548C510.629 144.679 510.172 144.893 509.761 145.192C509.369 145.491 509.052 145.892 508.809 146.396C508.585 146.881 508.473 147.488 508.473 148.216V156H504.301V140.712H507.465L508.081 143.288H508.277C508.576 142.765 508.949 142.289 509.397 141.86C509.845 141.431 510.358 141.085 510.937 140.824C511.534 140.563 512.169 140.432 512.841 140.432Z" fill="black"/>
<path d="M530.357 148.328C530.357 149.597 530.18 150.727 529.825 151.716C529.489 152.705 528.994 153.545 528.341 154.236C527.706 154.908 526.932 155.421 526.017 155.776C525.102 156.112 524.066 156.28 522.909 156.28C521.845 156.28 520.856 156.112 519.941 155.776C519.045 155.421 518.27 154.908 517.617 154.236C516.964 153.545 516.45 152.705 516.077 151.716C515.722 150.727 515.545 149.597 515.545 148.328C515.545 146.629 515.844 145.201 516.441 144.044C517.038 142.868 517.897 141.972 519.017 141.356C520.137 140.74 521.462 140.432 522.993 140.432C524.43 140.432 525.7 140.74 526.801 141.356C527.902 141.972 528.77 142.868 529.405 144.044C530.04 145.201 530.357 146.629 530.357 148.328ZM519.801 148.328C519.801 149.336 519.904 150.185 520.109 150.876C520.333 151.548 520.678 152.061 521.145 152.416C521.612 152.752 522.218 152.92 522.965 152.92C523.712 152.92 524.309 152.752 524.757 152.416C525.224 152.061 525.56 151.548 525.765 150.876C525.989 150.185 526.101 149.336 526.101 148.328C526.101 147.32 525.989 146.48 525.765 145.808C525.56 145.136 525.224 144.632 524.757 144.296C524.29 143.96 523.684 143.792 522.937 143.792C521.836 143.792 521.033 144.175 520.529 144.94C520.044 145.687 519.801 146.816 519.801 148.328Z" fill="black"/>
<path d="M542.485 140.432C544.128 140.432 545.444 140.88 546.433 141.776C547.422 142.653 547.917 144.072 547.917 146.032V156H543.745V147.068C543.745 145.967 543.549 145.145 543.157 144.604C542.765 144.044 542.14 143.764 541.281 143.764C540.012 143.764 539.144 144.203 538.677 145.08C538.21 145.939 537.977 147.18 537.977 148.804V156H533.805V140.712H536.997L537.557 142.672H537.781C538.117 142.149 538.528 141.729 539.013 141.412C539.498 141.076 540.04 140.833 540.637 140.684C541.234 140.516 541.85 140.432 542.485 140.432Z" fill="black"/>
<path d="M557.163 140.432C558.097 140.432 558.937 140.619 559.683 140.992C560.43 141.365 561.065 141.925 561.587 142.672H561.699L562.035 140.712H565.563V156.028C565.563 157.484 565.274 158.707 564.695 159.696C564.135 160.685 563.286 161.432 562.147 161.936C561.009 162.459 559.599 162.72 557.919 162.72C556.837 162.72 555.829 162.655 554.895 162.524C553.981 162.393 553.085 162.16 552.207 161.824V158.492C552.842 158.753 553.477 158.968 554.111 159.136C554.765 159.323 555.427 159.453 556.099 159.528C556.79 159.621 557.481 159.668 558.171 159.668C559.254 159.668 560.057 159.379 560.579 158.8C561.121 158.221 561.391 157.353 561.391 156.196V155.888C561.391 155.571 561.401 155.244 561.419 154.908C561.457 154.572 561.485 154.273 561.503 154.012H561.391C560.869 154.815 560.243 155.393 559.515 155.748C558.787 156.103 557.966 156.28 557.051 156.28C555.241 156.28 553.822 155.589 552.795 154.208C551.787 152.808 551.283 150.867 551.283 148.384C551.283 146.704 551.517 145.276 551.983 144.1C552.45 142.905 553.122 142 553.999 141.384C554.895 140.749 555.95 140.432 557.163 140.432ZM558.479 143.82C557.826 143.82 557.275 143.997 556.827 144.352C556.398 144.688 556.071 145.201 555.847 145.892C555.642 146.564 555.539 147.413 555.539 148.44C555.539 149.971 555.782 151.119 556.267 151.884C556.753 152.631 557.509 153.004 558.535 153.004C559.077 153.004 559.543 152.939 559.935 152.808C560.327 152.659 560.645 152.425 560.887 152.108C561.149 151.772 561.345 151.343 561.475 150.82C561.606 150.297 561.671 149.663 561.671 148.916V148.412C561.671 147.311 561.559 146.424 561.335 145.752C561.111 145.08 560.766 144.595 560.299 144.296C559.833 143.979 559.226 143.82 558.479 143.82Z" fill="black"/>
<path d="M583.64 152.948C584.106 152.948 584.554 152.901 584.984 152.808C585.413 152.715 585.842 152.603 586.272 152.472V155.58C585.824 155.767 585.264 155.925 584.592 156.056C583.938 156.205 583.22 156.28 582.436 156.28C581.521 156.28 580.7 156.131 579.972 155.832C579.262 155.533 578.693 155.02 578.264 154.292C577.853 153.545 577.648 152.519 577.648 151.212V143.848H575.66V142.084L577.956 140.684L579.16 137.464H581.82V140.712H586.104V143.848H581.82V151.212C581.82 151.791 581.988 152.229 582.324 152.528C582.66 152.808 583.098 152.948 583.64 152.948Z" fill="black"/>
<path d="M587.156 140.712H591.72L594.604 149.308C594.698 149.588 594.772 149.868 594.828 150.148C594.903 150.428 594.959 150.717 594.996 151.016C595.052 151.315 595.09 151.632 595.108 151.968H595.192C595.248 151.483 595.323 151.025 595.416 150.596C595.528 150.148 595.65 149.719 595.78 149.308L598.608 140.712H603.088L596.62 157.96C596.228 159.005 595.715 159.883 595.08 160.592C594.464 161.301 593.746 161.833 592.924 162.188C592.103 162.543 591.207 162.72 590.236 162.72C589.77 162.72 589.359 162.692 589.004 162.636C588.668 162.599 588.37 162.552 588.108 162.496V159.192C588.314 159.229 588.556 159.267 588.836 159.304C589.135 159.341 589.443 159.36 589.76 159.36C590.339 159.36 590.834 159.239 591.244 158.996C591.674 158.753 592.028 158.417 592.308 157.988C592.588 157.577 592.812 157.129 592.98 156.644L593.232 155.888L587.156 140.712Z" fill="black"/>
<path d="M613.794 140.432C615.511 140.432 616.902 141.104 617.966 142.448C619.03 143.773 619.562 145.733 619.562 148.328C619.562 150.064 619.31 151.529 618.806 152.724C618.302 153.9 617.611 154.787 616.734 155.384C615.856 155.981 614.839 156.28 613.682 156.28C612.954 156.28 612.319 156.187 611.778 156C611.255 155.813 610.807 155.571 610.434 155.272C610.06 154.973 609.734 154.656 609.454 154.32H609.23C609.304 154.675 609.36 155.048 609.398 155.44C609.435 155.813 609.454 156.187 609.454 156.56V162.72H605.282V140.712H608.67L609.258 142.7H609.454C609.734 142.289 610.07 141.916 610.462 141.58C610.854 141.225 611.32 140.945 611.862 140.74C612.422 140.535 613.066 140.432 613.794 140.432ZM612.45 143.764C611.722 143.764 611.143 143.913 610.714 144.212C610.284 144.511 609.967 144.968 609.762 145.584C609.575 146.181 609.472 146.937 609.454 147.852V148.3C609.454 149.289 609.547 150.129 609.734 150.82C609.92 151.492 610.238 152.005 610.686 152.36C611.134 152.715 611.74 152.892 612.506 152.892C613.14 152.892 613.663 152.715 614.074 152.36C614.484 152.005 614.792 151.483 614.998 150.792C615.203 150.101 615.306 149.261 615.306 148.272C615.306 146.779 615.072 145.659 614.606 144.912C614.158 144.147 613.439 143.764 612.45 143.764Z" fill="black"/>
<path d="M629.3 140.432C630.719 140.432 631.932 140.703 632.94 141.244C633.967 141.785 634.76 142.569 635.32 143.596C635.88 144.623 636.16 145.883 636.16 147.376V149.392H626.304C626.342 150.568 626.687 151.492 627.34 152.164C628.012 152.836 628.936 153.172 630.112 153.172C631.102 153.172 631.998 153.079 632.8 152.892C633.603 152.687 634.434 152.379 635.292 151.968V155.188C634.546 155.561 633.752 155.832 632.912 156C632.091 156.187 631.092 156.28 629.916 156.28C628.386 156.28 627.032 156 625.856 155.44C624.68 154.861 623.756 153.993 623.084 152.836C622.412 151.679 622.076 150.223 622.076 148.468C622.076 146.676 622.375 145.192 622.972 144.016C623.588 142.821 624.438 141.925 625.52 141.328C626.603 140.731 627.863 140.432 629.3 140.432ZM629.328 143.4C628.526 143.4 627.854 143.661 627.312 144.184C626.79 144.707 626.482 145.519 626.388 146.62H632.24C632.24 146.004 632.128 145.453 631.904 144.968C631.699 144.483 631.382 144.1 630.952 143.82C630.523 143.54 629.982 143.4 629.328 143.4Z" fill="black"/>
<path d="M657.485 151.464C657.485 152.491 657.242 153.368 656.757 154.096C656.271 154.805 655.543 155.347 654.573 155.72C653.602 156.093 652.398 156.28 650.961 156.28C649.897 156.28 648.982 156.205 648.217 156.056C647.451 155.925 646.686 155.701 645.921 155.384V151.94C646.742 152.313 647.629 152.621 648.581 152.864C649.533 153.107 650.373 153.228 651.101 153.228C651.922 153.228 652.501 153.107 652.837 152.864C653.191 152.621 653.369 152.304 653.369 151.912C653.369 151.651 653.294 151.417 653.145 151.212C653.014 151.007 652.715 150.773 652.249 150.512C651.782 150.251 651.054 149.915 650.065 149.504C649.113 149.093 648.329 148.692 647.713 148.3C647.097 147.889 646.639 147.404 646.341 146.844C646.042 146.265 645.893 145.547 645.893 144.688C645.893 143.269 646.443 142.205 647.545 141.496C648.646 140.787 650.111 140.432 651.941 140.432C652.893 140.432 653.798 140.525 654.657 140.712C655.515 140.899 656.402 141.207 657.317 141.636L656.057 144.632C655.553 144.408 655.067 144.212 654.601 144.044C654.134 143.876 653.677 143.745 653.229 143.652C652.799 143.559 652.351 143.512 651.885 143.512C651.269 143.512 650.802 143.596 650.485 143.764C650.186 143.932 650.037 144.184 650.037 144.52C650.037 144.763 650.111 144.987 650.261 145.192C650.429 145.379 650.737 145.584 651.185 145.808C651.651 146.032 652.333 146.331 653.229 146.704C654.106 147.059 654.862 147.432 655.497 147.824C656.131 148.197 656.617 148.673 656.953 149.252C657.307 149.812 657.485 150.549 657.485 151.464Z" fill="black"/>
<path d="M674.763 140.712V156H671.571L671.011 154.04H670.787C670.469 154.563 670.059 154.992 669.555 155.328C669.069 155.645 668.528 155.879 667.931 156.028C667.333 156.196 666.717 156.28 666.083 156.28C665 156.28 664.048 156.084 663.227 155.692C662.405 155.3 661.771 154.693 661.323 153.872C660.875 153.051 660.651 151.987 660.651 150.68V140.712H664.823V149.644C664.823 150.727 665.019 151.548 665.411 152.108C665.803 152.668 666.428 152.948 667.287 152.948C668.145 152.948 668.808 152.752 669.275 152.36C669.76 151.968 670.096 151.399 670.283 150.652C670.488 149.905 670.591 148.991 670.591 147.908V140.712H674.763Z" fill="black"/>
<path d="M687.649 140.432C689.366 140.432 690.757 141.104 691.821 142.448C692.885 143.773 693.417 145.733 693.417 148.328C693.417 150.064 693.165 151.529 692.661 152.724C692.157 153.9 691.466 154.787 690.589 155.384C689.712 155.981 688.694 156.28 687.537 156.28C686.809 156.28 686.174 156.187 685.633 156C685.11 155.813 684.662 155.571 684.289 155.272C683.916 154.973 683.589 154.656 683.309 154.32H683.085C683.16 154.675 683.216 155.048 683.253 155.44C683.29 155.813 683.309 156.187 683.309 156.56V162.72H679.137V140.712H682.525L683.113 142.7H683.309C683.589 142.289 683.925 141.916 684.317 141.58C684.709 141.225 685.176 140.945 685.717 140.74C686.277 140.535 686.921 140.432 687.649 140.432ZM686.305 143.764C685.577 143.764 684.998 143.913 684.569 144.212C684.14 144.511 683.822 144.968 683.617 145.584C683.43 146.181 683.328 146.937 683.309 147.852V148.3C683.309 149.289 683.402 150.129 683.589 150.82C683.776 151.492 684.093 152.005 684.541 152.36C684.989 152.715 685.596 152.892 686.361 152.892C686.996 152.892 687.518 152.715 687.929 152.36C688.34 152.005 688.648 151.483 688.853 150.792C689.058 150.101 689.161 149.261 689.161 148.272C689.161 146.779 688.928 145.659 688.461 144.912C688.013 144.147 687.294 143.764 686.305 143.764Z" fill="black"/>
<path d="M705.368 140.432C707.085 140.432 708.476 141.104 709.54 142.448C710.604 143.773 711.136 145.733 711.136 148.328C711.136 150.064 710.884 151.529 710.38 152.724C709.876 153.9 709.185 154.787 708.308 155.384C707.43 155.981 706.413 156.28 705.256 156.28C704.528 156.28 703.893 156.187 703.352 156C702.829 155.813 702.381 155.571 702.008 155.272C701.635 154.973 701.308 154.656 701.028 154.32H700.804C700.878 154.675 700.934 155.048 700.972 155.44C701.009 155.813 701.028 156.187 701.028 156.56V162.72H696.856V140.712H700.244L700.832 142.7H701.028C701.308 142.289 701.644 141.916 702.036 141.58C702.428 141.225 702.895 140.945 703.436 140.74C703.996 140.535 704.64 140.432 705.368 140.432ZM704.024 143.764C703.296 143.764 702.717 143.913 702.288 144.212C701.859 144.511 701.541 144.968 701.336 145.584C701.149 146.181 701.046 146.937 701.028 147.852V148.3C701.028 149.289 701.121 150.129 701.308 150.82C701.494 151.492 701.812 152.005 702.26 152.36C702.708 152.715 703.315 152.892 704.08 152.892C704.715 152.892 705.237 152.715 705.648 152.36C706.058 152.005 706.367 151.483 706.572 150.792C706.777 150.101 706.88 149.261 706.88 148.272C706.88 146.779 706.647 145.659 706.18 144.912C705.732 144.147 705.013 143.764 704.024 143.764Z" fill="black"/>
<path d="M728.463 148.328C728.463 149.597 728.285 150.727 727.931 151.716C727.595 152.705 727.1 153.545 726.447 154.236C725.812 154.908 725.037 155.421 724.123 155.776C723.208 156.112 722.172 156.28 721.015 156.28C719.951 156.28 718.961 156.112 718.047 155.776C717.151 155.421 716.376 154.908 715.723 154.236C715.069 153.545 714.556 152.705 714.183 151.716C713.828 150.727 713.651 149.597 713.651 148.328C713.651 146.629 713.949 145.201 714.547 144.044C715.144 142.868 716.003 141.972 717.123 141.356C718.243 140.74 719.568 140.432 721.099 140.432C722.536 140.432 723.805 140.74 724.907 141.356C726.008 141.972 726.876 142.868 727.511 144.044C728.145 145.201 728.463 146.629 728.463 148.328ZM717.907 148.328C717.907 149.336 718.009 150.185 718.215 150.876C718.439 151.548 718.784 152.061 719.251 152.416C719.717 152.752 720.324 152.92 721.071 152.92C721.817 152.92 722.415 152.752 722.863 152.416C723.329 152.061 723.665 151.548 723.871 150.876C724.095 150.185 724.207 149.336 724.207 148.328C724.207 147.32 724.095 146.48 723.871 145.808C723.665 145.136 723.329 144.632 722.863 144.296C722.396 143.96 721.789 143.792 721.043 143.792C719.941 143.792 719.139 144.175 718.635 144.94C718.149 145.687 717.907 146.816 717.907 148.328Z" fill="black"/>
<path d="M740.451 140.432C740.656 140.432 740.899 140.441 741.179 140.46C741.459 140.479 741.683 140.507 741.851 140.544L741.543 144.464C741.412 144.427 741.216 144.399 740.955 144.38C740.712 144.343 740.497 144.324 740.311 144.324C739.769 144.324 739.247 144.399 738.743 144.548C738.239 144.679 737.781 144.893 737.371 145.192C736.979 145.491 736.661 145.892 736.419 146.396C736.195 146.881 736.083 147.488 736.083 148.216V156H731.911V140.712H735.075L735.691 143.288H735.887C736.185 142.765 736.559 142.289 737.007 141.86C737.455 141.431 737.968 141.085 738.547 140.824C739.144 140.563 739.779 140.432 740.451 140.432Z" fill="black"/>
<path d="M751.065 152.948C751.532 152.948 751.98 152.901 752.409 152.808C752.839 152.715 753.268 152.603 753.697 152.472V155.58C753.249 155.767 752.689 155.925 752.017 156.056C751.364 156.205 750.645 156.28 749.861 156.28C748.947 156.28 748.125 156.131 747.397 155.832C746.688 155.533 746.119 155.02 745.689 154.292C745.279 153.545 745.073 152.519 745.073 151.212V143.848H743.085V142.084L745.381 140.684L746.585 137.464H749.245V140.712H753.529V143.848H749.245V151.212C749.245 151.791 749.413 152.229 749.749 152.528C750.085 152.808 750.524 152.948 751.065 152.948Z" fill="black"/>
<path d="M760.266 149.364H756.934L756.234 136.008H760.966L760.266 149.364ZM756.178 154.04C756.178 153.181 756.411 152.584 756.878 152.248C757.345 151.893 757.914 151.716 758.586 151.716C759.239 151.716 759.799 151.893 760.266 152.248C760.733 152.584 760.966 153.181 760.966 154.04C760.966 154.861 760.733 155.459 760.266 155.832C759.799 156.187 759.239 156.364 758.586 156.364C757.914 156.364 757.345 156.187 756.878 155.832C756.411 155.459 756.178 154.861 756.178 154.04Z" fill="black"/>
<path d="M260.014 80.668C260.014 83.656 259.654 86.374 258.934 88.822C258.214 91.234 257.098 93.322 255.586 95.086C254.074 96.85 252.148 98.2 249.808 99.136C247.468 100.072 244.696 100.54 241.492 100.54C238.324 100.54 235.57 100.072 233.23 99.136C230.89 98.164 228.964 96.814 227.452 95.086C225.94 93.322 224.806 91.216 224.05 88.768C223.33 86.32 222.97 83.602 222.97 80.614C222.97 76.618 223.618 73.144 224.914 70.192C226.246 67.24 228.28 64.954 231.016 63.334C233.788 61.678 237.298 60.85 241.546 60.85C245.83 60.85 249.322 61.678 252.022 63.334C254.758 64.954 256.774 67.258 258.07 70.246C259.366 73.198 260.014 76.672 260.014 80.668ZM232.636 80.668C232.636 83.188 232.942 85.366 233.554 87.202C234.166 89.002 235.12 90.388 236.416 91.36C237.748 92.332 239.44 92.818 241.492 92.818C243.616 92.818 245.326 92.332 246.622 91.36C247.918 90.388 248.854 89.002 249.43 87.202C250.042 85.366 250.348 83.188 250.348 80.668C250.348 76.852 249.664 73.864 248.296 71.704C246.964 69.544 244.714 68.464 241.546 68.464C239.458 68.464 237.748 68.968 236.416 69.976C235.12 70.948 234.166 72.352 233.554 74.188C232.942 75.988 232.636 78.148 232.636 80.668Z" fill="#4CB074"/>
<path d="M275.992 68.41C275.992 69.49 275.956 70.552 275.884 71.596C275.812 72.604 275.722 73.468 275.614 74.188H275.992C276.748 72.964 277.774 71.938 279.07 71.11C280.402 70.246 282.094 69.814 284.146 69.814C287.35 69.814 289.96 71.11 291.976 73.702C294.028 76.294 295.054 80.092 295.054 85.096C295.054 88.48 294.568 91.324 293.596 93.628C292.66 95.932 291.364 97.66 289.708 98.812C288.052 99.964 286.108 100.54 283.876 100.54C281.752 100.54 280.096 100.162 278.908 99.406C277.72 98.65 276.748 97.822 275.992 96.922H275.398L273.94 100H266.866V58.96H275.992V68.41ZM281.014 76.996C279.826 76.996 278.854 77.266 278.098 77.806C277.378 78.31 276.838 79.084 276.478 80.128C276.154 81.172 275.992 82.504 275.992 84.124V85.258C275.992 87.85 276.352 89.83 277.072 91.198C277.828 92.53 279.178 93.196 281.122 93.196C282.562 93.196 283.696 92.494 284.524 91.09C285.352 89.686 285.766 87.652 285.766 84.988C285.766 82.36 285.352 80.38 284.524 79.048C283.696 77.68 282.526 76.996 281.014 76.996Z" fill="#4CB074"/>
<path d="M299.682 112.96C298.818 112.96 297.882 112.888 296.874 112.744C295.83 112.636 294.966 112.492 294.282 112.312V105.184C294.894 105.328 295.47 105.436 296.01 105.508C296.55 105.616 297.144 105.67 297.792 105.67C298.764 105.67 299.592 105.364 300.276 104.752C300.96 104.176 301.302 102.988 301.302 101.188V70.354H310.428V102.862C310.428 104.662 310.068 106.318 309.348 107.83C308.664 109.378 307.53 110.62 305.946 111.556C304.398 112.492 302.31 112.96 299.682 112.96ZM301.032 62.794C301.032 61.138 301.5 60.022 302.436 59.446C303.372 58.87 304.524 58.582 305.892 58.582C307.224 58.582 308.376 58.87 309.348 59.446C310.32 60.022 310.806 61.138 310.806 62.794C310.806 64.414 310.32 65.53 309.348 66.142C308.376 66.718 307.224 67.006 305.892 67.006C304.524 67.006 303.372 66.718 302.436 66.142C301.5 65.53 301.032 64.414 301.032 62.794Z" fill="#4CB074"/>
<path d="M331.081 69.814C333.889 69.814 336.301 70.336 338.317 71.38C340.369 72.388 341.935 73.9 343.015 75.916C344.131 77.896 344.689 80.362 344.689 83.314V87.526H325.951C326.023 89.47 326.652 91.018 327.84 92.17C329.028 93.322 330.721 93.898 332.917 93.898C334.825 93.898 336.553 93.718 338.101 93.358C339.649 92.998 341.251 92.422 342.907 91.63V98.38C341.467 99.136 339.919 99.676 338.263 100C336.607 100.36 334.572 100.54 332.16 100.54C329.172 100.54 326.509 100 324.169 98.92C321.865 97.84 320.047 96.184 318.715 93.952C317.419 91.684 316.771 88.822 316.771 85.366C316.771 81.838 317.365 78.94 318.553 76.672C319.741 74.368 321.415 72.658 323.575 71.542C325.735 70.39 328.237 69.814 331.081 69.814ZM331.243 76.132C329.839 76.132 328.669 76.582 327.733 77.482C326.833 78.346 326.293 79.732 326.113 81.64H336.319C336.319 80.596 336.121 79.66 335.725 78.832C335.365 78.004 334.807 77.356 334.051 76.888C333.295 76.384 332.359 76.132 331.243 76.132Z" fill="#4CB074"/>
<path d="M363.564 100.54C360.612 100.54 358.056 100.018 355.896 98.974C353.772 97.894 352.134 96.238 350.982 94.006C349.866 91.738 349.308 88.84 349.308 85.312C349.308 81.712 349.938 78.778 351.198 76.51C352.494 74.206 354.276 72.514 356.544 71.434C358.812 70.354 361.404 69.814 364.32 69.814C366.264 69.814 368.01 70.012 369.558 70.408C371.142 70.804 372.546 71.308 373.77 71.92L371.124 78.778C369.864 78.274 368.694 77.86 367.614 77.536C366.534 77.212 365.436 77.05 364.32 77.05C363.096 77.05 362.052 77.356 361.188 77.968C360.324 78.544 359.658 79.444 359.19 80.668C358.758 81.892 358.542 83.422 358.542 85.258C358.542 87.094 358.776 88.606 359.244 89.794C359.712 90.946 360.378 91.81 361.242 92.386C362.106 92.962 363.15 93.25 364.374 93.25C365.958 93.25 367.434 93.016 368.802 92.548C370.206 92.08 371.538 91.45 372.798 90.658V98.11C371.574 98.902 370.242 99.514 368.802 99.946C367.362 100.342 365.616 100.54 363.564 100.54Z" fill="#4CB074"/>
<path d="M392.689 93.304C393.625 93.304 394.489 93.214 395.281 93.034C396.073 92.854 396.883 92.62 397.711 92.332V99.028C396.739 99.46 395.623 99.82 394.363 100.108C393.103 100.396 391.609 100.54 389.881 100.54C388.045 100.54 386.407 100.252 384.967 99.676C383.563 99.064 382.447 98.038 381.619 96.598C380.827 95.122 380.431 93.088 380.431 90.496V77.158H376.651V73.378L381.187 70.462L383.671 64.198H389.503V70.354H397.387V77.158H389.503V90.172C389.503 91.216 389.791 92.008 390.367 92.548C390.943 93.052 391.717 93.304 392.689 93.304Z" fill="#4CB074"/>
<path d="M441.886 88.822C441.886 91.018 441.346 93.016 440.266 94.816C439.186 96.58 437.566 97.984 435.406 99.028C433.246 100.036 430.528 100.54 427.252 100.54C425.74 100.54 424.336 100.45 423.04 100.27C421.744 100.09 420.502 99.838 419.314 99.514C418.162 99.154 417.028 98.704 415.912 98.164V89.794C417.856 90.694 419.836 91.45 421.852 92.062C423.904 92.674 425.866 92.98 427.738 92.98C428.926 92.98 429.88 92.836 430.6 92.548C431.356 92.224 431.896 91.81 432.22 91.306C432.58 90.766 432.76 90.154 432.76 89.47C432.76 88.642 432.472 87.94 431.896 87.364C431.356 86.752 430.546 86.176 429.466 85.636C428.386 85.06 427.072 84.412 425.524 83.692C424.372 83.188 423.238 82.612 422.122 81.964C421.042 81.28 420.052 80.506 419.152 79.642C418.288 78.742 417.586 77.68 417.046 76.456C416.542 75.196 416.29 73.72 416.29 72.028C416.29 69.616 416.848 67.6 417.964 65.98C419.116 64.324 420.718 63.064 422.77 62.2C424.822 61.336 427.234 60.904 430.006 60.904C432.274 60.904 434.362 61.156 436.27 61.66C438.178 62.164 440.032 62.812 441.832 63.604L438.916 70.786C437.188 70.03 435.568 69.454 434.056 69.058C432.58 68.626 431.14 68.41 429.736 68.41C428.764 68.41 427.954 68.554 427.306 68.842C426.658 69.094 426.172 69.472 425.848 69.976C425.524 70.444 425.362 71.002 425.362 71.65C425.362 72.406 425.614 73.072 426.118 73.648C426.622 74.188 427.414 74.746 428.494 75.322C429.574 75.898 430.996 76.6 432.76 77.428C434.668 78.292 436.306 79.228 437.674 80.236C439.042 81.244 440.086 82.432 440.806 83.8C441.526 85.132 441.886 86.806 441.886 88.822Z" fill="#4CB074"/>
<path d="M461.244 93.304C462.18 93.304 463.044 93.214 463.836 93.034C464.628 92.854 465.438 92.62 466.266 92.332V99.028C465.294 99.46 464.178 99.82 462.918 100.108C461.658 100.396 460.164 100.54 458.436 100.54C456.6 100.54 454.962 100.252 453.522 99.676C452.118 99.064 451.002 98.038 450.174 96.598C449.382 95.122 448.986 93.088 448.986 90.496V77.158H445.206V73.378L449.742 70.462L452.226 64.198H458.058V70.354H465.942V77.158H458.058V90.172C458.058 91.216 458.346 92.008 458.922 92.548C459.498 93.052 460.272 93.304 461.244 93.304Z" fill="#4CB074"/>
<path d="M485.182 69.76C489.034 69.76 492.022 70.66 494.146 72.46C496.27 74.224 497.332 76.852 497.332 80.344V100H491.014L489.232 96.004H489.016C488.188 97.048 487.324 97.912 486.424 98.596C485.56 99.28 484.552 99.766 483.4 100.054C482.284 100.378 480.898 100.54 479.242 100.54C477.514 100.54 475.948 100.198 474.544 99.514C473.176 98.83 472.096 97.786 471.304 96.382C470.512 94.978 470.116 93.196 470.116 91.036C470.116 87.868 471.214 85.528 473.41 84.016C475.642 82.504 478.9 81.658 483.184 81.478L488.26 81.316V80.452C488.26 79.012 487.882 77.968 487.126 77.32C486.406 76.672 485.398 76.348 484.102 76.348C482.806 76.348 481.456 76.564 480.052 76.996C478.648 77.392 477.226 77.896 475.786 78.508L473.032 72.46C474.652 71.596 476.488 70.93 478.54 70.462C480.592 69.994 482.806 69.76 485.182 69.76ZM485.506 86.608C483.238 86.68 481.654 87.094 480.754 87.85C479.854 88.57 479.404 89.56 479.404 90.82C479.404 91.936 479.728 92.746 480.376 93.25C481.024 93.754 481.852 94.006 482.86 94.006C484.372 94.006 485.65 93.556 486.694 92.656C487.738 91.72 488.26 90.46 488.26 88.876V86.5L485.506 86.608Z" fill="#4CB074"/>
<path d="M522.673 69.814C525.805 69.814 528.325 70.678 530.233 72.406C532.177 74.098 533.149 76.852 533.149 80.668V100H524.077V83.206C524.077 81.154 523.735 79.606 523.051 78.562C522.367 77.518 521.287 76.996 519.811 76.996C517.615 76.996 516.121 77.824 515.329 79.48C514.537 81.1 514.141 83.44 514.141 86.5V100H505.015V70.354H511.927L513.169 74.188H513.601C514.249 73.216 515.023 72.406 515.923 71.758C516.823 71.11 517.849 70.624 519.001 70.3C520.153 69.976 521.377 69.814 522.673 69.814Z" fill="#4CB074"/>
<path d="M550.164 100.54C546.996 100.54 544.386 99.244 542.334 96.652C540.318 94.06 539.31 90.244 539.31 85.204C539.31 80.128 540.336 76.294 542.388 73.702C544.44 71.11 547.122 69.814 550.434 69.814C551.802 69.814 553.008 70.012 554.052 70.408C555.096 70.768 555.978 71.272 556.698 71.92C557.454 72.568 558.102 73.306 558.642 74.134H558.858C558.75 73.486 558.624 72.568 558.48 71.38C558.372 70.156 558.318 68.95 558.318 67.762V58.96H567.444V100H560.532L558.696 96.166H558.318C557.85 96.958 557.238 97.696 556.482 98.38C555.726 99.028 554.826 99.55 553.782 99.946C552.774 100.342 551.568 100.54 550.164 100.54ZM553.62 93.304C555.6 93.304 556.986 92.71 557.778 91.522C558.57 90.334 558.984 88.534 559.02 86.122V85.312C559.02 82.684 558.624 80.668 557.832 79.264C557.076 77.86 555.636 77.158 553.512 77.158C552 77.158 550.776 77.842 549.84 79.21C548.94 80.578 548.49 82.63 548.49 85.366C548.49 88.066 548.94 90.064 549.84 91.36C550.776 92.656 552.036 93.304 553.62 93.304Z" fill="#4CB074"/>
<path d="M588.541 69.76C592.393 69.76 595.381 70.66 597.505 72.46C599.629 74.224 600.691 76.852 600.691 80.344V100H594.373L592.591 96.004H592.375C591.547 97.048 590.683 97.912 589.783 98.596C588.919 99.28 587.911 99.766 586.759 100.054C585.643 100.378 584.257 100.54 582.601 100.54C580.873 100.54 579.307 100.198 577.903 99.514C576.535 98.83 575.455 97.786 574.663 96.382C573.871 94.978 573.475 93.196 573.475 91.036C573.475 87.868 574.573 85.528 576.769 84.016C579.001 82.504 582.259 81.658 586.543 81.478L591.619 81.316V80.452C591.619 79.012 591.241 77.968 590.485 77.32C589.765 76.672 588.757 76.348 587.461 76.348C586.165 76.348 584.815 76.564 583.411 76.996C582.007 77.392 580.585 77.896 579.145 78.508L576.391 72.46C578.011 71.596 579.847 70.93 581.899 70.462C583.951 69.994 586.165 69.76 588.541 69.76ZM588.865 86.608C586.597 86.68 585.013 87.094 584.113 87.85C583.213 88.57 582.763 89.56 582.763 90.82C582.763 91.936 583.087 92.746 583.735 93.25C584.383 93.754 585.211 94.006 586.219 94.006C587.731 94.006 589.009 93.556 590.053 92.656C591.097 91.72 591.619 90.46 591.619 88.876V86.5L588.865 86.608Z" fill="#4CB074"/>
<path d="M625.6 69.814C626.068 69.814 626.59 69.85 627.166 69.922C627.742 69.958 628.192 70.012 628.516 70.084L627.76 78.616C627.436 78.544 627.022 78.49 626.518 78.454C626.014 78.382 625.456 78.346 624.844 78.346C623.98 78.346 623.116 78.454 622.252 78.67C621.388 78.85 620.596 79.192 619.876 79.696C619.156 80.164 618.58 80.848 618.148 81.748C617.716 82.612 617.5 83.746 617.5 85.15V100H608.374V70.354H615.232L616.636 75.214H617.014C617.59 74.206 618.31 73.306 619.174 72.514C620.038 71.686 621.01 71.038 622.09 70.57C623.206 70.066 624.376 69.814 625.6 69.814Z" fill="#4CB074"/>
<path d="M641.552 100.54C638.384 100.54 635.774 99.244 633.722 96.652C631.706 94.06 630.698 90.244 630.698 85.204C630.698 80.128 631.724 76.294 633.776 73.702C635.828 71.11 638.51 69.814 641.822 69.814C643.19 69.814 644.396 70.012 645.44 70.408C646.484 70.768 647.366 71.272 648.086 71.92C648.842 72.568 649.49 73.306 650.03 74.134H650.246C650.138 73.486 650.012 72.568 649.868 71.38C649.76 70.156 649.706 68.95 649.706 67.762V58.96H658.832V100H651.92L650.084 96.166H649.706C649.238 96.958 648.626 97.696 647.87 98.38C647.114 99.028 646.214 99.55 645.17 99.946C644.162 100.342 642.956 100.54 641.552 100.54ZM645.008 93.304C646.988 93.304 648.374 92.71 649.166 91.522C649.958 90.334 650.372 88.534 650.408 86.122V85.312C650.408 82.684 650.012 80.668 649.22 79.264C648.464 77.86 647.024 77.158 644.9 77.158C643.388 77.158 642.164 77.842 641.228 79.21C640.328 80.578 639.878 82.63 639.878 85.366C639.878 88.066 640.328 90.064 641.228 91.36C642.164 92.656 643.424 93.304 645.008 93.304Z" fill="#4CB074"/>
<path d="M694.119 61.444C699.051 61.444 702.687 62.524 705.027 64.684C707.403 66.808 708.591 69.778 708.591 73.594C708.591 75.322 708.339 76.978 707.835 78.562C707.331 80.11 706.485 81.496 705.297 82.72C704.145 83.944 702.615 84.916 700.707 85.636C698.835 86.356 696.513 86.716 693.741 86.716H690.501V100H681.321V61.444H694.119ZM693.795 68.95H690.501V79.21H692.931C694.191 79.21 695.289 79.03 696.225 78.67C697.197 78.31 697.953 77.734 698.493 76.942C699.033 76.15 699.303 75.124 699.303 73.864C699.303 72.28 698.853 71.074 697.953 70.246C697.053 69.382 695.667 68.95 693.795 68.95Z" fill="#4CB074"/>
<path d="M727.971 69.76C731.823 69.76 734.811 70.66 736.935 72.46C739.059 74.224 740.121 76.852 740.121 80.344V100H733.803L732.021 96.004H731.805C730.977 97.048 730.113 97.912 729.213 98.596C728.349 99.28 727.341 99.766 726.189 100.054C725.073 100.378 723.687 100.54 722.031 100.54C720.303 100.54 718.737 100.198 717.333 99.514C715.965 98.83 714.885 97.786 714.093 96.382C713.301 94.978 712.905 93.196 712.905 91.036C712.905 87.868 714.003 85.528 716.199 84.016C718.431 82.504 721.689 81.658 725.973 81.478L731.049 81.316V80.452C731.049 79.012 730.671 77.968 729.915 77.32C729.195 76.672 728.187 76.348 726.891 76.348C725.595 76.348 724.245 76.564 722.841 76.996C721.437 77.392 720.015 77.896 718.575 78.508L715.821 72.46C717.441 71.596 719.277 70.93 721.329 70.462C723.381 69.994 725.595 69.76 727.971 69.76ZM728.295 86.608C726.027 86.68 724.443 87.094 723.543 87.85C722.643 88.57 722.193 89.56 722.193 90.82C722.193 91.936 722.517 92.746 723.165 93.25C723.813 93.754 724.641 94.006 725.649 94.006C727.161 94.006 728.439 93.556 729.483 92.656C730.527 91.72 731.049 90.46 731.049 88.876V86.5L728.295 86.608Z" fill="#4CB074"/>
<path d="M761.25 93.304C762.186 93.304 763.05 93.214 763.842 93.034C764.634 92.854 765.444 92.62 766.272 92.332V99.028C765.3 99.46 764.184 99.82 762.924 100.108C761.664 100.396 760.17 100.54 758.442 100.54C756.606 100.54 754.968 100.252 753.528 99.676C752.124 99.064 751.008 98.038 750.18 96.598C749.388 95.122 748.992 93.088 748.992 90.496V77.158H745.212V73.378L749.748 70.462L752.232 64.198H758.064V70.354H765.948V77.158H758.064V90.172C758.064 91.216 758.352 92.008 758.928 92.548C759.504 93.052 760.278 93.304 761.25 93.304Z" fill="#4CB074"/>
<path d="M781.03 66.142C781.03 67.942 780.976 69.562 780.868 71.002C780.76 72.406 780.67 73.432 780.598 74.08H781.084C781.732 73.036 782.47 72.208 783.298 71.596C784.126 70.984 785.062 70.534 786.106 70.246C787.15 69.958 788.266 69.814 789.454 69.814C791.506 69.814 793.324 70.192 794.908 70.948C796.492 71.704 797.734 72.874 798.634 74.458C799.57 76.042 800.038 78.112 800.038 80.668V100H790.912V83.206C790.912 81.118 790.57 79.57 789.886 78.562C789.238 77.518 788.176 76.996 786.7 76.996C785.26 76.996 784.126 77.374 783.298 78.13C782.47 78.85 781.876 79.912 781.516 81.316C781.192 82.72 781.03 84.448 781.03 86.5V100H771.904V58.96H781.03V66.142Z" fill="#4CB074"/>
</svg>
