<svg width="1024" height="200" viewBox="0 0 1024 200" fill="none" xmlns="http://www.w3.org/2000/svg">
<rect width="1024" height="200" fill="white"/>
<path d="M171.92 150.969C171.92 150.504 171.847 150.094 171.701 149.738C171.564 149.374 171.318 149.046 170.963 148.754C170.617 148.462 170.133 148.184 169.514 147.92C168.903 147.656 168.128 147.387 167.189 147.113C166.205 146.822 165.316 146.498 164.523 146.143C163.73 145.778 163.051 145.363 162.486 144.898C161.921 144.434 161.488 143.9 161.188 143.299C160.887 142.697 160.736 142.009 160.736 141.234C160.736 140.46 160.896 139.744 161.215 139.088C161.534 138.432 161.99 137.862 162.582 137.379C163.184 136.887 163.899 136.504 164.729 136.23C165.558 135.957 166.483 135.82 167.504 135.82C168.999 135.82 170.266 136.107 171.305 136.682C172.353 137.247 173.15 137.99 173.697 138.91C174.244 139.822 174.518 140.797 174.518 141.836H171.893C171.893 141.089 171.733 140.428 171.414 139.854C171.095 139.27 170.612 138.814 169.965 138.486C169.318 138.149 168.497 137.98 167.504 137.98C166.565 137.98 165.79 138.122 165.18 138.404C164.569 138.687 164.113 139.07 163.812 139.553C163.521 140.036 163.375 140.587 163.375 141.207C163.375 141.626 163.462 142.009 163.635 142.355C163.817 142.693 164.095 143.007 164.469 143.299C164.852 143.59 165.335 143.859 165.918 144.105C166.51 144.352 167.217 144.589 168.037 144.816C169.167 145.135 170.143 145.491 170.963 145.883C171.783 146.275 172.458 146.717 172.986 147.209C173.524 147.692 173.921 148.243 174.176 148.863C174.44 149.474 174.572 150.167 174.572 150.941C174.572 151.753 174.408 152.486 174.08 153.143C173.752 153.799 173.283 154.359 172.672 154.824C172.061 155.289 171.327 155.649 170.471 155.904C169.623 156.15 168.675 156.273 167.627 156.273C166.706 156.273 165.799 156.146 164.906 155.891C164.022 155.635 163.215 155.253 162.486 154.742C161.766 154.232 161.188 153.603 160.75 152.855C160.322 152.099 160.107 151.224 160.107 150.23H162.732C162.732 150.914 162.865 151.502 163.129 151.994C163.393 152.477 163.753 152.878 164.209 153.197C164.674 153.516 165.198 153.753 165.781 153.908C166.374 154.054 166.989 154.127 167.627 154.127C168.548 154.127 169.327 153.999 169.965 153.744C170.603 153.489 171.086 153.124 171.414 152.65C171.751 152.176 171.92 151.616 171.92 150.969ZM186.275 153.471V145.855C186.275 145.272 186.157 144.766 185.92 144.338C185.692 143.9 185.346 143.563 184.881 143.326C184.416 143.089 183.842 142.971 183.158 142.971C182.52 142.971 181.96 143.08 181.477 143.299C181.003 143.518 180.629 143.805 180.355 144.16C180.091 144.516 179.959 144.898 179.959 145.309H177.43C177.43 144.78 177.566 144.256 177.84 143.736C178.113 143.217 178.505 142.747 179.016 142.328C179.535 141.9 180.155 141.562 180.875 141.316C181.604 141.061 182.415 140.934 183.309 140.934C184.384 140.934 185.332 141.116 186.152 141.48C186.982 141.845 187.629 142.396 188.094 143.135C188.568 143.864 188.805 144.78 188.805 145.883V152.773C188.805 153.266 188.846 153.79 188.928 154.346C189.019 154.902 189.151 155.38 189.324 155.781V156H186.686C186.558 155.708 186.458 155.321 186.385 154.838C186.312 154.346 186.275 153.89 186.275 153.471ZM186.713 147.031L186.74 148.809H184.184C183.464 148.809 182.821 148.868 182.256 148.986C181.691 149.096 181.217 149.264 180.834 149.492C180.451 149.72 180.16 150.007 179.959 150.354C179.758 150.691 179.658 151.087 179.658 151.543C179.658 152.008 179.763 152.432 179.973 152.814C180.182 153.197 180.497 153.503 180.916 153.73C181.344 153.949 181.868 154.059 182.488 154.059C183.263 154.059 183.947 153.895 184.539 153.566C185.132 153.238 185.601 152.837 185.947 152.363C186.303 151.889 186.494 151.429 186.521 150.982L187.602 152.199C187.538 152.582 187.365 153.006 187.082 153.471C186.799 153.936 186.421 154.382 185.947 154.811C185.482 155.23 184.926 155.581 184.279 155.863C183.641 156.137 182.921 156.273 182.119 156.273C181.117 156.273 180.237 156.077 179.48 155.686C178.733 155.294 178.15 154.77 177.73 154.113C177.32 153.448 177.115 152.705 177.115 151.885C177.115 151.092 177.27 150.395 177.58 149.793C177.89 149.182 178.337 148.676 178.92 148.275C179.503 147.865 180.205 147.555 181.025 147.346C181.846 147.136 182.762 147.031 183.773 147.031H186.713ZM196.557 156H194.027V139.648C194.027 138.582 194.219 137.684 194.602 136.955C194.993 136.217 195.554 135.661 196.283 135.287C197.012 134.904 197.878 134.713 198.881 134.713C199.173 134.713 199.464 134.731 199.756 134.768C200.057 134.804 200.348 134.859 200.631 134.932L200.494 136.996C200.303 136.951 200.084 136.919 199.838 136.9C199.601 136.882 199.364 136.873 199.127 136.873C198.589 136.873 198.124 136.982 197.732 137.201C197.35 137.411 197.058 137.721 196.857 138.131C196.657 138.541 196.557 139.047 196.557 139.648V156ZM199.701 141.207V143.148H191.689V141.207H199.701ZM208.328 156.273C207.298 156.273 206.364 156.1 205.525 155.754C204.696 155.398 203.98 154.902 203.379 154.264C202.786 153.626 202.331 152.869 202.012 151.994C201.693 151.119 201.533 150.162 201.533 149.123V148.549C201.533 147.346 201.711 146.275 202.066 145.336C202.422 144.388 202.905 143.586 203.516 142.93C204.126 142.273 204.819 141.777 205.594 141.439C206.368 141.102 207.171 140.934 208 140.934C209.057 140.934 209.969 141.116 210.734 141.48C211.509 141.845 212.143 142.355 212.635 143.012C213.127 143.659 213.492 144.424 213.729 145.309C213.965 146.184 214.084 147.141 214.084 148.18V149.314H203.037V147.25H211.555V147.059C211.518 146.402 211.382 145.764 211.145 145.145C210.917 144.525 210.552 144.014 210.051 143.613C209.549 143.212 208.866 143.012 208 143.012C207.426 143.012 206.897 143.135 206.414 143.381C205.931 143.618 205.516 143.973 205.17 144.447C204.824 144.921 204.555 145.5 204.363 146.184C204.172 146.867 204.076 147.656 204.076 148.549V149.123C204.076 149.825 204.172 150.486 204.363 151.105C204.564 151.716 204.851 152.254 205.225 152.719C205.607 153.184 206.068 153.548 206.605 153.812C207.152 154.077 207.772 154.209 208.465 154.209C209.358 154.209 210.115 154.027 210.734 153.662C211.354 153.298 211.896 152.81 212.361 152.199L213.893 153.416C213.574 153.899 213.168 154.359 212.676 154.797C212.184 155.234 211.577 155.59 210.857 155.863C210.146 156.137 209.303 156.273 208.328 156.273ZM219.785 135V156H217.242V135H219.785ZM228.002 154.469L232.117 141.207H234.824L228.891 158.283C228.754 158.648 228.572 159.04 228.344 159.459C228.125 159.887 227.842 160.293 227.496 160.676C227.15 161.059 226.73 161.368 226.238 161.605C225.755 161.852 225.176 161.975 224.502 161.975C224.301 161.975 224.046 161.947 223.736 161.893C223.426 161.838 223.208 161.792 223.08 161.756L223.066 159.705C223.139 159.714 223.253 159.723 223.408 159.732C223.572 159.751 223.686 159.76 223.75 159.76C224.324 159.76 224.812 159.682 225.213 159.527C225.614 159.382 225.951 159.131 226.225 158.775C226.507 158.429 226.749 157.951 226.949 157.34L228.002 154.469ZM224.98 141.207L228.822 152.691L229.479 155.357L227.66 156.287L222.219 141.207H224.98ZM253.637 141.207H255.934V155.686C255.934 156.989 255.669 158.101 255.141 159.021C254.612 159.942 253.874 160.639 252.926 161.113C251.987 161.596 250.902 161.838 249.672 161.838C249.161 161.838 248.56 161.756 247.867 161.592C247.184 161.437 246.509 161.168 245.844 160.785C245.188 160.411 244.636 159.906 244.189 159.268L245.516 157.764C246.135 158.511 246.783 159.031 247.457 159.322C248.141 159.614 248.815 159.76 249.48 159.76C250.283 159.76 250.975 159.609 251.559 159.309C252.142 159.008 252.593 158.561 252.912 157.969C253.24 157.385 253.404 156.665 253.404 155.809V144.461L253.637 141.207ZM243.451 148.768V148.48C243.451 147.35 243.583 146.325 243.848 145.404C244.121 144.475 244.508 143.677 245.01 143.012C245.52 142.346 246.135 141.836 246.855 141.48C247.576 141.116 248.387 140.934 249.289 140.934C250.219 140.934 251.03 141.098 251.723 141.426C252.424 141.745 253.017 142.214 253.5 142.834C253.992 143.445 254.38 144.183 254.662 145.049C254.945 145.915 255.141 146.895 255.25 147.988V149.246C255.15 150.331 254.954 151.306 254.662 152.172C254.38 153.038 253.992 153.776 253.5 154.387C253.017 154.997 252.424 155.467 251.723 155.795C251.021 156.114 250.201 156.273 249.262 156.273C248.378 156.273 247.576 156.087 246.855 155.713C246.145 155.339 245.534 154.815 245.023 154.141C244.513 153.466 244.121 152.673 243.848 151.762C243.583 150.841 243.451 149.843 243.451 148.768ZM245.98 148.48V148.768C245.98 149.506 246.053 150.199 246.199 150.846C246.354 151.493 246.587 152.062 246.896 152.555C247.215 153.047 247.621 153.434 248.113 153.717C248.605 153.99 249.193 154.127 249.877 154.127C250.715 154.127 251.408 153.949 251.955 153.594C252.502 153.238 252.935 152.769 253.254 152.186C253.582 151.602 253.837 150.969 254.02 150.285V146.99C253.919 146.489 253.764 146.006 253.555 145.541C253.354 145.067 253.09 144.648 252.762 144.283C252.443 143.91 252.046 143.613 251.572 143.395C251.098 143.176 250.542 143.066 249.904 143.066C249.212 143.066 248.615 143.212 248.113 143.504C247.621 143.786 247.215 144.178 246.896 144.68C246.587 145.172 246.354 145.746 246.199 146.402C246.053 147.049 245.98 147.742 245.98 148.48ZM265.914 156.273C264.884 156.273 263.95 156.1 263.111 155.754C262.282 155.398 261.566 154.902 260.965 154.264C260.372 153.626 259.917 152.869 259.598 151.994C259.279 151.119 259.119 150.162 259.119 149.123V148.549C259.119 147.346 259.297 146.275 259.652 145.336C260.008 144.388 260.491 143.586 261.102 142.93C261.712 142.273 262.405 141.777 263.18 141.439C263.954 141.102 264.757 140.934 265.586 140.934C266.643 140.934 267.555 141.116 268.32 141.48C269.095 141.845 269.729 142.355 270.221 143.012C270.713 143.659 271.077 144.424 271.314 145.309C271.551 146.184 271.67 147.141 271.67 148.18V149.314H260.623V147.25H269.141V147.059C269.104 146.402 268.967 145.764 268.73 145.145C268.503 144.525 268.138 144.014 267.637 143.613C267.135 143.212 266.452 143.012 265.586 143.012C265.012 143.012 264.483 143.135 264 143.381C263.517 143.618 263.102 143.973 262.756 144.447C262.41 144.921 262.141 145.5 261.949 146.184C261.758 146.867 261.662 147.656 261.662 148.549V149.123C261.662 149.825 261.758 150.486 261.949 151.105C262.15 151.716 262.437 152.254 262.811 152.719C263.193 153.184 263.654 153.548 264.191 153.812C264.738 154.077 265.358 154.209 266.051 154.209C266.944 154.209 267.701 154.027 268.32 153.662C268.94 153.298 269.482 152.81 269.947 152.199L271.479 153.416C271.16 153.899 270.754 154.359 270.262 154.797C269.77 155.234 269.163 155.59 268.443 155.863C267.732 156.137 266.889 156.273 265.914 156.273ZM280.816 141.207V143.148H272.818V141.207H280.816ZM275.525 137.611H278.055V152.336C278.055 152.837 278.132 153.215 278.287 153.471C278.442 153.726 278.643 153.895 278.889 153.977C279.135 154.059 279.399 154.1 279.682 154.1C279.891 154.1 280.11 154.081 280.338 154.045C280.575 153.999 280.753 153.963 280.871 153.936L280.885 156C280.684 156.064 280.42 156.123 280.092 156.178C279.773 156.242 279.385 156.273 278.93 156.273C278.31 156.273 277.74 156.15 277.221 155.904C276.701 155.658 276.286 155.248 275.977 154.674C275.676 154.09 275.525 153.307 275.525 152.322V137.611ZM292.588 136.094L284.289 157.709H282.115L290.428 136.094H292.588ZM303.963 152.076C303.963 151.712 303.881 151.374 303.717 151.064C303.562 150.745 303.238 150.458 302.746 150.203C302.263 149.939 301.534 149.711 300.559 149.52C299.738 149.346 298.995 149.141 298.33 148.904C297.674 148.667 297.113 148.38 296.648 148.043C296.193 147.706 295.842 147.309 295.596 146.854C295.35 146.398 295.227 145.865 295.227 145.254C295.227 144.671 295.354 144.119 295.609 143.6C295.874 143.08 296.243 142.62 296.717 142.219C297.2 141.818 297.779 141.503 298.453 141.275C299.128 141.048 299.88 140.934 300.709 140.934C301.894 140.934 302.906 141.143 303.744 141.562C304.583 141.982 305.225 142.542 305.672 143.244C306.118 143.937 306.342 144.707 306.342 145.555H303.812C303.812 145.145 303.689 144.748 303.443 144.365C303.206 143.973 302.855 143.65 302.391 143.395C301.935 143.139 301.374 143.012 300.709 143.012C300.007 143.012 299.438 143.121 299 143.34C298.572 143.549 298.257 143.818 298.057 144.146C297.865 144.475 297.77 144.821 297.77 145.186C297.77 145.459 297.815 145.705 297.906 145.924C298.007 146.133 298.18 146.329 298.426 146.512C298.672 146.685 299.018 146.849 299.465 147.004C299.911 147.159 300.481 147.314 301.174 147.469C302.386 147.742 303.384 148.07 304.168 148.453C304.952 148.836 305.535 149.305 305.918 149.861C306.301 150.417 306.492 151.092 306.492 151.885C306.492 152.532 306.355 153.124 306.082 153.662C305.818 154.2 305.43 154.665 304.92 155.057C304.419 155.439 303.817 155.74 303.115 155.959C302.423 156.169 301.643 156.273 300.777 156.273C299.474 156.273 298.371 156.041 297.469 155.576C296.566 155.111 295.883 154.51 295.418 153.771C294.953 153.033 294.721 152.254 294.721 151.434H297.264C297.3 152.126 297.501 152.678 297.865 153.088C298.23 153.489 298.676 153.776 299.205 153.949C299.734 154.113 300.258 154.195 300.777 154.195C301.47 154.195 302.049 154.104 302.514 153.922C302.988 153.74 303.348 153.489 303.594 153.17C303.84 152.851 303.963 152.486 303.963 152.076ZM315.953 156.273C314.923 156.273 313.989 156.1 313.15 155.754C312.321 155.398 311.605 154.902 311.004 154.264C310.411 153.626 309.956 152.869 309.637 151.994C309.318 151.119 309.158 150.162 309.158 149.123V148.549C309.158 147.346 309.336 146.275 309.691 145.336C310.047 144.388 310.53 143.586 311.141 142.93C311.751 142.273 312.444 141.777 313.219 141.439C313.993 141.102 314.796 140.934 315.625 140.934C316.682 140.934 317.594 141.116 318.359 141.48C319.134 141.845 319.768 142.355 320.26 143.012C320.752 143.659 321.117 144.424 321.354 145.309C321.59 146.184 321.709 147.141 321.709 148.18V149.314H310.662V147.25H319.18V147.059C319.143 146.402 319.007 145.764 318.77 145.145C318.542 144.525 318.177 144.014 317.676 143.613C317.174 143.212 316.491 143.012 315.625 143.012C315.051 143.012 314.522 143.135 314.039 143.381C313.556 143.618 313.141 143.973 312.795 144.447C312.449 144.921 312.18 145.5 311.988 146.184C311.797 146.867 311.701 147.656 311.701 148.549V149.123C311.701 149.825 311.797 150.486 311.988 151.105C312.189 151.716 312.476 152.254 312.85 152.719C313.232 153.184 313.693 153.548 314.23 153.812C314.777 154.077 315.397 154.209 316.09 154.209C316.983 154.209 317.74 154.027 318.359 153.662C318.979 153.298 319.521 152.81 319.986 152.199L321.518 153.416C321.199 153.899 320.793 154.359 320.301 154.797C319.809 155.234 319.202 155.59 318.482 155.863C317.771 156.137 316.928 156.273 315.953 156.273ZM330.855 141.207V143.148H322.857V141.207H330.855ZM325.564 137.611H328.094V152.336C328.094 152.837 328.171 153.215 328.326 153.471C328.481 153.726 328.682 153.895 328.928 153.977C329.174 154.059 329.438 154.1 329.721 154.1C329.93 154.1 330.149 154.081 330.377 154.045C330.614 153.999 330.792 153.963 330.91 153.936L330.924 156C330.723 156.064 330.459 156.123 330.131 156.178C329.812 156.242 329.424 156.273 328.969 156.273C328.349 156.273 327.779 156.15 327.26 155.904C326.74 155.658 326.326 155.248 326.016 154.674C325.715 154.09 325.564 153.307 325.564 152.322V137.611ZM350.092 153.129V135H352.635V156H350.311L350.092 153.129ZM340.139 148.768V148.48C340.139 147.35 340.275 146.325 340.549 145.404C340.831 144.475 341.228 143.677 341.738 143.012C342.258 142.346 342.873 141.836 343.584 141.48C344.304 141.116 345.106 140.934 345.99 140.934C346.92 140.934 347.731 141.098 348.424 141.426C349.126 141.745 349.718 142.214 350.201 142.834C350.693 143.445 351.081 144.183 351.363 145.049C351.646 145.915 351.842 146.895 351.951 147.988V149.246C351.851 150.331 351.655 151.306 351.363 152.172C351.081 153.038 350.693 153.776 350.201 154.387C349.718 154.997 349.126 155.467 348.424 155.795C347.722 156.114 346.902 156.273 345.963 156.273C345.097 156.273 344.304 156.087 343.584 155.713C342.873 155.339 342.258 154.815 341.738 154.141C341.228 153.466 340.831 152.673 340.549 151.762C340.275 150.841 340.139 149.843 340.139 148.768ZM342.682 148.48V148.768C342.682 149.506 342.755 150.199 342.9 150.846C343.055 151.493 343.292 152.062 343.611 152.555C343.93 153.047 344.336 153.434 344.828 153.717C345.32 153.99 345.908 154.127 346.592 154.127C347.43 154.127 348.118 153.949 348.656 153.594C349.203 153.238 349.641 152.769 349.969 152.186C350.297 151.602 350.552 150.969 350.734 150.285V146.99C350.625 146.489 350.465 146.006 350.256 145.541C350.055 145.067 349.791 144.648 349.463 144.283C349.144 143.91 348.747 143.613 348.273 143.395C347.809 143.176 347.257 143.066 346.619 143.066C345.926 143.066 345.329 143.212 344.828 143.504C344.336 143.786 343.93 144.178 343.611 144.68C343.292 145.172 343.055 145.746 342.9 146.402C342.755 147.049 342.682 147.742 342.682 148.48ZM362.711 156.273C361.681 156.273 360.747 156.1 359.908 155.754C359.079 155.398 358.363 154.902 357.762 154.264C357.169 153.626 356.714 152.869 356.395 151.994C356.076 151.119 355.916 150.162 355.916 149.123V148.549C355.916 147.346 356.094 146.275 356.449 145.336C356.805 144.388 357.288 143.586 357.898 142.93C358.509 142.273 359.202 141.777 359.977 141.439C360.751 141.102 361.553 140.934 362.383 140.934C363.44 140.934 364.352 141.116 365.117 141.48C365.892 141.845 366.525 142.355 367.018 143.012C367.51 143.659 367.874 144.424 368.111 145.309C368.348 146.184 368.467 147.141 368.467 148.18V149.314H357.42V147.25H365.938V147.059C365.901 146.402 365.764 145.764 365.527 145.145C365.299 144.525 364.935 144.014 364.434 143.613C363.932 143.212 363.249 143.012 362.383 143.012C361.809 143.012 361.28 143.135 360.797 143.381C360.314 143.618 359.899 143.973 359.553 144.447C359.206 144.921 358.938 145.5 358.746 146.184C358.555 146.867 358.459 147.656 358.459 148.549V149.123C358.459 149.825 358.555 150.486 358.746 151.105C358.947 151.716 359.234 152.254 359.607 152.719C359.99 153.184 360.451 153.548 360.988 153.812C361.535 154.077 362.155 154.209 362.848 154.209C363.741 154.209 364.497 154.027 365.117 153.662C365.737 153.298 366.279 152.81 366.744 152.199L368.275 153.416C367.956 153.899 367.551 154.359 367.059 154.797C366.566 155.234 365.96 155.59 365.24 155.863C364.529 156.137 363.686 156.273 362.711 156.273ZM377.559 156.273C376.529 156.273 375.594 156.1 374.756 155.754C373.926 155.398 373.211 154.902 372.609 154.264C372.017 153.626 371.561 152.869 371.242 151.994C370.923 151.119 370.764 150.162 370.764 149.123V148.549C370.764 147.346 370.941 146.275 371.297 145.336C371.652 144.388 372.135 143.586 372.746 142.93C373.357 142.273 374.049 141.777 374.824 141.439C375.599 141.102 376.401 140.934 377.23 140.934C378.288 140.934 379.199 141.116 379.965 141.48C380.74 141.845 381.373 142.355 381.865 143.012C382.357 143.659 382.722 144.424 382.959 145.309C383.196 146.184 383.314 147.141 383.314 148.18V149.314H372.268V147.25H380.785V147.059C380.749 146.402 380.612 145.764 380.375 145.145C380.147 144.525 379.783 144.014 379.281 143.613C378.78 143.212 378.096 143.012 377.23 143.012C376.656 143.012 376.128 143.135 375.645 143.381C375.161 143.618 374.747 143.973 374.4 144.447C374.054 144.921 373.785 145.5 373.594 146.184C373.402 146.867 373.307 147.656 373.307 148.549V149.123C373.307 149.825 373.402 150.486 373.594 151.105C373.794 151.716 374.081 152.254 374.455 152.719C374.838 153.184 375.298 153.548 375.836 153.812C376.383 154.077 377.003 154.209 377.695 154.209C378.589 154.209 379.345 154.027 379.965 153.662C380.585 153.298 381.127 152.81 381.592 152.199L383.123 153.416C382.804 153.899 382.398 154.359 381.906 154.797C381.414 155.234 380.808 155.59 380.088 155.863C379.377 156.137 378.534 156.273 377.559 156.273ZM388.797 144.051V161.688H386.254V141.207H388.578L388.797 144.051ZM398.764 148.48V148.768C398.764 149.843 398.636 150.841 398.381 151.762C398.126 152.673 397.752 153.466 397.26 154.141C396.777 154.815 396.18 155.339 395.469 155.713C394.758 156.087 393.942 156.273 393.021 156.273C392.083 156.273 391.253 156.118 390.533 155.809C389.813 155.499 389.202 155.048 388.701 154.455C388.2 153.863 387.799 153.152 387.498 152.322C387.206 151.493 387.006 150.559 386.896 149.52V147.988C387.006 146.895 387.211 145.915 387.512 145.049C387.812 144.183 388.209 143.445 388.701 142.834C389.202 142.214 389.809 141.745 390.52 141.426C391.23 141.098 392.051 140.934 392.98 140.934C393.91 140.934 394.735 141.116 395.455 141.48C396.175 141.836 396.781 142.346 397.273 143.012C397.766 143.677 398.135 144.475 398.381 145.404C398.636 146.325 398.764 147.35 398.764 148.48ZM396.221 148.768V148.48C396.221 147.742 396.143 147.049 395.988 146.402C395.833 145.746 395.592 145.172 395.264 144.68C394.945 144.178 394.535 143.786 394.033 143.504C393.532 143.212 392.935 143.066 392.242 143.066C391.604 143.066 391.048 143.176 390.574 143.395C390.109 143.613 389.713 143.91 389.385 144.283C389.057 144.648 388.788 145.067 388.578 145.541C388.378 146.006 388.227 146.489 388.127 146.99V150.531C388.309 151.169 388.564 151.771 388.893 152.336C389.221 152.892 389.658 153.343 390.205 153.689C390.752 154.027 391.44 154.195 392.27 154.195C392.953 154.195 393.541 154.054 394.033 153.771C394.535 153.48 394.945 153.083 395.264 152.582C395.592 152.081 395.833 151.507 395.988 150.859C396.143 150.203 396.221 149.506 396.221 148.768ZM411.465 144.365V156H408.936V141.207H411.328L411.465 144.365ZM410.863 148.043L409.811 148.002C409.82 146.99 409.97 146.056 410.262 145.199C410.553 144.333 410.964 143.581 411.492 142.943C412.021 142.305 412.65 141.813 413.379 141.467C414.117 141.111 414.933 140.934 415.826 140.934C416.555 140.934 417.212 141.034 417.795 141.234C418.378 141.426 418.875 141.736 419.285 142.164C419.704 142.592 420.023 143.148 420.242 143.832C420.461 144.507 420.57 145.331 420.57 146.307V156H418.027V146.279C418.027 145.505 417.913 144.885 417.686 144.42C417.458 143.946 417.125 143.604 416.688 143.395C416.25 143.176 415.712 143.066 415.074 143.066C414.445 143.066 413.871 143.199 413.352 143.463C412.841 143.727 412.399 144.092 412.025 144.557C411.661 145.021 411.374 145.555 411.164 146.156C410.964 146.749 410.863 147.378 410.863 148.043ZM430.551 156.273C429.521 156.273 428.587 156.1 427.748 155.754C426.919 155.398 426.203 154.902 425.602 154.264C425.009 153.626 424.553 152.869 424.234 151.994C423.915 151.119 423.756 150.162 423.756 149.123V148.549C423.756 147.346 423.934 146.275 424.289 145.336C424.645 144.388 425.128 143.586 425.738 142.93C426.349 142.273 427.042 141.777 427.816 141.439C428.591 141.102 429.393 140.934 430.223 140.934C431.28 140.934 432.191 141.116 432.957 141.48C433.732 141.845 434.365 142.355 434.857 143.012C435.35 143.659 435.714 144.424 435.951 145.309C436.188 146.184 436.307 147.141 436.307 148.18V149.314H425.26V147.25H433.777V147.059C433.741 146.402 433.604 145.764 433.367 145.145C433.139 144.525 432.775 144.014 432.273 143.613C431.772 143.212 431.089 143.012 430.223 143.012C429.648 143.012 429.12 143.135 428.637 143.381C428.154 143.618 427.739 143.973 427.393 144.447C427.046 144.921 426.777 145.5 426.586 146.184C426.395 146.867 426.299 147.656 426.299 148.549V149.123C426.299 149.825 426.395 150.486 426.586 151.105C426.786 151.716 427.074 152.254 427.447 152.719C427.83 153.184 428.29 153.548 428.828 153.812C429.375 154.077 429.995 154.209 430.688 154.209C431.581 154.209 432.337 154.027 432.957 153.662C433.577 153.298 434.119 152.81 434.584 152.199L436.115 153.416C435.796 153.899 435.391 154.359 434.898 154.797C434.406 155.234 433.8 155.59 433.08 155.863C432.369 156.137 431.526 156.273 430.551 156.273ZM447.873 152.076C447.873 151.712 447.791 151.374 447.627 151.064C447.472 150.745 447.148 150.458 446.656 150.203C446.173 149.939 445.444 149.711 444.469 149.52C443.648 149.346 442.906 149.141 442.24 148.904C441.584 148.667 441.023 148.38 440.559 148.043C440.103 147.706 439.752 147.309 439.506 146.854C439.26 146.398 439.137 145.865 439.137 145.254C439.137 144.671 439.264 144.119 439.52 143.6C439.784 143.08 440.153 142.62 440.627 142.219C441.11 141.818 441.689 141.503 442.363 141.275C443.038 141.048 443.79 140.934 444.619 140.934C445.804 140.934 446.816 141.143 447.654 141.562C448.493 141.982 449.135 142.542 449.582 143.244C450.029 143.937 450.252 144.707 450.252 145.555H447.723C447.723 145.145 447.6 144.748 447.354 144.365C447.117 143.973 446.766 143.65 446.301 143.395C445.845 143.139 445.285 143.012 444.619 143.012C443.917 143.012 443.348 143.121 442.91 143.34C442.482 143.549 442.167 143.818 441.967 144.146C441.775 144.475 441.68 144.821 441.68 145.186C441.68 145.459 441.725 145.705 441.816 145.924C441.917 146.133 442.09 146.329 442.336 146.512C442.582 146.685 442.928 146.849 443.375 147.004C443.822 147.159 444.391 147.314 445.084 147.469C446.296 147.742 447.294 148.07 448.078 148.453C448.862 148.836 449.445 149.305 449.828 149.861C450.211 150.417 450.402 151.092 450.402 151.885C450.402 152.532 450.266 153.124 449.992 153.662C449.728 154.2 449.34 154.665 448.83 155.057C448.329 155.439 447.727 155.74 447.025 155.959C446.333 156.169 445.553 156.273 444.688 156.273C443.384 156.273 442.281 156.041 441.379 155.576C440.477 155.111 439.793 154.51 439.328 153.771C438.863 153.033 438.631 152.254 438.631 151.434H441.174C441.21 152.126 441.411 152.678 441.775 153.088C442.14 153.489 442.587 153.776 443.115 153.949C443.644 154.113 444.168 154.195 444.688 154.195C445.38 154.195 445.959 154.104 446.424 153.922C446.898 153.74 447.258 153.489 447.504 153.17C447.75 152.851 447.873 152.486 447.873 152.076ZM459.918 141.207V143.148H451.92V141.207H459.918ZM454.627 137.611H457.156V152.336C457.156 152.837 457.234 153.215 457.389 153.471C457.544 153.726 457.744 153.895 457.99 153.977C458.236 154.059 458.501 154.1 458.783 154.1C458.993 154.1 459.212 154.081 459.439 154.045C459.676 153.999 459.854 153.963 459.973 153.936L459.986 156C459.786 156.064 459.521 156.123 459.193 156.178C458.874 156.242 458.487 156.273 458.031 156.273C457.411 156.273 456.842 156.15 456.322 155.904C455.803 155.658 455.388 155.248 455.078 154.674C454.777 154.09 454.627 153.307 454.627 152.322V137.611ZM469.023 156.273C467.993 156.273 467.059 156.1 466.221 155.754C465.391 155.398 464.676 154.902 464.074 154.264C463.482 153.626 463.026 152.869 462.707 151.994C462.388 151.119 462.229 150.162 462.229 149.123V148.549C462.229 147.346 462.406 146.275 462.762 145.336C463.117 144.388 463.6 143.586 464.211 142.93C464.822 142.273 465.514 141.777 466.289 141.439C467.064 141.102 467.866 140.934 468.695 140.934C469.753 140.934 470.664 141.116 471.43 141.48C472.204 141.845 472.838 142.355 473.33 143.012C473.822 143.659 474.187 144.424 474.424 145.309C474.661 146.184 474.779 147.141 474.779 148.18V149.314H463.732V147.25H472.25V147.059C472.214 146.402 472.077 145.764 471.84 145.145C471.612 144.525 471.247 144.014 470.746 143.613C470.245 143.212 469.561 143.012 468.695 143.012C468.121 143.012 467.592 143.135 467.109 143.381C466.626 143.618 466.212 143.973 465.865 144.447C465.519 144.921 465.25 145.5 465.059 146.184C464.867 146.867 464.771 147.656 464.771 148.549V149.123C464.771 149.825 464.867 150.486 465.059 151.105C465.259 151.716 465.546 152.254 465.92 152.719C466.303 153.184 466.763 153.548 467.301 153.812C467.848 154.077 468.467 154.209 469.16 154.209C470.053 154.209 470.81 154.027 471.43 153.662C472.049 153.298 472.592 152.81 473.057 152.199L474.588 153.416C474.269 153.899 473.863 154.359 473.371 154.797C472.879 155.234 472.273 155.59 471.553 155.863C470.842 156.137 469.999 156.273 469.023 156.273ZM487.057 153.129V135H489.6V156H487.275L487.057 153.129ZM477.104 148.768V148.48C477.104 147.35 477.24 146.325 477.514 145.404C477.796 144.475 478.193 143.677 478.703 143.012C479.223 142.346 479.838 141.836 480.549 141.48C481.269 141.116 482.071 140.934 482.955 140.934C483.885 140.934 484.696 141.098 485.389 141.426C486.09 141.745 486.683 142.214 487.166 142.834C487.658 143.445 488.046 144.183 488.328 145.049C488.611 145.915 488.807 146.895 488.916 147.988V149.246C488.816 150.331 488.62 151.306 488.328 152.172C488.046 153.038 487.658 153.776 487.166 154.387C486.683 154.997 486.09 155.467 485.389 155.795C484.687 156.114 483.867 156.273 482.928 156.273C482.062 156.273 481.269 156.087 480.549 155.713C479.838 155.339 479.223 154.815 478.703 154.141C478.193 153.466 477.796 152.673 477.514 151.762C477.24 150.841 477.104 149.843 477.104 148.768ZM479.646 148.48V148.768C479.646 149.506 479.719 150.199 479.865 150.846C480.02 151.493 480.257 152.062 480.576 152.555C480.895 153.047 481.301 153.434 481.793 153.717C482.285 153.99 482.873 154.127 483.557 154.127C484.395 154.127 485.083 153.949 485.621 153.594C486.168 153.238 486.605 152.769 486.934 152.186C487.262 151.602 487.517 150.969 487.699 150.285V146.99C487.59 146.489 487.43 146.006 487.221 145.541C487.02 145.067 486.756 144.648 486.428 144.283C486.109 143.91 485.712 143.613 485.238 143.395C484.773 143.176 484.222 143.066 483.584 143.066C482.891 143.066 482.294 143.212 481.793 143.504C481.301 143.786 480.895 144.178 480.576 144.68C480.257 145.172 480.02 145.746 479.865 146.402C479.719 147.049 479.646 147.742 479.646 148.48ZM503.012 144.051V161.688H500.469V141.207H502.793L503.012 144.051ZM512.979 148.48V148.768C512.979 149.843 512.851 150.841 512.596 151.762C512.34 152.673 511.967 153.466 511.475 154.141C510.992 154.815 510.395 155.339 509.684 155.713C508.973 156.087 508.157 156.273 507.236 156.273C506.298 156.273 505.468 156.118 504.748 155.809C504.028 155.499 503.417 155.048 502.916 154.455C502.415 153.863 502.014 153.152 501.713 152.322C501.421 151.493 501.221 150.559 501.111 149.52V147.988C501.221 146.895 501.426 145.915 501.727 145.049C502.027 144.183 502.424 143.445 502.916 142.834C503.417 142.214 504.023 141.745 504.734 141.426C505.445 141.098 506.266 140.934 507.195 140.934C508.125 140.934 508.95 141.116 509.67 141.48C510.39 141.836 510.996 142.346 511.488 143.012C511.98 143.677 512.35 144.475 512.596 145.404C512.851 146.325 512.979 147.35 512.979 148.48ZM510.436 148.768V148.48C510.436 147.742 510.358 147.049 510.203 146.402C510.048 145.746 509.807 145.172 509.479 144.68C509.16 144.178 508.749 143.786 508.248 143.504C507.747 143.212 507.15 143.066 506.457 143.066C505.819 143.066 505.263 143.176 504.789 143.395C504.324 143.613 503.928 143.91 503.6 144.283C503.271 144.648 503.003 145.067 502.793 145.541C502.592 146.006 502.442 146.489 502.342 146.99V150.531C502.524 151.169 502.779 151.771 503.107 152.336C503.436 152.892 503.873 153.343 504.42 153.689C504.967 154.027 505.655 154.195 506.484 154.195C507.168 154.195 507.756 154.054 508.248 153.771C508.749 153.48 509.16 153.083 509.479 152.582C509.807 152.081 510.048 151.507 510.203 150.859C510.358 150.203 510.436 149.506 510.436 148.768ZM518.734 143.531V156H516.205V141.207H518.666L518.734 143.531ZM523.355 141.125L523.342 143.477C523.132 143.431 522.932 143.404 522.74 143.395C522.558 143.376 522.348 143.367 522.111 143.367C521.528 143.367 521.013 143.458 520.566 143.641C520.12 143.823 519.742 144.078 519.432 144.406C519.122 144.734 518.876 145.126 518.693 145.582C518.52 146.029 518.406 146.521 518.352 147.059L517.641 147.469C517.641 146.576 517.727 145.737 517.9 144.953C518.083 144.169 518.361 143.477 518.734 142.875C519.108 142.264 519.582 141.79 520.156 141.453C520.74 141.107 521.432 140.934 522.234 140.934C522.417 140.934 522.626 140.956 522.863 141.002C523.1 141.038 523.264 141.079 523.355 141.125ZM524.75 148.768V148.453C524.75 147.387 524.905 146.398 525.215 145.486C525.525 144.566 525.971 143.768 526.555 143.094C527.138 142.41 527.844 141.882 528.674 141.508C529.503 141.125 530.433 140.934 531.463 140.934C532.502 140.934 533.436 141.125 534.266 141.508C535.104 141.882 535.815 142.41 536.398 143.094C536.991 143.768 537.442 144.566 537.752 145.486C538.062 146.398 538.217 147.387 538.217 148.453V148.768C538.217 149.834 538.062 150.823 537.752 151.734C537.442 152.646 536.991 153.443 536.398 154.127C535.815 154.801 535.109 155.33 534.279 155.713C533.459 156.087 532.529 156.273 531.49 156.273C530.451 156.273 529.517 156.087 528.688 155.713C527.858 155.33 527.147 154.801 526.555 154.127C525.971 153.443 525.525 152.646 525.215 151.734C524.905 150.823 524.75 149.834 524.75 148.768ZM527.279 148.453V148.768C527.279 149.506 527.366 150.203 527.539 150.859C527.712 151.507 527.972 152.081 528.318 152.582C528.674 153.083 529.116 153.48 529.645 153.771C530.173 154.054 530.788 154.195 531.49 154.195C532.183 154.195 532.789 154.054 533.309 153.771C533.837 153.48 534.275 153.083 534.621 152.582C534.967 152.081 535.227 151.507 535.4 150.859C535.583 150.203 535.674 149.506 535.674 148.768V148.453C535.674 147.724 535.583 147.036 535.4 146.389C535.227 145.732 534.963 145.154 534.607 144.652C534.261 144.142 533.824 143.741 533.295 143.449C532.775 143.158 532.165 143.012 531.463 143.012C530.77 143.012 530.16 143.158 529.631 143.449C529.111 143.741 528.674 144.142 528.318 144.652C527.972 145.154 527.712 145.732 527.539 146.389C527.366 147.036 527.279 147.724 527.279 148.453ZM543.918 144.051V161.688H541.375V141.207H543.699L543.918 144.051ZM553.885 148.48V148.768C553.885 149.843 553.757 150.841 553.502 151.762C553.247 152.673 552.873 153.466 552.381 154.141C551.898 154.815 551.301 155.339 550.59 155.713C549.879 156.087 549.063 156.273 548.143 156.273C547.204 156.273 546.374 156.118 545.654 155.809C544.934 155.499 544.324 155.048 543.822 154.455C543.321 153.863 542.92 153.152 542.619 152.322C542.327 151.493 542.127 150.559 542.018 149.52V147.988C542.127 146.895 542.332 145.915 542.633 145.049C542.934 144.183 543.33 143.445 543.822 142.834C544.324 142.214 544.93 141.745 545.641 141.426C546.352 141.098 547.172 140.934 548.102 140.934C549.031 140.934 549.856 141.116 550.576 141.48C551.296 141.836 551.902 142.346 552.395 143.012C552.887 143.677 553.256 144.475 553.502 145.404C553.757 146.325 553.885 147.35 553.885 148.48ZM551.342 148.768V148.48C551.342 147.742 551.264 147.049 551.109 146.402C550.954 145.746 550.713 145.172 550.385 144.68C550.066 144.178 549.656 143.786 549.154 143.504C548.653 143.212 548.056 143.066 547.363 143.066C546.725 143.066 546.169 143.176 545.695 143.395C545.23 143.613 544.834 143.91 544.506 144.283C544.178 144.648 543.909 145.067 543.699 145.541C543.499 146.006 543.348 146.489 543.248 146.99V150.531C543.43 151.169 543.686 151.771 544.014 152.336C544.342 152.892 544.779 153.343 545.326 153.689C545.873 154.027 546.561 154.195 547.391 154.195C548.074 154.195 548.662 154.054 549.154 153.771C549.656 153.48 550.066 153.083 550.385 152.582C550.713 152.081 550.954 151.507 551.109 150.859C551.264 150.203 551.342 149.506 551.342 148.768ZM563.25 156.273C562.22 156.273 561.286 156.1 560.447 155.754C559.618 155.398 558.902 154.902 558.301 154.264C557.708 153.626 557.253 152.869 556.934 151.994C556.615 151.119 556.455 150.162 556.455 149.123V148.549C556.455 147.346 556.633 146.275 556.988 145.336C557.344 144.388 557.827 143.586 558.438 142.93C559.048 142.273 559.741 141.777 560.516 141.439C561.29 141.102 562.092 140.934 562.922 140.934C563.979 140.934 564.891 141.116 565.656 141.48C566.431 141.845 567.064 142.355 567.557 143.012C568.049 143.659 568.413 144.424 568.65 145.309C568.887 146.184 569.006 147.141 569.006 148.18V149.314H557.959V147.25H566.477V147.059C566.44 146.402 566.303 145.764 566.066 145.145C565.839 144.525 565.474 144.014 564.973 143.613C564.471 143.212 563.788 143.012 562.922 143.012C562.348 143.012 561.819 143.135 561.336 143.381C560.853 143.618 560.438 143.973 560.092 144.447C559.745 144.921 559.477 145.5 559.285 146.184C559.094 146.867 558.998 147.656 558.998 148.549V149.123C558.998 149.825 559.094 150.486 559.285 151.105C559.486 151.716 559.773 152.254 560.146 152.719C560.529 153.184 560.99 153.548 561.527 153.812C562.074 154.077 562.694 154.209 563.387 154.209C564.28 154.209 565.036 154.027 565.656 153.662C566.276 153.298 566.818 152.81 567.283 152.199L568.814 153.416C568.495 153.899 568.09 154.359 567.598 154.797C567.105 155.234 566.499 155.59 565.779 155.863C565.068 156.137 564.225 156.273 563.25 156.273ZM574.488 143.531V156H571.959V141.207H574.42L574.488 143.531ZM579.109 141.125L579.096 143.477C578.886 143.431 578.686 143.404 578.494 143.395C578.312 143.376 578.102 143.367 577.865 143.367C577.282 143.367 576.767 143.458 576.32 143.641C575.874 143.823 575.495 144.078 575.186 144.406C574.876 144.734 574.63 145.126 574.447 145.582C574.274 146.029 574.16 146.521 574.105 147.059L573.395 147.469C573.395 146.576 573.481 145.737 573.654 144.953C573.837 144.169 574.115 143.477 574.488 142.875C574.862 142.264 575.336 141.79 575.91 141.453C576.493 141.107 577.186 140.934 577.988 140.934C578.171 140.934 578.38 140.956 578.617 141.002C578.854 141.038 579.018 141.079 579.109 141.125ZM588.324 141.207V143.148H580.326V141.207H588.324ZM583.033 137.611H585.562V152.336C585.562 152.837 585.64 153.215 585.795 153.471C585.95 153.726 586.15 153.895 586.396 153.977C586.643 154.059 586.907 154.1 587.189 154.1C587.399 154.1 587.618 154.081 587.846 154.045C588.083 153.999 588.26 153.963 588.379 153.936L588.393 156C588.192 156.064 587.928 156.123 587.6 156.178C587.281 156.242 586.893 156.273 586.438 156.273C585.818 156.273 585.248 156.15 584.729 155.904C584.209 155.658 583.794 155.248 583.484 154.674C583.184 154.09 583.033 153.307 583.033 152.322V137.611ZM594.039 141.207V156H591.496V141.207H594.039ZM591.305 137.283C591.305 136.873 591.428 136.527 591.674 136.244C591.929 135.962 592.303 135.82 592.795 135.82C593.278 135.82 593.647 135.962 593.902 136.244C594.167 136.527 594.299 136.873 594.299 137.283C594.299 137.675 594.167 138.012 593.902 138.295C593.647 138.568 593.278 138.705 592.795 138.705C592.303 138.705 591.929 138.568 591.674 138.295C591.428 138.012 591.305 137.675 591.305 137.283ZM604.238 156.273C603.208 156.273 602.274 156.1 601.436 155.754C600.606 155.398 599.891 154.902 599.289 154.264C598.697 153.626 598.241 152.869 597.922 151.994C597.603 151.119 597.443 150.162 597.443 149.123V148.549C597.443 147.346 597.621 146.275 597.977 145.336C598.332 144.388 598.815 143.586 599.426 142.93C600.036 142.273 600.729 141.777 601.504 141.439C602.279 141.102 603.081 140.934 603.91 140.934C604.967 140.934 605.879 141.116 606.645 141.48C607.419 141.845 608.053 142.355 608.545 143.012C609.037 143.659 609.402 144.424 609.639 145.309C609.876 146.184 609.994 147.141 609.994 148.18V149.314H598.947V147.25H607.465V147.059C607.428 146.402 607.292 145.764 607.055 145.145C606.827 144.525 606.462 144.014 605.961 143.613C605.46 143.212 604.776 143.012 603.91 143.012C603.336 143.012 602.807 143.135 602.324 143.381C601.841 143.618 601.426 143.973 601.08 144.447C600.734 144.921 600.465 145.5 600.273 146.184C600.082 146.867 599.986 147.656 599.986 148.549V149.123C599.986 149.825 600.082 150.486 600.273 151.105C600.474 151.716 600.761 152.254 601.135 152.719C601.518 153.184 601.978 153.548 602.516 153.812C603.062 154.077 603.682 154.209 604.375 154.209C605.268 154.209 606.025 154.027 606.645 153.662C607.264 153.298 607.807 152.81 608.271 152.199L609.803 153.416C609.484 153.899 609.078 154.359 608.586 154.797C608.094 155.234 607.488 155.59 606.768 155.863C606.057 156.137 605.214 156.273 604.238 156.273ZM621.561 152.076C621.561 151.712 621.479 151.374 621.314 151.064C621.16 150.745 620.836 150.458 620.344 150.203C619.861 149.939 619.132 149.711 618.156 149.52C617.336 149.346 616.593 149.141 615.928 148.904C615.271 148.667 614.711 148.38 614.246 148.043C613.79 147.706 613.439 147.309 613.193 146.854C612.947 146.398 612.824 145.865 612.824 145.254C612.824 144.671 612.952 144.119 613.207 143.6C613.471 143.08 613.84 142.62 614.314 142.219C614.798 141.818 615.376 141.503 616.051 141.275C616.725 141.048 617.477 140.934 618.307 140.934C619.492 140.934 620.503 141.143 621.342 141.562C622.18 141.982 622.823 142.542 623.27 143.244C623.716 143.937 623.939 144.707 623.939 145.555H621.41C621.41 145.145 621.287 144.748 621.041 144.365C620.804 143.973 620.453 143.65 619.988 143.395C619.533 143.139 618.972 143.012 618.307 143.012C617.605 143.012 617.035 143.121 616.598 143.34C616.169 143.549 615.855 143.818 615.654 144.146C615.463 144.475 615.367 144.821 615.367 145.186C615.367 145.459 615.413 145.705 615.504 145.924C615.604 146.133 615.777 146.329 616.023 146.512C616.27 146.685 616.616 146.849 617.062 147.004C617.509 147.159 618.079 147.314 618.771 147.469C619.984 147.742 620.982 148.07 621.766 148.453C622.549 148.836 623.133 149.305 623.516 149.861C623.898 150.417 624.09 151.092 624.09 151.885C624.09 152.532 623.953 153.124 623.68 153.662C623.415 154.2 623.028 154.665 622.518 155.057C622.016 155.439 621.415 155.74 620.713 155.959C620.02 156.169 619.241 156.273 618.375 156.273C617.072 156.273 615.969 156.041 615.066 155.576C614.164 155.111 613.48 154.51 613.016 153.771C612.551 153.033 612.318 152.254 612.318 151.434H614.861C614.898 152.126 615.098 152.678 615.463 153.088C615.827 153.489 616.274 153.776 616.803 153.949C617.331 154.113 617.855 154.195 618.375 154.195C619.068 154.195 619.646 154.104 620.111 153.922C620.585 153.74 620.945 153.489 621.191 153.17C621.438 152.851 621.561 152.486 621.561 152.076ZM638.104 153.375L641.904 141.207H643.572L643.244 143.627L639.375 156H637.748L638.104 153.375ZM635.547 141.207L638.787 153.512L639.02 156H637.311L633.018 141.207H635.547ZM647.209 153.416L650.299 141.207H652.814L648.521 156H646.826L647.209 153.416ZM643.941 141.207L647.66 153.17L648.084 156H646.471L642.492 143.6L642.164 141.207H643.941ZM658.16 141.207V156H655.617V141.207H658.16ZM655.426 137.283C655.426 136.873 655.549 136.527 655.795 136.244C656.05 135.962 656.424 135.82 656.916 135.82C657.399 135.82 657.768 135.962 658.023 136.244C658.288 136.527 658.42 136.873 658.42 137.283C658.42 137.675 658.288 138.012 658.023 138.295C657.768 138.568 657.399 138.705 656.916 138.705C656.424 138.705 656.05 138.568 655.795 138.295C655.549 138.012 655.426 137.675 655.426 137.283ZM668.414 141.207V143.148H660.416V141.207H668.414ZM663.123 137.611H665.652V152.336C665.652 152.837 665.73 153.215 665.885 153.471C666.04 153.726 666.24 153.895 666.486 153.977C666.732 154.059 666.997 154.1 667.279 154.1C667.489 154.1 667.708 154.081 667.936 154.045C668.173 153.999 668.35 153.963 668.469 153.936L668.482 156C668.282 156.064 668.018 156.123 667.689 156.178C667.37 156.242 666.983 156.273 666.527 156.273C665.908 156.273 665.338 156.15 664.818 155.904C664.299 155.658 663.884 155.248 663.574 154.674C663.273 154.09 663.123 153.307 663.123 152.322V137.611ZM673.91 135V156H671.381V135H673.91ZM673.309 148.043L672.256 148.002C672.265 146.99 672.415 146.056 672.707 145.199C672.999 144.333 673.409 143.581 673.938 142.943C674.466 142.305 675.095 141.813 675.824 141.467C676.562 141.111 677.378 140.934 678.271 140.934C679.001 140.934 679.657 141.034 680.24 141.234C680.824 141.426 681.32 141.736 681.73 142.164C682.15 142.592 682.469 143.148 682.688 143.832C682.906 144.507 683.016 145.331 683.016 146.307V156H680.473V146.279C680.473 145.505 680.359 144.885 680.131 144.42C679.903 143.946 679.57 143.604 679.133 143.395C678.695 143.176 678.158 143.066 677.52 143.066C676.891 143.066 676.316 143.199 675.797 143.463C675.286 143.727 674.844 144.092 674.471 144.557C674.106 145.021 673.819 145.555 673.609 146.156C673.409 146.749 673.309 147.378 673.309 148.043ZM702.361 152.076C702.361 151.712 702.279 151.374 702.115 151.064C701.96 150.745 701.637 150.458 701.145 150.203C700.661 149.939 699.932 149.711 698.957 149.52C698.137 149.346 697.394 149.141 696.729 148.904C696.072 148.667 695.512 148.38 695.047 148.043C694.591 147.706 694.24 147.309 693.994 146.854C693.748 146.398 693.625 145.865 693.625 145.254C693.625 144.671 693.753 144.119 694.008 143.6C694.272 143.08 694.641 142.62 695.115 142.219C695.598 141.818 696.177 141.503 696.852 141.275C697.526 141.048 698.278 140.934 699.107 140.934C700.292 140.934 701.304 141.143 702.143 141.562C702.981 141.982 703.624 142.542 704.07 143.244C704.517 143.937 704.74 144.707 704.74 145.555H702.211C702.211 145.145 702.088 144.748 701.842 144.365C701.605 143.973 701.254 143.65 700.789 143.395C700.333 143.139 699.773 143.012 699.107 143.012C698.406 143.012 697.836 143.121 697.398 143.34C696.97 143.549 696.656 143.818 696.455 144.146C696.264 144.475 696.168 144.821 696.168 145.186C696.168 145.459 696.214 145.705 696.305 145.924C696.405 146.133 696.578 146.329 696.824 146.512C697.07 146.685 697.417 146.849 697.863 147.004C698.31 147.159 698.88 147.314 699.572 147.469C700.785 147.742 701.783 148.07 702.566 148.453C703.35 148.836 703.934 149.305 704.316 149.861C704.699 150.417 704.891 151.092 704.891 151.885C704.891 152.532 704.754 153.124 704.48 153.662C704.216 154.2 703.829 154.665 703.318 155.057C702.817 155.439 702.215 155.74 701.514 155.959C700.821 156.169 700.042 156.273 699.176 156.273C697.872 156.273 696.77 156.041 695.867 155.576C694.965 155.111 694.281 154.51 693.816 153.771C693.352 153.033 693.119 152.254 693.119 151.434H695.662C695.699 152.126 695.899 152.678 696.264 153.088C696.628 153.489 697.075 153.776 697.604 153.949C698.132 154.113 698.656 154.195 699.176 154.195C699.868 154.195 700.447 154.104 700.912 153.922C701.386 153.74 701.746 153.489 701.992 153.17C702.238 152.851 702.361 152.486 702.361 152.076ZM714.406 141.207V143.148H706.408V141.207H714.406ZM709.115 137.611H711.645V152.336C711.645 152.837 711.722 153.215 711.877 153.471C712.032 153.726 712.232 153.895 712.479 153.977C712.725 154.059 712.989 154.1 713.271 154.1C713.481 154.1 713.7 154.081 713.928 154.045C714.165 153.999 714.342 153.963 714.461 153.936L714.475 156C714.274 156.064 714.01 156.123 713.682 156.178C713.363 156.242 712.975 156.273 712.52 156.273C711.9 156.273 711.33 156.15 710.811 155.904C710.291 155.658 709.876 155.248 709.566 154.674C709.266 154.09 709.115 153.307 709.115 152.322V137.611ZM726.096 153.471V145.855C726.096 145.272 725.977 144.766 725.74 144.338C725.512 143.9 725.166 143.563 724.701 143.326C724.236 143.089 723.662 142.971 722.979 142.971C722.34 142.971 721.78 143.08 721.297 143.299C720.823 143.518 720.449 143.805 720.176 144.16C719.911 144.516 719.779 144.898 719.779 145.309H717.25C717.25 144.78 717.387 144.256 717.66 143.736C717.934 143.217 718.326 142.747 718.836 142.328C719.355 141.9 719.975 141.562 720.695 141.316C721.424 141.061 722.236 140.934 723.129 140.934C724.204 140.934 725.152 141.116 725.973 141.48C726.802 141.845 727.449 142.396 727.914 143.135C728.388 143.864 728.625 144.78 728.625 145.883V152.773C728.625 153.266 728.666 153.79 728.748 154.346C728.839 154.902 728.971 155.38 729.145 155.781V156H726.506C726.378 155.708 726.278 155.321 726.205 154.838C726.132 154.346 726.096 153.89 726.096 153.471ZM726.533 147.031L726.561 148.809H724.004C723.284 148.809 722.641 148.868 722.076 148.986C721.511 149.096 721.037 149.264 720.654 149.492C720.271 149.72 719.98 150.007 719.779 150.354C719.579 150.691 719.479 151.087 719.479 151.543C719.479 152.008 719.583 152.432 719.793 152.814C720.003 153.197 720.317 153.503 720.736 153.73C721.165 153.949 721.689 154.059 722.309 154.059C723.083 154.059 723.767 153.895 724.359 153.566C724.952 153.238 725.421 152.837 725.768 152.363C726.123 151.889 726.314 151.429 726.342 150.982L727.422 152.199C727.358 152.582 727.185 153.006 726.902 153.471C726.62 153.936 726.242 154.382 725.768 154.811C725.303 155.23 724.747 155.581 724.1 155.863C723.462 156.137 722.742 156.273 721.939 156.273C720.937 156.273 720.057 156.077 719.301 155.686C718.553 155.294 717.97 154.77 717.551 154.113C717.141 153.448 716.936 152.705 716.936 151.885C716.936 151.092 717.09 150.395 717.4 149.793C717.71 149.182 718.157 148.676 718.74 148.275C719.324 147.865 720.025 147.555 720.846 147.346C721.666 147.136 722.582 147.031 723.594 147.031H726.533ZM735.133 144.365V156H732.604V141.207H734.996L735.133 144.365ZM734.531 148.043L733.479 148.002C733.488 146.99 733.638 146.056 733.93 145.199C734.221 144.333 734.632 143.581 735.16 142.943C735.689 142.305 736.318 141.813 737.047 141.467C737.785 141.111 738.601 140.934 739.494 140.934C740.223 140.934 740.88 141.034 741.463 141.234C742.046 141.426 742.543 141.736 742.953 142.164C743.372 142.592 743.691 143.148 743.91 143.832C744.129 144.507 744.238 145.331 744.238 146.307V156H741.695V146.279C741.695 145.505 741.581 144.885 741.354 144.42C741.126 143.946 740.793 143.604 740.355 143.395C739.918 143.176 739.38 143.066 738.742 143.066C738.113 143.066 737.539 143.199 737.02 143.463C736.509 143.727 736.067 144.092 735.693 144.557C735.329 145.021 735.042 145.555 734.832 146.156C734.632 146.749 734.531 147.378 734.531 148.043ZM757.404 153.129V135H759.947V156H757.623L757.404 153.129ZM747.451 148.768V148.48C747.451 147.35 747.588 146.325 747.861 145.404C748.144 144.475 748.54 143.677 749.051 143.012C749.57 142.346 750.186 141.836 750.896 141.48C751.617 141.116 752.419 140.934 753.303 140.934C754.232 140.934 755.044 141.098 755.736 141.426C756.438 141.745 757.031 142.214 757.514 142.834C758.006 143.445 758.393 144.183 758.676 145.049C758.958 145.915 759.154 146.895 759.264 147.988V149.246C759.163 150.331 758.967 151.306 758.676 152.172C758.393 153.038 758.006 153.776 757.514 154.387C757.031 154.997 756.438 155.467 755.736 155.795C755.035 156.114 754.214 156.273 753.275 156.273C752.41 156.273 751.617 156.087 750.896 155.713C750.186 155.339 749.57 154.815 749.051 154.141C748.54 153.466 748.144 152.673 747.861 151.762C747.588 150.841 747.451 149.843 747.451 148.768ZM749.994 148.48V148.768C749.994 149.506 750.067 150.199 750.213 150.846C750.368 151.493 750.605 152.062 750.924 152.555C751.243 153.047 751.648 153.434 752.141 153.717C752.633 153.99 753.221 154.127 753.904 154.127C754.743 154.127 755.431 153.949 755.969 153.594C756.516 153.238 756.953 152.769 757.281 152.186C757.609 151.602 757.865 150.969 758.047 150.285V146.99C757.938 146.489 757.778 146.006 757.568 145.541C757.368 145.067 757.104 144.648 756.775 144.283C756.456 143.91 756.06 143.613 755.586 143.395C755.121 143.176 754.57 143.066 753.932 143.066C753.239 143.066 752.642 143.212 752.141 143.504C751.648 143.786 751.243 144.178 750.924 144.68C750.605 145.172 750.368 145.746 750.213 146.402C750.067 147.049 749.994 147.742 749.994 148.48ZM772.607 153.471V145.855C772.607 145.272 772.489 144.766 772.252 144.338C772.024 143.9 771.678 143.563 771.213 143.326C770.748 143.089 770.174 142.971 769.49 142.971C768.852 142.971 768.292 143.08 767.809 143.299C767.335 143.518 766.961 143.805 766.688 144.16C766.423 144.516 766.291 144.898 766.291 145.309H763.762C763.762 144.78 763.898 144.256 764.172 143.736C764.445 143.217 764.837 142.747 765.348 142.328C765.867 141.9 766.487 141.562 767.207 141.316C767.936 141.061 768.747 140.934 769.641 140.934C770.716 140.934 771.664 141.116 772.484 141.48C773.314 141.845 773.961 142.396 774.426 143.135C774.9 143.864 775.137 144.78 775.137 145.883V152.773C775.137 153.266 775.178 153.79 775.26 154.346C775.351 154.902 775.483 155.38 775.656 155.781V156H773.018C772.89 155.708 772.79 155.321 772.717 154.838C772.644 154.346 772.607 153.89 772.607 153.471ZM773.045 147.031L773.072 148.809H770.516C769.796 148.809 769.153 148.868 768.588 148.986C768.023 149.096 767.549 149.264 767.166 149.492C766.783 149.72 766.492 150.007 766.291 150.354C766.09 150.691 765.99 151.087 765.99 151.543C765.99 152.008 766.095 152.432 766.305 152.814C766.514 153.197 766.829 153.503 767.248 153.73C767.676 153.949 768.201 154.059 768.82 154.059C769.595 154.059 770.279 153.895 770.871 153.566C771.464 153.238 771.933 152.837 772.279 152.363C772.635 151.889 772.826 151.429 772.854 150.982L773.934 152.199C773.87 152.582 773.697 153.006 773.414 153.471C773.132 153.936 772.753 154.382 772.279 154.811C771.814 155.23 771.258 155.581 770.611 155.863C769.973 156.137 769.253 156.273 768.451 156.273C767.449 156.273 766.569 156.077 765.812 155.686C765.065 155.294 764.482 154.77 764.062 154.113C763.652 153.448 763.447 152.705 763.447 151.885C763.447 151.092 763.602 150.395 763.912 149.793C764.222 149.182 764.669 148.676 765.252 148.275C765.835 147.865 766.537 147.555 767.357 147.346C768.178 147.136 769.094 147.031 770.105 147.031H773.045ZM781.645 143.531V156H779.115V141.207H781.576L781.645 143.531ZM786.266 141.125L786.252 143.477C786.042 143.431 785.842 143.404 785.65 143.395C785.468 143.376 785.258 143.367 785.021 143.367C784.438 143.367 783.923 143.458 783.477 143.641C783.03 143.823 782.652 144.078 782.342 144.406C782.032 144.734 781.786 145.126 781.604 145.582C781.43 146.029 781.316 146.521 781.262 147.059L780.551 147.469C780.551 146.576 780.637 145.737 780.811 144.953C780.993 144.169 781.271 143.477 781.645 142.875C782.018 142.264 782.492 141.79 783.066 141.453C783.65 141.107 784.342 140.934 785.145 140.934C785.327 140.934 785.536 140.956 785.773 141.002C786.01 141.038 786.174 141.079 786.266 141.125ZM797.654 153.129V135H800.197V156H797.873L797.654 153.129ZM787.701 148.768V148.48C787.701 147.35 787.838 146.325 788.111 145.404C788.394 144.475 788.79 143.677 789.301 143.012C789.82 142.346 790.436 141.836 791.146 141.48C791.867 141.116 792.669 140.934 793.553 140.934C794.482 140.934 795.294 141.098 795.986 141.426C796.688 141.745 797.281 142.214 797.764 142.834C798.256 143.445 798.643 144.183 798.926 145.049C799.208 145.915 799.404 146.895 799.514 147.988V149.246C799.413 150.331 799.217 151.306 798.926 152.172C798.643 153.038 798.256 153.776 797.764 154.387C797.281 154.997 796.688 155.467 795.986 155.795C795.285 156.114 794.464 156.273 793.525 156.273C792.66 156.273 791.867 156.087 791.146 155.713C790.436 155.339 789.82 154.815 789.301 154.141C788.79 153.466 788.394 152.673 788.111 151.762C787.838 150.841 787.701 149.843 787.701 148.768ZM790.244 148.48V148.768C790.244 149.506 790.317 150.199 790.463 150.846C790.618 151.493 790.855 152.062 791.174 152.555C791.493 153.047 791.898 153.434 792.391 153.717C792.883 153.99 793.471 154.127 794.154 154.127C794.993 154.127 795.681 153.949 796.219 153.594C796.766 153.238 797.203 152.769 797.531 152.186C797.859 151.602 798.115 150.969 798.297 150.285V146.99C798.188 146.489 798.028 146.006 797.818 145.541C797.618 145.067 797.354 144.648 797.025 144.283C796.706 143.91 796.31 143.613 795.836 143.395C795.371 143.176 794.82 143.066 794.182 143.066C793.489 143.066 792.892 143.212 792.391 143.504C791.898 143.786 791.493 144.178 791.174 144.68C790.855 145.172 790.618 145.746 790.463 146.402C790.317 147.049 790.244 147.742 790.244 148.48ZM813.609 144.051V161.688H811.066V141.207H813.391L813.609 144.051ZM823.576 148.48V148.768C823.576 149.843 823.449 150.841 823.193 151.762C822.938 152.673 822.564 153.466 822.072 154.141C821.589 154.815 820.992 155.339 820.281 155.713C819.57 156.087 818.755 156.273 817.834 156.273C816.895 156.273 816.066 156.118 815.346 155.809C814.626 155.499 814.015 155.048 813.514 154.455C813.012 153.863 812.611 153.152 812.311 152.322C812.019 151.493 811.818 150.559 811.709 149.52V147.988C811.818 146.895 812.023 145.915 812.324 145.049C812.625 144.183 813.021 143.445 813.514 142.834C814.015 142.214 814.621 141.745 815.332 141.426C816.043 141.098 816.863 140.934 817.793 140.934C818.723 140.934 819.548 141.116 820.268 141.48C820.988 141.836 821.594 142.346 822.086 143.012C822.578 143.677 822.947 144.475 823.193 145.404C823.449 146.325 823.576 147.35 823.576 148.48ZM821.033 148.768V148.48C821.033 147.742 820.956 147.049 820.801 146.402C820.646 145.746 820.404 145.172 820.076 144.68C819.757 144.178 819.347 143.786 818.846 143.504C818.344 143.212 817.747 143.066 817.055 143.066C816.417 143.066 815.861 143.176 815.387 143.395C814.922 143.613 814.525 143.91 814.197 144.283C813.869 144.648 813.6 145.067 813.391 145.541C813.19 146.006 813.04 146.489 812.939 146.99V150.531C813.122 151.169 813.377 151.771 813.705 152.336C814.033 152.892 814.471 153.343 815.018 153.689C815.564 154.027 816.253 154.195 817.082 154.195C817.766 154.195 818.354 154.054 818.846 153.771C819.347 153.48 819.757 153.083 820.076 152.582C820.404 152.081 820.646 151.507 820.801 150.859C820.956 150.203 821.033 149.506 821.033 148.768ZM835.525 153.471V145.855C835.525 145.272 835.407 144.766 835.17 144.338C834.942 143.9 834.596 143.563 834.131 143.326C833.666 143.089 833.092 142.971 832.408 142.971C831.77 142.971 831.21 143.08 830.727 143.299C830.253 143.518 829.879 143.805 829.605 144.16C829.341 144.516 829.209 144.898 829.209 145.309H826.68C826.68 144.78 826.816 144.256 827.09 143.736C827.363 143.217 827.755 142.747 828.266 142.328C828.785 141.9 829.405 141.562 830.125 141.316C830.854 141.061 831.665 140.934 832.559 140.934C833.634 140.934 834.582 141.116 835.402 141.48C836.232 141.845 836.879 142.396 837.344 143.135C837.818 143.864 838.055 144.78 838.055 145.883V152.773C838.055 153.266 838.096 153.79 838.178 154.346C838.269 154.902 838.401 155.38 838.574 155.781V156H835.936C835.808 155.708 835.708 155.321 835.635 154.838C835.562 154.346 835.525 153.89 835.525 153.471ZM835.963 147.031L835.99 148.809H833.434C832.714 148.809 832.071 148.868 831.506 148.986C830.941 149.096 830.467 149.264 830.084 149.492C829.701 149.72 829.41 150.007 829.209 150.354C829.008 150.691 828.908 151.087 828.908 151.543C828.908 152.008 829.013 152.432 829.223 152.814C829.432 153.197 829.747 153.503 830.166 153.73C830.594 153.949 831.118 154.059 831.738 154.059C832.513 154.059 833.197 153.895 833.789 153.566C834.382 153.238 834.851 152.837 835.197 152.363C835.553 151.889 835.744 151.429 835.771 150.982L836.852 152.199C836.788 152.582 836.615 153.006 836.332 153.471C836.049 153.936 835.671 154.382 835.197 154.811C834.732 155.23 834.176 155.581 833.529 155.863C832.891 156.137 832.171 156.273 831.369 156.273C830.367 156.273 829.487 156.077 828.73 155.686C827.983 155.294 827.4 154.77 826.98 154.113C826.57 153.448 826.365 152.705 826.365 151.885C826.365 151.092 826.52 150.395 826.83 149.793C827.14 149.182 827.587 148.676 828.17 148.275C828.753 147.865 829.455 147.555 830.275 147.346C831.096 147.136 832.012 147.031 833.023 147.031H835.963ZM848.227 141.207V143.148H840.229V141.207H848.227ZM842.936 137.611H845.465V152.336C845.465 152.837 845.542 153.215 845.697 153.471C845.852 153.726 846.053 153.895 846.299 153.977C846.545 154.059 846.809 154.1 847.092 154.1C847.301 154.1 847.52 154.081 847.748 154.045C847.985 153.999 848.163 153.963 848.281 153.936L848.295 156C848.094 156.064 847.83 156.123 847.502 156.178C847.183 156.242 846.796 156.273 846.34 156.273C845.72 156.273 845.15 156.15 844.631 155.904C844.111 155.658 843.697 155.248 843.387 154.674C843.086 154.09 842.936 153.307 842.936 152.322V137.611ZM853.723 135V156H851.193V135H853.723ZM853.121 148.043L852.068 148.002C852.077 146.99 852.228 146.056 852.52 145.199C852.811 144.333 853.221 143.581 853.75 142.943C854.279 142.305 854.908 141.813 855.637 141.467C856.375 141.111 857.191 140.934 858.084 140.934C858.813 140.934 859.469 141.034 860.053 141.234C860.636 141.426 861.133 141.736 861.543 142.164C861.962 142.592 862.281 143.148 862.5 143.832C862.719 144.507 862.828 145.331 862.828 146.307V156H860.285V146.279C860.285 145.505 860.171 144.885 859.943 144.42C859.715 143.946 859.383 143.604 858.945 143.395C858.508 143.176 857.97 143.066 857.332 143.066C856.703 143.066 856.129 143.199 855.609 143.463C855.099 143.727 854.657 144.092 854.283 144.557C853.919 145.021 853.632 145.555 853.422 146.156C853.221 146.749 853.121 147.378 853.121 148.043Z" fill="#171717"/>
<path d="M288.174 69.9609V71.6748C288.174 74.5928 287.77 77.2119 286.961 79.5322C286.17 81.8525 285.036 83.8301 283.56 85.4648C282.101 87.0996 280.36 88.3564 278.339 89.2354C276.335 90.0967 274.111 90.5273 271.668 90.5273C269.225 90.5273 266.992 90.0967 264.971 89.2354C262.949 88.3564 261.191 87.0996 259.697 85.4648C258.221 83.8301 257.078 81.8525 256.27 79.5322C255.461 77.2119 255.057 74.5928 255.057 71.6748V69.9609C255.057 67.043 255.461 64.4238 256.27 62.1035C257.078 59.7656 258.212 57.7793 259.671 56.1445C261.147 54.5098 262.896 53.2617 264.918 52.4004C266.939 51.5215 269.172 51.082 271.615 51.082C274.059 51.082 276.291 51.5215 278.312 52.4004C280.334 53.2617 282.074 54.5098 283.533 56.1445C285.01 57.7793 286.152 59.7656 286.961 62.1035C287.77 64.4238 288.174 67.043 288.174 69.9609ZM279.499 71.6748V69.9082C279.499 67.957 279.323 66.2344 278.972 64.7402C278.62 63.2285 278.11 61.9629 277.442 60.9434C276.774 59.9238 275.948 59.1592 274.964 58.6494C273.979 58.1221 272.863 57.8584 271.615 57.8584C270.314 57.8584 269.181 58.1221 268.214 58.6494C267.247 59.1592 266.43 59.9238 265.762 60.9434C265.111 61.9629 264.61 63.2285 264.259 64.7402C263.925 66.2344 263.758 67.957 263.758 69.9082V71.6748C263.758 73.6084 263.925 75.3311 264.259 76.8428C264.61 78.3369 265.12 79.6025 265.788 80.6396C266.456 81.6768 267.273 82.459 268.24 82.9863C269.225 83.5137 270.367 83.7773 271.668 83.7773C272.916 83.7773 274.023 83.5137 274.99 82.9863C275.975 82.459 276.801 81.6768 277.469 80.6396C278.137 79.6025 278.638 78.3369 278.972 76.8428C279.323 75.3311 279.499 73.6084 279.499 71.6748ZM293.052 49.5H301.278V83.2236L300.435 90H293.052V49.5ZM319.076 75.4189V75.9727C319.076 78.1348 318.848 80.1035 318.391 81.8789C317.951 83.6543 317.274 85.1924 316.36 86.4932C315.446 87.7764 314.295 88.7695 312.906 89.4727C311.518 90.1758 309.883 90.5273 308.002 90.5273C306.262 90.5273 304.768 90.167 303.52 89.4463C302.271 88.708 301.226 87.6885 300.382 86.3877C299.538 85.0869 298.853 83.5664 298.325 81.8262C297.815 80.0859 297.42 78.2139 297.139 76.21V75.2607C297.42 73.2568 297.815 71.3848 298.325 69.6445C298.853 67.9043 299.538 66.3838 300.382 65.083C301.226 63.7822 302.263 62.7715 303.493 62.0508C304.741 61.3125 306.227 60.9434 307.949 60.9434C309.848 60.9434 311.491 61.3037 312.88 62.0244C314.286 62.7451 315.446 63.7559 316.36 65.0566C317.274 66.3398 317.951 67.8691 318.391 69.6445C318.848 71.4023 319.076 73.3271 319.076 75.4189ZM310.85 75.9727V75.4189C310.85 74.3291 310.771 73.3008 310.612 72.334C310.472 71.3672 310.217 70.5146 309.848 69.7764C309.496 69.0205 308.995 68.4316 308.345 68.0098C307.712 67.5703 306.895 67.3506 305.893 67.3506C304.908 67.3506 304.073 67.5176 303.388 67.8516C302.702 68.1855 302.148 68.6602 301.727 69.2754C301.305 69.873 300.997 70.6025 300.804 71.4639C300.61 72.3252 300.505 73.2832 300.487 74.3379V77.1328C300.505 78.5391 300.689 79.7695 301.041 80.8242C301.393 81.8789 301.964 82.6963 302.755 83.2764C303.546 83.8389 304.609 84.1201 305.945 84.1201C306.965 84.1201 307.791 83.9268 308.424 83.54C309.074 83.1357 309.566 82.5732 309.9 81.8525C310.252 81.1318 310.498 80.2705 310.639 79.2686C310.779 78.2666 310.85 77.168 310.85 75.9727ZM323.98 61.4707H332.26V91.3184C332.26 93.5156 331.847 95.3701 331.021 96.8818C330.194 98.4111 328.999 99.5625 327.435 100.336C325.888 101.127 324.033 101.522 321.871 101.522C321.168 101.522 320.5 101.487 319.867 101.417C319.234 101.364 318.558 101.25 317.837 101.074V94.7988C318.276 94.8691 318.698 94.9219 319.103 94.957C319.489 95.0098 319.902 95.0361 320.342 95.0361C321.133 95.0361 321.792 94.9043 322.319 94.6406C322.864 94.377 323.277 93.9639 323.559 93.4014C323.84 92.8564 323.98 92.1621 323.98 91.3184V61.4707ZM323.348 54.0879C323.348 52.8926 323.77 51.917 324.613 51.1611C325.457 50.3877 326.573 50.001 327.962 50.001C329.333 50.001 330.44 50.3877 331.284 51.1611C332.128 51.917 332.55 52.8926 332.55 54.0879C332.55 55.2656 332.128 56.2412 331.284 57.0146C330.44 57.7705 329.333 58.1484 327.962 58.1484C326.573 58.1484 325.457 57.7705 324.613 57.0146C323.77 56.2412 323.348 55.2656 323.348 54.0879ZM351.244 90.5273C348.977 90.5273 346.946 90.167 345.153 89.4463C343.36 88.7256 341.84 87.7324 340.592 86.4668C339.361 85.1836 338.421 83.707 337.771 82.0371C337.12 80.3672 336.795 78.583 336.795 76.6846V75.6826C336.795 73.5557 337.094 71.5957 337.691 69.8027C338.289 68.0098 339.159 66.4541 340.302 65.1357C341.462 63.7998 342.886 62.7715 344.573 62.0508C346.261 61.3125 348.186 60.9434 350.348 60.9434C352.369 60.9434 354.171 61.2773 355.753 61.9453C357.335 62.5957 358.671 63.5361 359.761 64.7666C360.851 65.9795 361.677 67.4473 362.239 69.1699C362.819 70.875 363.109 72.791 363.109 74.918V78.293H340.117V72.9932H355.041V72.3604C355.041 71.3584 354.856 70.4795 354.487 69.7236C354.136 68.9678 353.608 68.3877 352.905 67.9834C352.22 67.5615 351.35 67.3506 350.295 67.3506C349.293 67.3506 348.458 67.5615 347.79 67.9834C347.122 68.4053 346.586 69.0029 346.182 69.7764C345.795 70.5322 345.514 71.4199 345.338 72.4395C345.162 73.4414 345.074 74.5225 345.074 75.6826V76.6846C345.074 77.792 345.224 78.8027 345.522 79.7168C345.821 80.6309 346.261 81.4131 346.841 82.0635C347.421 82.7139 348.124 83.2236 348.95 83.5928C349.776 83.9619 350.717 84.1465 351.771 84.1465C353.072 84.1465 354.312 83.9004 355.489 83.4082C356.667 82.8984 357.687 82.1074 358.548 81.0352L362.397 85.4385C361.817 86.2822 361 87.0996 359.945 87.8906C358.908 88.6641 357.66 89.2969 356.201 89.7891C354.742 90.2812 353.09 90.5273 351.244 90.5273ZM379.035 84.1201C379.914 84.1201 380.679 83.9531 381.329 83.6191C381.979 83.2852 382.48 82.8193 382.832 82.2217C383.201 81.6064 383.386 80.8682 383.386 80.0068H391.138C391.138 82.0811 390.602 83.9092 389.529 85.4912C388.475 87.0732 387.051 88.3125 385.258 89.209C383.465 90.0879 381.443 90.5273 379.193 90.5273C376.979 90.5273 375.045 90.167 373.393 89.4463C371.74 88.708 370.36 87.6797 369.253 86.3613C368.146 85.043 367.311 83.5137 366.748 81.7734C366.203 80.0156 365.931 78.1172 365.931 76.0781V75.3926C365.931 73.3711 366.203 71.4814 366.748 69.7236C367.311 67.9658 368.146 66.4277 369.253 65.1094C370.36 63.791 371.731 62.7715 373.366 62.0508C375.019 61.3125 376.952 60.9434 379.167 60.9434C381.505 60.9434 383.57 61.3916 385.363 62.2881C387.174 63.1846 388.589 64.4766 389.608 66.1641C390.628 67.834 391.138 69.8467 391.138 72.2021H383.386C383.386 71.2881 383.219 70.4707 382.885 69.75C382.568 69.0117 382.076 68.4316 381.408 68.0098C380.758 67.5703 379.949 67.3506 378.982 67.3506C377.98 67.3506 377.154 67.5703 376.504 68.0098C375.871 68.4316 375.388 69.0205 375.054 69.7764C374.72 70.5322 374.491 71.3936 374.368 72.3604C374.245 73.3096 374.184 74.3203 374.184 75.3926V76.0781C374.184 77.168 374.245 78.2051 374.368 79.1895C374.491 80.1562 374.72 81.0088 375.054 81.7471C375.405 82.4854 375.897 83.0654 376.53 83.4873C377.163 83.9092 377.998 84.1201 379.035 84.1201ZM409.727 61.4707V67.2451H392.799V61.4707H409.727ZM396.675 54.4043H404.928V81.0615C404.928 81.8525 405.024 82.459 405.218 82.8809C405.411 83.3027 405.728 83.6016 406.167 83.7773C406.606 83.9355 407.169 84.0146 407.854 84.0146C408.347 84.0146 408.769 83.9971 409.12 83.9619C409.472 83.9268 409.797 83.8828 410.096 83.8301V89.7891C409.393 90.0176 408.646 90.1934 407.854 90.3164C407.063 90.457 406.202 90.5273 405.271 90.5273C403.495 90.5273 401.957 90.2373 400.656 89.6572C399.373 89.0771 398.389 88.1631 397.703 86.915C397.018 85.6494 396.675 84.0059 396.675 81.9844V54.4043ZM447.458 79.875C447.458 79.2246 447.361 78.6445 447.168 78.1348C446.975 77.6074 446.623 77.124 446.113 76.6846C445.604 76.2451 444.883 75.8057 443.951 75.3662C443.02 74.9092 441.798 74.4434 440.286 73.9688C438.563 73.4062 436.92 72.7734 435.355 72.0703C433.809 71.3496 432.429 70.5146 431.216 69.5654C430.003 68.6162 429.045 67.5088 428.342 66.2432C427.656 64.9775 427.313 63.501 427.313 61.8135C427.313 60.1787 427.674 58.7021 428.395 57.3838C429.115 56.0654 430.126 54.9404 431.427 54.0088C432.728 53.0596 434.257 52.3389 436.015 51.8467C437.772 51.3369 439.706 51.082 441.815 51.082C444.628 51.082 447.098 51.583 449.225 52.585C451.369 53.5693 453.039 54.958 454.234 56.751C455.43 58.5264 456.027 60.5918 456.027 62.9473H447.484C447.484 61.9102 447.265 60.9961 446.825 60.2051C446.403 59.3965 445.753 58.7637 444.874 58.3066C444.013 57.8496 442.932 57.6211 441.631 57.6211C440.365 57.6211 439.302 57.8145 438.44 58.2012C437.597 58.5703 436.955 59.0801 436.516 59.7305C436.094 60.3809 435.883 61.0928 435.883 61.8662C435.883 62.4814 436.041 63.0439 436.357 63.5537C436.691 64.0459 437.166 64.5117 437.781 64.9512C438.414 65.373 439.188 65.7773 440.102 66.1641C441.016 66.5508 442.062 66.9199 443.239 67.2715C445.296 67.9219 447.115 68.6426 448.697 69.4336C450.297 70.2246 451.642 71.1211 452.731 72.123C453.821 73.125 454.639 74.2588 455.184 75.5244C455.746 76.79 456.027 78.2227 456.027 79.8223C456.027 81.5273 455.693 83.0391 455.025 84.3574C454.375 85.6758 453.426 86.8008 452.178 87.7324C450.947 88.6465 449.471 89.3408 447.748 89.8154C446.025 90.29 444.101 90.5273 441.974 90.5273C440.04 90.5273 438.133 90.2812 436.252 89.7891C434.371 89.2793 432.666 88.5059 431.137 87.4688C429.625 86.4316 428.412 85.1133 427.498 83.5137C426.602 81.8965 426.153 79.9805 426.153 77.7656H434.749C434.749 78.9258 434.916 79.9102 435.25 80.7188C435.584 81.5098 436.059 82.1514 436.674 82.6436C437.307 83.1357 438.071 83.4873 438.968 83.6982C439.864 83.9092 440.866 84.0146 441.974 84.0146C443.257 84.0146 444.294 83.8389 445.085 83.4873C445.894 83.1182 446.491 82.6172 446.878 81.9844C447.265 81.3516 447.458 80.6484 447.458 79.875ZM475.17 61.4707V67.2451H458.242V61.4707H475.17ZM462.118 54.4043H470.371V81.0615C470.371 81.8525 470.468 82.459 470.661 82.8809C470.854 83.3027 471.171 83.6016 471.61 83.7773C472.05 83.9355 472.612 84.0146 473.298 84.0146C473.79 84.0146 474.212 83.9971 474.563 83.9619C474.915 83.9268 475.24 83.8828 475.539 83.8301V89.7891C474.836 90.0176 474.089 90.1934 473.298 90.3164C472.507 90.457 471.646 90.5273 470.714 90.5273C468.938 90.5273 467.4 90.2373 466.1 89.6572C464.816 89.0771 463.832 88.1631 463.146 86.915C462.461 85.6494 462.118 84.0059 462.118 81.9844V54.4043ZM494.233 83.1973V70.9629C494.233 70.1016 494.102 69.3633 493.838 68.748C493.574 68.1328 493.161 67.6494 492.599 67.2979C492.036 66.9463 491.307 66.7705 490.41 66.7705C489.654 66.7705 488.995 66.9023 488.433 67.166C487.888 67.4297 487.466 67.8076 487.167 68.2998C486.886 68.792 486.745 69.3984 486.745 70.1191H478.519C478.519 68.8359 478.809 67.6406 479.389 66.5332C479.969 65.4258 480.795 64.4502 481.867 63.6064C482.957 62.7627 484.258 62.1123 485.77 61.6553C487.281 61.1807 488.978 60.9434 490.858 60.9434C493.091 60.9434 495.077 61.3213 496.817 62.0771C498.575 62.8154 499.964 63.9316 500.983 65.4258C502.003 66.9023 502.513 68.7656 502.513 71.0156V82.96C502.513 84.6826 502.609 86.0361 502.803 87.0205C503.014 87.9873 503.312 88.8311 503.699 89.5518V90H495.394C495.007 89.1738 494.717 88.1543 494.523 86.9414C494.33 85.7109 494.233 84.4629 494.233 83.1973ZM495.262 72.5977L495.314 77.1328H491.228C490.313 77.1328 489.522 77.2471 488.854 77.4756C488.204 77.7041 487.677 78.0205 487.272 78.4248C486.868 78.8115 486.569 79.2686 486.376 79.7959C486.2 80.3057 486.112 80.8682 486.112 81.4834C486.112 82.0635 486.253 82.5908 486.534 83.0654C486.815 83.5225 487.202 83.8828 487.694 84.1465C488.187 84.4102 488.758 84.542 489.408 84.542C490.48 84.542 491.395 84.3311 492.15 83.9092C492.924 83.4873 493.521 82.9775 493.943 82.3799C494.365 81.7646 494.576 81.1934 494.576 80.666L496.554 84.0938C496.237 84.7969 495.851 85.5264 495.394 86.2822C494.937 87.0205 494.356 87.7148 493.653 88.3652C492.95 88.998 492.098 89.5166 491.096 89.9209C490.111 90.3252 488.925 90.5273 487.536 90.5273C485.743 90.5273 484.117 90.167 482.658 89.4463C481.199 88.708 480.03 87.6973 479.151 86.4141C478.29 85.1309 477.859 83.6543 477.859 81.9844C477.859 80.4902 478.132 79.1631 478.677 78.0029C479.222 76.8428 480.039 75.8584 481.129 75.0498C482.236 74.2412 483.625 73.6348 485.295 73.2305C486.965 72.8086 488.916 72.5977 491.148 72.5977H495.262ZM515.986 67.5615V90H507.733V61.4707H515.485L515.986 67.5615ZM514.905 74.7334L512.849 74.7861C512.849 72.6416 513.112 70.7168 513.64 69.0117C514.167 67.3066 514.914 65.8564 515.881 64.6611C516.865 63.4482 518.034 62.5254 519.388 61.8926C520.759 61.2598 522.271 60.9434 523.923 60.9434C525.259 60.9434 526.48 61.1367 527.588 61.5234C528.695 61.9102 529.645 62.5342 530.436 63.3955C531.244 64.2393 531.859 65.3643 532.281 66.7705C532.703 68.1592 532.914 69.873 532.914 71.9121V90H524.635V71.8857C524.635 70.6904 524.468 69.7676 524.134 69.1172C523.8 68.4668 523.308 68.0098 522.657 67.7461C522.024 67.4824 521.251 67.3506 520.337 67.3506C519.37 67.3506 518.544 67.5439 517.858 67.9307C517.173 68.2998 516.61 68.8184 516.171 69.4863C515.731 70.1543 515.406 70.9365 515.195 71.833C515.002 72.7295 514.905 73.6963 514.905 74.7334ZM554.904 83.6191V49.5H563.184V90H555.748L554.904 83.6191ZM537.133 76.0781V75.5244C537.133 73.3623 537.37 71.3936 537.845 69.6182C538.337 67.8252 539.049 66.2871 539.98 65.0039C540.93 63.7031 542.099 62.7012 543.487 61.998C544.876 61.2949 546.467 60.9434 548.26 60.9434C549.912 60.9434 551.354 61.3125 552.584 62.0508C553.814 62.7715 554.86 63.791 555.722 65.1094C556.601 66.4102 557.312 67.9482 557.857 69.7236C558.402 71.4814 558.815 73.3887 559.097 75.4453V76.3945C558.833 78.3633 558.42 80.2002 557.857 81.9053C557.312 83.6104 556.601 85.1133 555.722 86.4141C554.86 87.6973 553.806 88.708 552.558 89.4463C551.327 90.167 549.877 90.5273 548.207 90.5273C546.414 90.5273 544.823 90.167 543.435 89.4463C542.063 88.7256 540.912 87.7148 539.98 86.4141C539.049 85.1133 538.337 83.584 537.845 81.8262C537.37 80.0684 537.133 78.1523 537.133 76.0781ZM545.359 75.5244V76.0781C545.359 77.2031 545.438 78.249 545.597 79.2158C545.772 80.1826 546.054 81.0352 546.44 81.7734C546.827 82.5117 547.337 83.0918 547.97 83.5137C548.603 83.918 549.376 84.1201 550.29 84.1201C551.521 84.1201 552.531 83.8389 553.322 83.2764C554.113 82.6963 554.711 81.8965 555.115 80.877C555.52 79.8574 555.73 78.6709 555.748 77.3174V74.5488C555.748 73.4238 555.634 72.4131 555.405 71.5166C555.177 70.6201 554.834 69.8643 554.377 69.249C553.938 68.6338 553.384 68.168 552.716 67.8516C552.048 67.5176 551.257 67.3506 550.343 67.3506C549.446 67.3506 548.682 67.5615 548.049 67.9834C547.416 68.3877 546.897 68.959 546.493 69.6973C546.106 70.4355 545.816 71.3057 545.623 72.3076C545.447 73.292 545.359 74.3643 545.359 75.5244ZM583.776 83.1973V70.9629C583.776 70.1016 583.645 69.3633 583.381 68.748C583.117 68.1328 582.704 67.6494 582.142 67.2979C581.579 66.9463 580.85 66.7705 579.953 66.7705C579.197 66.7705 578.538 66.9023 577.976 67.166C577.431 67.4297 577.009 67.8076 576.71 68.2998C576.429 68.792 576.288 69.3984 576.288 70.1191H568.062C568.062 68.8359 568.352 67.6406 568.932 66.5332C569.512 65.4258 570.338 64.4502 571.41 63.6064C572.5 62.7627 573.801 62.1123 575.312 61.6553C576.824 61.1807 578.521 60.9434 580.401 60.9434C582.634 60.9434 584.62 61.3213 586.36 62.0771C588.118 62.8154 589.507 63.9316 590.526 65.4258C591.546 66.9023 592.056 68.7656 592.056 71.0156V82.96C592.056 84.6826 592.152 86.0361 592.346 87.0205C592.557 87.9873 592.855 88.8311 593.242 89.5518V90H584.937C584.55 89.1738 584.26 88.1543 584.066 86.9414C583.873 85.7109 583.776 84.4629 583.776 83.1973ZM584.805 72.5977L584.857 77.1328H580.771C579.856 77.1328 579.065 77.2471 578.397 77.4756C577.747 77.7041 577.22 78.0205 576.815 78.4248C576.411 78.8115 576.112 79.2686 575.919 79.7959C575.743 80.3057 575.655 80.8682 575.655 81.4834C575.655 82.0635 575.796 82.5908 576.077 83.0654C576.358 83.5225 576.745 83.8828 577.237 84.1465C577.729 84.4102 578.301 84.542 578.951 84.542C580.023 84.542 580.938 84.3311 581.693 83.9092C582.467 83.4873 583.064 82.9775 583.486 82.3799C583.908 81.7646 584.119 81.1934 584.119 80.666L586.097 84.0938C585.78 84.7969 585.394 85.5264 584.937 86.2822C584.479 87.0205 583.899 87.7148 583.196 88.3652C582.493 88.998 581.641 89.5166 580.639 89.9209C579.654 90.3252 578.468 90.5273 577.079 90.5273C575.286 90.5273 573.66 90.167 572.201 89.4463C570.742 88.708 569.573 87.6973 568.694 86.4141C567.833 85.1309 567.402 83.6543 567.402 81.9844C567.402 80.4902 567.675 79.1631 568.22 78.0029C568.765 76.8428 569.582 75.8584 570.672 75.0498C571.779 74.2412 573.168 73.6348 574.838 73.2305C576.508 72.8086 578.459 72.5977 580.691 72.5977H584.805ZM605.714 68.1152V90H597.487V61.4707H605.213L605.714 68.1152ZM614.23 61.2598L614.099 68.9326C613.747 68.8799 613.29 68.8359 612.728 68.8008C612.165 68.748 611.682 68.7217 611.277 68.7217C610.223 68.7217 609.309 68.8535 608.535 69.1172C607.779 69.3633 607.146 69.7324 606.637 70.2246C606.145 70.7168 605.775 71.332 605.529 72.0703C605.283 72.791 605.16 73.626 605.16 74.5752L603.604 73.8105C603.604 71.9297 603.789 70.207 604.158 68.6426C604.527 67.0781 605.063 65.7246 605.767 64.582C606.47 63.4219 607.331 62.5254 608.351 61.8926C609.37 61.2598 610.53 60.9434 611.831 60.9434C612.253 60.9434 612.684 60.9697 613.123 61.0225C613.562 61.0752 613.932 61.1543 614.23 61.2598ZM633.689 83.6191V49.5H641.969V90H634.533L633.689 83.6191ZM615.918 76.0781V75.5244C615.918 73.3623 616.155 71.3936 616.63 69.6182C617.122 67.8252 617.834 66.2871 618.766 65.0039C619.715 63.7031 620.884 62.7012 622.272 61.998C623.661 61.2949 625.252 60.9434 627.045 60.9434C628.697 60.9434 630.139 61.3125 631.369 62.0508C632.6 62.7715 633.646 63.791 634.507 65.1094C635.386 66.4102 636.098 67.9482 636.643 69.7236C637.188 71.4814 637.601 73.3887 637.882 75.4453V76.3945C637.618 78.3633 637.205 80.2002 636.643 81.9053C636.098 83.6104 635.386 85.1133 634.507 86.4141C633.646 87.6973 632.591 88.708 631.343 89.4463C630.112 90.167 628.662 90.5273 626.992 90.5273C625.199 90.5273 623.608 90.167 622.22 89.4463C620.849 88.7256 619.697 87.7148 618.766 86.4141C617.834 85.1133 617.122 83.584 616.63 81.8262C616.155 80.0684 615.918 78.1523 615.918 76.0781ZM624.145 75.5244V76.0781C624.145 77.2031 624.224 78.249 624.382 79.2158C624.558 80.1826 624.839 81.0352 625.226 81.7734C625.612 82.5117 626.122 83.0918 626.755 83.5137C627.388 83.918 628.161 84.1201 629.075 84.1201C630.306 84.1201 631.316 83.8389 632.107 83.2764C632.898 82.6963 633.496 81.8965 633.9 80.877C634.305 79.8574 634.516 78.6709 634.533 77.3174V74.5488C634.533 73.4238 634.419 72.4131 634.19 71.5166C633.962 70.6201 633.619 69.8643 633.162 69.249C632.723 68.6338 632.169 68.168 631.501 67.8516C630.833 67.5176 630.042 67.3506 629.128 67.3506C628.231 67.3506 627.467 67.5615 626.834 67.9834C626.201 68.3877 625.683 68.959 625.278 69.6973C624.892 70.4355 624.602 71.3057 624.408 72.3076C624.232 73.292 624.145 74.3643 624.145 75.5244ZM676.457 76.6582H666.807V69.9873H676.457C677.881 69.9873 679.023 69.75 679.885 69.2754C680.764 68.8008 681.405 68.1504 681.81 67.3242C682.231 66.4805 682.442 65.5312 682.442 64.4766C682.442 63.3867 682.231 62.376 681.81 61.4443C681.405 60.4951 680.764 59.7305 679.885 59.1504C679.023 58.5703 677.881 58.2803 676.457 58.2803H669.918V90H661.322V51.6094H676.457C679.516 51.6094 682.135 52.1631 684.314 53.2705C686.512 54.3779 688.19 55.8984 689.351 57.832C690.528 59.748 691.117 61.9453 691.117 64.4238C691.117 66.9023 690.528 69.0557 689.351 70.8838C688.19 72.7119 686.512 74.1357 684.314 75.1553C682.135 76.1572 679.516 76.6582 676.457 76.6582ZM710.708 83.1973V70.9629C710.708 70.1016 710.576 69.3633 710.312 68.748C710.049 68.1328 709.636 67.6494 709.073 67.2979C708.511 66.9463 707.781 66.7705 706.885 66.7705C706.129 66.7705 705.47 66.9023 704.907 67.166C704.362 67.4297 703.94 67.8076 703.642 68.2998C703.36 68.792 703.22 69.3984 703.22 70.1191H694.993C694.993 68.8359 695.283 67.6406 695.863 66.5332C696.443 65.4258 697.27 64.4502 698.342 63.6064C699.432 62.7627 700.732 62.1123 702.244 61.6553C703.756 61.1807 705.452 60.9434 707.333 60.9434C709.565 60.9434 711.552 61.3213 713.292 62.0771C715.05 62.8154 716.438 63.9316 717.458 65.4258C718.478 66.9023 718.987 68.7656 718.987 71.0156V82.96C718.987 84.6826 719.084 86.0361 719.277 87.0205C719.488 87.9873 719.787 88.8311 720.174 89.5518V90H711.868C711.481 89.1738 711.191 88.1543 710.998 86.9414C710.805 85.7109 710.708 84.4629 710.708 83.1973ZM711.736 72.5977L711.789 77.1328H707.702C706.788 77.1328 705.997 77.2471 705.329 77.4756C704.679 77.7041 704.151 78.0205 703.747 78.4248C703.343 78.8115 703.044 79.2686 702.851 79.7959C702.675 80.3057 702.587 80.8682 702.587 81.4834C702.587 82.0635 702.728 82.5908 703.009 83.0654C703.29 83.5225 703.677 83.8828 704.169 84.1465C704.661 84.4102 705.232 84.542 705.883 84.542C706.955 84.542 707.869 84.3311 708.625 83.9092C709.398 83.4873 709.996 82.9775 710.418 82.3799C710.84 81.7646 711.051 81.1934 711.051 80.666L713.028 84.0938C712.712 84.7969 712.325 85.5264 711.868 86.2822C711.411 87.0205 710.831 87.7148 710.128 88.3652C709.425 88.998 708.572 89.5166 707.57 89.9209C706.586 90.3252 705.399 90.5273 704.011 90.5273C702.218 90.5273 700.592 90.167 699.133 89.4463C697.674 88.708 696.505 87.6973 695.626 86.4141C694.765 85.1309 694.334 83.6543 694.334 81.9844C694.334 80.4902 694.606 79.1631 695.151 78.0029C695.696 76.8428 696.514 75.8584 697.604 75.0498C698.711 74.2412 700.1 73.6348 701.77 73.2305C703.439 72.8086 705.391 72.5977 707.623 72.5977H711.736ZM738.895 61.4707V67.2451H721.967V61.4707H738.895ZM725.843 54.4043H734.096V81.0615C734.096 81.8525 734.192 82.459 734.386 82.8809C734.579 83.3027 734.896 83.6016 735.335 83.7773C735.774 83.9355 736.337 84.0146 737.022 84.0146C737.515 84.0146 737.937 83.9971 738.288 83.9619C738.64 83.9268 738.965 83.8828 739.264 83.8301V89.7891C738.561 90.0176 737.813 90.1934 737.022 90.3164C736.231 90.457 735.37 90.5273 734.438 90.5273C732.663 90.5273 731.125 90.2373 729.824 89.6572C728.541 89.0771 727.557 88.1631 726.871 86.915C726.186 85.6494 725.843 84.0059 725.843 81.9844V54.4043ZM750.892 49.5V90H742.665V49.5H750.892ZM749.811 74.7334L747.754 74.7861C747.754 72.7822 748 70.9453 748.492 69.2754C749.002 67.5879 749.723 66.1201 750.654 64.8721C751.586 63.624 752.702 62.6572 754.003 61.9717C755.321 61.2861 756.771 60.9434 758.354 60.9434C759.76 60.9434 761.043 61.1455 762.203 61.5498C763.363 61.9541 764.365 62.5957 765.209 63.4746C766.053 64.3535 766.703 65.5049 767.16 66.9287C767.617 68.3525 767.846 70.084 767.846 72.123V90H759.566V72.0703C759.566 70.8574 759.391 69.9082 759.039 69.2227C758.705 68.5371 758.213 68.0537 757.562 67.7725C756.93 67.4912 756.156 67.3506 755.242 67.3506C754.17 67.3506 753.282 67.5439 752.579 67.9307C751.876 68.2998 751.322 68.8184 750.918 69.4863C750.514 70.1543 750.224 70.9365 750.048 71.833C749.89 72.7295 749.811 73.6963 749.811 74.7334Z" fill="#4CB074"/>
</svg>
