<svg width="1024" height="200" viewBox="0 0 1024 200" fill="none" xmlns="http://www.w3.org/2000/svg">
<rect width="1024" height="200" fill="white"/>
<path d="M168.666 136.094V156H166.068V136.094H168.666ZM175.064 136.094V138.254H159.684V136.094H175.064ZM180.807 154.469L184.922 141.207H187.629L181.695 158.283C181.559 158.648 181.376 159.04 181.148 159.459C180.93 159.887 180.647 160.293 180.301 160.676C179.954 161.059 179.535 161.368 179.043 161.605C178.56 161.852 177.981 161.975 177.307 161.975C177.106 161.975 176.851 161.947 176.541 161.893C176.231 161.838 176.012 161.792 175.885 161.756L175.871 159.705C175.944 159.714 176.058 159.723 176.213 159.732C176.377 159.751 176.491 159.76 176.555 159.76C177.129 159.76 177.617 159.682 178.018 159.527C178.419 159.382 178.756 159.131 179.029 158.775C179.312 158.429 179.553 157.951 179.754 157.34L180.807 154.469ZM177.785 141.207L181.627 152.691L182.283 155.357L180.465 156.287L175.023 141.207H177.785ZM192.441 144.051V161.688H189.898V141.207H192.223L192.441 144.051ZM202.408 148.48V148.768C202.408 149.843 202.281 150.841 202.025 151.762C201.77 152.673 201.396 153.466 200.904 154.141C200.421 154.815 199.824 155.339 199.113 155.713C198.402 156.087 197.587 156.273 196.666 156.273C195.727 156.273 194.898 156.118 194.178 155.809C193.458 155.499 192.847 155.048 192.346 154.455C191.844 153.863 191.443 153.152 191.143 152.322C190.851 151.493 190.65 150.559 190.541 149.52V147.988C190.65 146.895 190.855 145.915 191.156 145.049C191.457 144.183 191.854 143.445 192.346 142.834C192.847 142.214 193.453 141.745 194.164 141.426C194.875 141.098 195.695 140.934 196.625 140.934C197.555 140.934 198.38 141.116 199.1 141.48C199.82 141.836 200.426 142.346 200.918 143.012C201.41 143.677 201.779 144.475 202.025 145.404C202.281 146.325 202.408 147.35 202.408 148.48ZM199.865 148.768V148.48C199.865 147.742 199.788 147.049 199.633 146.402C199.478 145.746 199.236 145.172 198.908 144.68C198.589 144.178 198.179 143.786 197.678 143.504C197.176 143.212 196.579 143.066 195.887 143.066C195.249 143.066 194.693 143.176 194.219 143.395C193.754 143.613 193.357 143.91 193.029 144.283C192.701 144.648 192.432 145.067 192.223 145.541C192.022 146.006 191.872 146.489 191.771 146.99V150.531C191.954 151.169 192.209 151.771 192.537 152.336C192.865 152.892 193.303 153.343 193.85 153.689C194.396 154.027 195.085 154.195 195.914 154.195C196.598 154.195 197.186 154.054 197.678 153.771C198.179 153.48 198.589 153.083 198.908 152.582C199.236 152.081 199.478 151.507 199.633 150.859C199.788 150.203 199.865 149.506 199.865 148.768ZM211.773 156.273C210.743 156.273 209.809 156.1 208.971 155.754C208.141 155.398 207.426 154.902 206.824 154.264C206.232 153.626 205.776 152.869 205.457 151.994C205.138 151.119 204.979 150.162 204.979 149.123V148.549C204.979 147.346 205.156 146.275 205.512 145.336C205.867 144.388 206.35 143.586 206.961 142.93C207.572 142.273 208.264 141.777 209.039 141.439C209.814 141.102 210.616 140.934 211.445 140.934C212.503 140.934 213.414 141.116 214.18 141.48C214.954 141.845 215.588 142.355 216.08 143.012C216.572 143.659 216.937 144.424 217.174 145.309C217.411 146.184 217.529 147.141 217.529 148.18V149.314H206.482V147.25H215V147.059C214.964 146.402 214.827 145.764 214.59 145.145C214.362 144.525 213.997 144.014 213.496 143.613C212.995 143.212 212.311 143.012 211.445 143.012C210.871 143.012 210.342 143.135 209.859 143.381C209.376 143.618 208.962 143.973 208.615 144.447C208.269 144.921 208 145.5 207.809 146.184C207.617 146.867 207.521 147.656 207.521 148.549V149.123C207.521 149.825 207.617 150.486 207.809 151.105C208.009 151.716 208.296 152.254 208.67 152.719C209.053 153.184 209.513 153.548 210.051 153.812C210.598 154.077 211.217 154.209 211.91 154.209C212.803 154.209 213.56 154.027 214.18 153.662C214.799 153.298 215.342 152.81 215.807 152.199L217.338 153.416C217.019 153.899 216.613 154.359 216.121 154.797C215.629 155.234 215.023 155.59 214.303 155.863C213.592 156.137 212.749 156.273 211.773 156.273ZM229.807 153.129V135H232.35V156H230.025L229.807 153.129ZM219.854 148.768V148.48C219.854 147.35 219.99 146.325 220.264 145.404C220.546 144.475 220.943 143.677 221.453 143.012C221.973 142.346 222.588 141.836 223.299 141.48C224.019 141.116 224.821 140.934 225.705 140.934C226.635 140.934 227.446 141.098 228.139 141.426C228.84 141.745 229.433 142.214 229.916 142.834C230.408 143.445 230.796 144.183 231.078 145.049C231.361 145.915 231.557 146.895 231.666 147.988V149.246C231.566 150.331 231.37 151.306 231.078 152.172C230.796 153.038 230.408 153.776 229.916 154.387C229.433 154.997 228.84 155.467 228.139 155.795C227.437 156.114 226.617 156.273 225.678 156.273C224.812 156.273 224.019 156.087 223.299 155.713C222.588 155.339 221.973 154.815 221.453 154.141C220.943 153.466 220.546 152.673 220.264 151.762C219.99 150.841 219.854 149.843 219.854 148.768ZM222.396 148.48V148.768C222.396 149.506 222.469 150.199 222.615 150.846C222.77 151.493 223.007 152.062 223.326 152.555C223.645 153.047 224.051 153.434 224.543 153.717C225.035 153.99 225.623 154.127 226.307 154.127C227.145 154.127 227.833 153.949 228.371 153.594C228.918 153.238 229.355 152.769 229.684 152.186C230.012 151.602 230.267 150.969 230.449 150.285V146.99C230.34 146.489 230.18 146.006 229.971 145.541C229.77 145.067 229.506 144.648 229.178 144.283C228.859 143.91 228.462 143.613 227.988 143.395C227.523 143.176 226.972 143.066 226.334 143.066C225.641 143.066 225.044 143.212 224.543 143.504C224.051 143.786 223.645 144.178 223.326 144.68C223.007 145.172 222.77 145.746 222.615 146.402C222.469 147.049 222.396 147.742 222.396 148.48ZM252.816 141.207H255.113V155.686C255.113 156.989 254.849 158.101 254.32 159.021C253.792 159.942 253.053 160.639 252.105 161.113C251.167 161.596 250.082 161.838 248.852 161.838C248.341 161.838 247.74 161.756 247.047 161.592C246.363 161.437 245.689 161.168 245.023 160.785C244.367 160.411 243.816 159.906 243.369 159.268L244.695 157.764C245.315 158.511 245.962 159.031 246.637 159.322C247.32 159.614 247.995 159.76 248.66 159.76C249.462 159.76 250.155 159.609 250.738 159.309C251.322 159.008 251.773 158.561 252.092 157.969C252.42 157.385 252.584 156.665 252.584 155.809V144.461L252.816 141.207ZM242.631 148.768V148.48C242.631 147.35 242.763 146.325 243.027 145.404C243.301 144.475 243.688 143.677 244.189 143.012C244.7 142.346 245.315 141.836 246.035 141.48C246.755 141.116 247.566 140.934 248.469 140.934C249.398 140.934 250.21 141.098 250.902 141.426C251.604 141.745 252.197 142.214 252.68 142.834C253.172 143.445 253.559 144.183 253.842 145.049C254.124 145.915 254.32 146.895 254.43 147.988V149.246C254.329 150.331 254.133 151.306 253.842 152.172C253.559 153.038 253.172 153.776 252.68 154.387C252.197 154.997 251.604 155.467 250.902 155.795C250.201 156.114 249.38 156.273 248.441 156.273C247.557 156.273 246.755 156.087 246.035 155.713C245.324 155.339 244.714 154.815 244.203 154.141C243.693 153.466 243.301 152.673 243.027 151.762C242.763 150.841 242.631 149.843 242.631 148.768ZM245.16 148.48V148.768C245.16 149.506 245.233 150.199 245.379 150.846C245.534 151.493 245.766 152.062 246.076 152.555C246.395 153.047 246.801 153.434 247.293 153.717C247.785 153.99 248.373 154.127 249.057 154.127C249.895 154.127 250.588 153.949 251.135 153.594C251.682 153.238 252.115 152.769 252.434 152.186C252.762 151.602 253.017 150.969 253.199 150.285V146.99C253.099 146.489 252.944 146.006 252.734 145.541C252.534 145.067 252.27 144.648 251.941 144.283C251.622 143.91 251.226 143.613 250.752 143.395C250.278 143.176 249.722 143.066 249.084 143.066C248.391 143.066 247.794 143.212 247.293 143.504C246.801 143.786 246.395 144.178 246.076 144.68C245.766 145.172 245.534 145.746 245.379 146.402C245.233 147.049 245.16 147.742 245.16 148.48ZM265.094 156.273C264.064 156.273 263.13 156.1 262.291 155.754C261.462 155.398 260.746 154.902 260.145 154.264C259.552 153.626 259.096 152.869 258.777 151.994C258.458 151.119 258.299 150.162 258.299 149.123V148.549C258.299 147.346 258.477 146.275 258.832 145.336C259.188 144.388 259.671 143.586 260.281 142.93C260.892 142.273 261.585 141.777 262.359 141.439C263.134 141.102 263.936 140.934 264.766 140.934C265.823 140.934 266.734 141.116 267.5 141.48C268.275 141.845 268.908 142.355 269.4 143.012C269.893 143.659 270.257 144.424 270.494 145.309C270.731 146.184 270.85 147.141 270.85 148.18V149.314H259.803V147.25H268.32V147.059C268.284 146.402 268.147 145.764 267.91 145.145C267.682 144.525 267.318 144.014 266.816 143.613C266.315 143.212 265.632 143.012 264.766 143.012C264.191 143.012 263.663 143.135 263.18 143.381C262.697 143.618 262.282 143.973 261.936 144.447C261.589 144.921 261.32 145.5 261.129 146.184C260.938 146.867 260.842 147.656 260.842 148.549V149.123C260.842 149.825 260.938 150.486 261.129 151.105C261.329 151.716 261.617 152.254 261.99 152.719C262.373 153.184 262.833 153.548 263.371 153.812C263.918 154.077 264.538 154.209 265.23 154.209C266.124 154.209 266.88 154.027 267.5 153.662C268.12 153.298 268.662 152.81 269.127 152.199L270.658 153.416C270.339 153.899 269.934 154.359 269.441 154.797C268.949 155.234 268.343 155.59 267.623 155.863C266.912 156.137 266.069 156.273 265.094 156.273ZM279.996 141.207V143.148H271.998V141.207H279.996ZM274.705 137.611H277.234V152.336C277.234 152.837 277.312 153.215 277.467 153.471C277.622 153.726 277.822 153.895 278.068 153.977C278.314 154.059 278.579 154.1 278.861 154.1C279.071 154.1 279.29 154.081 279.518 154.045C279.755 153.999 279.932 153.963 280.051 153.936L280.064 156C279.864 156.064 279.6 156.123 279.271 156.178C278.952 156.242 278.565 156.273 278.109 156.273C277.49 156.273 276.92 156.15 276.4 155.904C275.881 155.658 275.466 155.248 275.156 154.674C274.855 154.09 274.705 153.307 274.705 152.322V137.611ZM291.768 136.094L283.469 157.709H281.295L289.607 136.094H291.768ZM303.143 152.076C303.143 151.712 303.061 151.374 302.896 151.064C302.742 150.745 302.418 150.458 301.926 150.203C301.443 149.939 300.714 149.711 299.738 149.52C298.918 149.346 298.175 149.141 297.51 148.904C296.854 148.667 296.293 148.38 295.828 148.043C295.372 147.706 295.021 147.309 294.775 146.854C294.529 146.398 294.406 145.865 294.406 145.254C294.406 144.671 294.534 144.119 294.789 143.6C295.053 143.08 295.423 142.62 295.896 142.219C296.38 141.818 296.958 141.503 297.633 141.275C298.307 141.048 299.059 140.934 299.889 140.934C301.074 140.934 302.085 141.143 302.924 141.562C303.762 141.982 304.405 142.542 304.852 143.244C305.298 143.937 305.521 144.707 305.521 145.555H302.992C302.992 145.145 302.869 144.748 302.623 144.365C302.386 143.973 302.035 143.65 301.57 143.395C301.115 143.139 300.554 143.012 299.889 143.012C299.187 143.012 298.617 143.121 298.18 143.34C297.751 143.549 297.437 143.818 297.236 144.146C297.045 144.475 296.949 144.821 296.949 145.186C296.949 145.459 296.995 145.705 297.086 145.924C297.186 146.133 297.359 146.329 297.605 146.512C297.852 146.685 298.198 146.849 298.645 147.004C299.091 147.159 299.661 147.314 300.354 147.469C301.566 147.742 302.564 148.07 303.348 148.453C304.132 148.836 304.715 149.305 305.098 149.861C305.48 150.417 305.672 151.092 305.672 151.885C305.672 152.532 305.535 153.124 305.262 153.662C304.997 154.2 304.61 154.665 304.1 155.057C303.598 155.439 302.997 155.74 302.295 155.959C301.602 156.169 300.823 156.273 299.957 156.273C298.654 156.273 297.551 156.041 296.648 155.576C295.746 155.111 295.062 154.51 294.598 153.771C294.133 153.033 293.9 152.254 293.9 151.434H296.443C296.48 152.126 296.68 152.678 297.045 153.088C297.41 153.489 297.856 153.776 298.385 153.949C298.913 154.113 299.438 154.195 299.957 154.195C300.65 154.195 301.229 154.104 301.693 153.922C302.167 153.74 302.527 153.489 302.773 153.17C303.02 152.851 303.143 152.486 303.143 152.076ZM315.133 156.273C314.103 156.273 313.169 156.1 312.33 155.754C311.501 155.398 310.785 154.902 310.184 154.264C309.591 153.626 309.135 152.869 308.816 151.994C308.497 151.119 308.338 150.162 308.338 149.123V148.549C308.338 147.346 308.516 146.275 308.871 145.336C309.227 144.388 309.71 143.586 310.32 142.93C310.931 142.273 311.624 141.777 312.398 141.439C313.173 141.102 313.975 140.934 314.805 140.934C315.862 140.934 316.773 141.116 317.539 141.48C318.314 141.845 318.947 142.355 319.439 143.012C319.932 143.659 320.296 144.424 320.533 145.309C320.77 146.184 320.889 147.141 320.889 148.18V149.314H309.842V147.25H318.359V147.059C318.323 146.402 318.186 145.764 317.949 145.145C317.721 144.525 317.357 144.014 316.855 143.613C316.354 143.212 315.671 143.012 314.805 143.012C314.23 143.012 313.702 143.135 313.219 143.381C312.736 143.618 312.321 143.973 311.975 144.447C311.628 144.921 311.359 145.5 311.168 146.184C310.977 146.867 310.881 147.656 310.881 148.549V149.123C310.881 149.825 310.977 150.486 311.168 151.105C311.368 151.716 311.656 152.254 312.029 152.719C312.412 153.184 312.872 153.548 313.41 153.812C313.957 154.077 314.577 154.209 315.27 154.209C316.163 154.209 316.919 154.027 317.539 153.662C318.159 153.298 318.701 152.81 319.166 152.199L320.697 153.416C320.378 153.899 319.973 154.359 319.48 154.797C318.988 155.234 318.382 155.59 317.662 155.863C316.951 156.137 316.108 156.273 315.133 156.273ZM330.035 141.207V143.148H322.037V141.207H330.035ZM324.744 137.611H327.273V152.336C327.273 152.837 327.351 153.215 327.506 153.471C327.661 153.726 327.861 153.895 328.107 153.977C328.354 154.059 328.618 154.1 328.9 154.1C329.11 154.1 329.329 154.081 329.557 154.045C329.794 153.999 329.971 153.963 330.09 153.936L330.104 156C329.903 156.064 329.639 156.123 329.311 156.178C328.992 156.242 328.604 156.273 328.148 156.273C327.529 156.273 326.959 156.15 326.439 155.904C325.92 155.658 325.505 155.248 325.195 154.674C324.895 154.09 324.744 153.307 324.744 152.322V137.611ZM349.271 153.129V135H351.814V156H349.49L349.271 153.129ZM339.318 148.768V148.48C339.318 147.35 339.455 146.325 339.729 145.404C340.011 144.475 340.408 143.677 340.918 143.012C341.438 142.346 342.053 141.836 342.764 141.48C343.484 141.116 344.286 140.934 345.17 140.934C346.1 140.934 346.911 141.098 347.604 141.426C348.305 141.745 348.898 142.214 349.381 142.834C349.873 143.445 350.26 144.183 350.543 145.049C350.826 145.915 351.021 146.895 351.131 147.988V149.246C351.031 150.331 350.835 151.306 350.543 152.172C350.26 153.038 349.873 153.776 349.381 154.387C348.898 154.997 348.305 155.467 347.604 155.795C346.902 156.114 346.081 156.273 345.143 156.273C344.277 156.273 343.484 156.087 342.764 155.713C342.053 155.339 341.438 154.815 340.918 154.141C340.408 153.466 340.011 152.673 339.729 151.762C339.455 150.841 339.318 149.843 339.318 148.768ZM341.861 148.48V148.768C341.861 149.506 341.934 150.199 342.08 150.846C342.235 151.493 342.472 152.062 342.791 152.555C343.11 153.047 343.516 153.434 344.008 153.717C344.5 153.99 345.088 154.127 345.771 154.127C346.61 154.127 347.298 153.949 347.836 153.594C348.383 153.238 348.82 152.769 349.148 152.186C349.477 151.602 349.732 150.969 349.914 150.285V146.99C349.805 146.489 349.645 146.006 349.436 145.541C349.235 145.067 348.971 144.648 348.643 144.283C348.324 143.91 347.927 143.613 347.453 143.395C346.988 143.176 346.437 143.066 345.799 143.066C345.106 143.066 344.509 143.212 344.008 143.504C343.516 143.786 343.11 144.178 342.791 144.68C342.472 145.172 342.235 145.746 342.08 146.402C341.934 147.049 341.861 147.742 341.861 148.48ZM361.891 156.273C360.861 156.273 359.926 156.1 359.088 155.754C358.258 155.398 357.543 154.902 356.941 154.264C356.349 153.626 355.893 152.869 355.574 151.994C355.255 151.119 355.096 150.162 355.096 149.123V148.549C355.096 147.346 355.273 146.275 355.629 145.336C355.984 144.388 356.467 143.586 357.078 142.93C357.689 142.273 358.382 141.777 359.156 141.439C359.931 141.102 360.733 140.934 361.562 140.934C362.62 140.934 363.531 141.116 364.297 141.48C365.072 141.845 365.705 142.355 366.197 143.012C366.689 143.659 367.054 144.424 367.291 145.309C367.528 146.184 367.646 147.141 367.646 148.18V149.314H356.6V147.25H365.117V147.059C365.081 146.402 364.944 145.764 364.707 145.145C364.479 144.525 364.115 144.014 363.613 143.613C363.112 143.212 362.428 143.012 361.562 143.012C360.988 143.012 360.46 143.135 359.977 143.381C359.493 143.618 359.079 143.973 358.732 144.447C358.386 144.921 358.117 145.5 357.926 146.184C357.734 146.867 357.639 147.656 357.639 148.549V149.123C357.639 149.825 357.734 150.486 357.926 151.105C358.126 151.716 358.413 152.254 358.787 152.719C359.17 153.184 359.63 153.548 360.168 153.812C360.715 154.077 361.335 154.209 362.027 154.209C362.921 154.209 363.677 154.027 364.297 153.662C364.917 153.298 365.459 152.81 365.924 152.199L367.455 153.416C367.136 153.899 366.73 154.359 366.238 154.797C365.746 155.234 365.14 155.59 364.42 155.863C363.709 156.137 362.866 156.273 361.891 156.273ZM376.738 156.273C375.708 156.273 374.774 156.1 373.936 155.754C373.106 155.398 372.391 154.902 371.789 154.264C371.197 153.626 370.741 152.869 370.422 151.994C370.103 151.119 369.943 150.162 369.943 149.123V148.549C369.943 147.346 370.121 146.275 370.477 145.336C370.832 144.388 371.315 143.586 371.926 142.93C372.536 142.273 373.229 141.777 374.004 141.439C374.779 141.102 375.581 140.934 376.41 140.934C377.467 140.934 378.379 141.116 379.145 141.48C379.919 141.845 380.553 142.355 381.045 143.012C381.537 143.659 381.902 144.424 382.139 145.309C382.376 146.184 382.494 147.141 382.494 148.18V149.314H371.447V147.25H379.965V147.059C379.928 146.402 379.792 145.764 379.555 145.145C379.327 144.525 378.962 144.014 378.461 143.613C377.96 143.212 377.276 143.012 376.41 143.012C375.836 143.012 375.307 143.135 374.824 143.381C374.341 143.618 373.926 143.973 373.58 144.447C373.234 144.921 372.965 145.5 372.773 146.184C372.582 146.867 372.486 147.656 372.486 148.549V149.123C372.486 149.825 372.582 150.486 372.773 151.105C372.974 151.716 373.261 152.254 373.635 152.719C374.018 153.184 374.478 153.548 375.016 153.812C375.562 154.077 376.182 154.209 376.875 154.209C377.768 154.209 378.525 154.027 379.145 153.662C379.764 153.298 380.307 152.81 380.771 152.199L382.303 153.416C381.984 153.899 381.578 154.359 381.086 154.797C380.594 155.234 379.988 155.59 379.268 155.863C378.557 156.137 377.714 156.273 376.738 156.273ZM387.977 144.051V161.688H385.434V141.207H387.758L387.977 144.051ZM397.943 148.48V148.768C397.943 149.843 397.816 150.841 397.561 151.762C397.305 152.673 396.932 153.466 396.439 154.141C395.956 154.815 395.359 155.339 394.648 155.713C393.938 156.087 393.122 156.273 392.201 156.273C391.262 156.273 390.433 156.118 389.713 155.809C388.993 155.499 388.382 155.048 387.881 154.455C387.38 153.863 386.979 153.152 386.678 152.322C386.386 151.493 386.186 150.559 386.076 149.52V147.988C386.186 146.895 386.391 145.915 386.691 145.049C386.992 144.183 387.389 143.445 387.881 142.834C388.382 142.214 388.988 141.745 389.699 141.426C390.41 141.098 391.23 140.934 392.16 140.934C393.09 140.934 393.915 141.116 394.635 141.48C395.355 141.836 395.961 142.346 396.453 143.012C396.945 143.677 397.314 144.475 397.561 145.404C397.816 146.325 397.943 147.35 397.943 148.48ZM395.4 148.768V148.48C395.4 147.742 395.323 147.049 395.168 146.402C395.013 145.746 394.771 145.172 394.443 144.68C394.124 144.178 393.714 143.786 393.213 143.504C392.712 143.212 392.115 143.066 391.422 143.066C390.784 143.066 390.228 143.176 389.754 143.395C389.289 143.613 388.893 143.91 388.564 144.283C388.236 144.648 387.967 145.067 387.758 145.541C387.557 146.006 387.407 146.489 387.307 146.99V150.531C387.489 151.169 387.744 151.771 388.072 152.336C388.4 152.892 388.838 153.343 389.385 153.689C389.932 154.027 390.62 154.195 391.449 154.195C392.133 154.195 392.721 154.054 393.213 153.771C393.714 153.48 394.124 153.083 394.443 152.582C394.771 152.081 395.013 151.507 395.168 150.859C395.323 150.203 395.4 149.506 395.4 148.768ZM410.645 144.365V156H408.115V141.207H410.508L410.645 144.365ZM410.043 148.043L408.99 148.002C408.999 146.99 409.15 146.056 409.441 145.199C409.733 144.333 410.143 143.581 410.672 142.943C411.201 142.305 411.829 141.813 412.559 141.467C413.297 141.111 414.113 140.934 415.006 140.934C415.735 140.934 416.391 141.034 416.975 141.234C417.558 141.426 418.055 141.736 418.465 142.164C418.884 142.592 419.203 143.148 419.422 143.832C419.641 144.507 419.75 145.331 419.75 146.307V156H417.207V146.279C417.207 145.505 417.093 144.885 416.865 144.42C416.637 143.946 416.305 143.604 415.867 143.395C415.43 143.176 414.892 143.066 414.254 143.066C413.625 143.066 413.051 143.199 412.531 143.463C412.021 143.727 411.579 144.092 411.205 144.557C410.84 145.021 410.553 145.555 410.344 146.156C410.143 146.749 410.043 147.378 410.043 148.043ZM429.73 156.273C428.701 156.273 427.766 156.1 426.928 155.754C426.098 155.398 425.383 154.902 424.781 154.264C424.189 153.626 423.733 152.869 423.414 151.994C423.095 151.119 422.936 150.162 422.936 149.123V148.549C422.936 147.346 423.113 146.275 423.469 145.336C423.824 144.388 424.307 143.586 424.918 142.93C425.529 142.273 426.221 141.777 426.996 141.439C427.771 141.102 428.573 140.934 429.402 140.934C430.46 140.934 431.371 141.116 432.137 141.48C432.911 141.845 433.545 142.355 434.037 143.012C434.529 143.659 434.894 144.424 435.131 145.309C435.368 146.184 435.486 147.141 435.486 148.18V149.314H424.439V147.25H432.957V147.059C432.921 146.402 432.784 145.764 432.547 145.145C432.319 144.525 431.954 144.014 431.453 143.613C430.952 143.212 430.268 143.012 429.402 143.012C428.828 143.012 428.299 143.135 427.816 143.381C427.333 143.618 426.919 143.973 426.572 144.447C426.226 144.921 425.957 145.5 425.766 146.184C425.574 146.867 425.479 147.656 425.479 148.549V149.123C425.479 149.825 425.574 150.486 425.766 151.105C425.966 151.716 426.253 152.254 426.627 152.719C427.01 153.184 427.47 153.548 428.008 153.812C428.555 154.077 429.174 154.209 429.867 154.209C430.76 154.209 431.517 154.027 432.137 153.662C432.757 153.298 433.299 152.81 433.764 152.199L435.295 153.416C434.976 153.899 434.57 154.359 434.078 154.797C433.586 155.234 432.98 155.59 432.26 155.863C431.549 156.137 430.706 156.273 429.73 156.273ZM447.053 152.076C447.053 151.712 446.971 151.374 446.807 151.064C446.652 150.745 446.328 150.458 445.836 150.203C445.353 149.939 444.624 149.711 443.648 149.52C442.828 149.346 442.085 149.141 441.42 148.904C440.764 148.667 440.203 148.38 439.738 148.043C439.283 147.706 438.932 147.309 438.686 146.854C438.439 146.398 438.316 145.865 438.316 145.254C438.316 144.671 438.444 144.119 438.699 143.6C438.964 143.08 439.333 142.62 439.807 142.219C440.29 141.818 440.868 141.503 441.543 141.275C442.217 141.048 442.969 140.934 443.799 140.934C444.984 140.934 445.995 141.143 446.834 141.562C447.673 141.982 448.315 142.542 448.762 143.244C449.208 143.937 449.432 144.707 449.432 145.555H446.902C446.902 145.145 446.779 144.748 446.533 144.365C446.296 143.973 445.945 143.65 445.48 143.395C445.025 143.139 444.464 143.012 443.799 143.012C443.097 143.012 442.527 143.121 442.09 143.34C441.661 143.549 441.347 143.818 441.146 144.146C440.955 144.475 440.859 144.821 440.859 145.186C440.859 145.459 440.905 145.705 440.996 145.924C441.096 146.133 441.27 146.329 441.516 146.512C441.762 146.685 442.108 146.849 442.555 147.004C443.001 147.159 443.571 147.314 444.264 147.469C445.476 147.742 446.474 148.07 447.258 148.453C448.042 148.836 448.625 149.305 449.008 149.861C449.391 150.417 449.582 151.092 449.582 151.885C449.582 152.532 449.445 153.124 449.172 153.662C448.908 154.2 448.52 154.665 448.01 155.057C447.508 155.439 446.907 155.74 446.205 155.959C445.512 156.169 444.733 156.273 443.867 156.273C442.564 156.273 441.461 156.041 440.559 155.576C439.656 155.111 438.973 154.51 438.508 153.771C438.043 153.033 437.811 152.254 437.811 151.434H440.354C440.39 152.126 440.59 152.678 440.955 153.088C441.32 153.489 441.766 153.776 442.295 153.949C442.824 154.113 443.348 154.195 443.867 154.195C444.56 154.195 445.139 154.104 445.604 153.922C446.077 153.74 446.438 153.489 446.684 153.17C446.93 152.851 447.053 152.486 447.053 152.076ZM459.098 141.207V143.148H451.1V141.207H459.098ZM453.807 137.611H456.336V152.336C456.336 152.837 456.413 153.215 456.568 153.471C456.723 153.726 456.924 153.895 457.17 153.977C457.416 154.059 457.68 154.1 457.963 154.1C458.173 154.1 458.391 154.081 458.619 154.045C458.856 153.999 459.034 153.963 459.152 153.936L459.166 156C458.965 156.064 458.701 156.123 458.373 156.178C458.054 156.242 457.667 156.273 457.211 156.273C456.591 156.273 456.021 156.15 455.502 155.904C454.982 155.658 454.568 155.248 454.258 154.674C453.957 154.09 453.807 153.307 453.807 152.322V137.611ZM468.203 156.273C467.173 156.273 466.239 156.1 465.4 155.754C464.571 155.398 463.855 154.902 463.254 154.264C462.661 153.626 462.206 152.869 461.887 151.994C461.568 151.119 461.408 150.162 461.408 149.123V148.549C461.408 147.346 461.586 146.275 461.941 145.336C462.297 144.388 462.78 143.586 463.391 142.93C464.001 142.273 464.694 141.777 465.469 141.439C466.243 141.102 467.046 140.934 467.875 140.934C468.932 140.934 469.844 141.116 470.609 141.48C471.384 141.845 472.018 142.355 472.51 143.012C473.002 143.659 473.367 144.424 473.604 145.309C473.84 146.184 473.959 147.141 473.959 148.18V149.314H462.912V147.25H471.43V147.059C471.393 146.402 471.257 145.764 471.02 145.145C470.792 144.525 470.427 144.014 469.926 143.613C469.424 143.212 468.741 143.012 467.875 143.012C467.301 143.012 466.772 143.135 466.289 143.381C465.806 143.618 465.391 143.973 465.045 144.447C464.699 144.921 464.43 145.5 464.238 146.184C464.047 146.867 463.951 147.656 463.951 148.549V149.123C463.951 149.825 464.047 150.486 464.238 151.105C464.439 151.716 464.726 152.254 465.1 152.719C465.482 153.184 465.943 153.548 466.48 153.812C467.027 154.077 467.647 154.209 468.34 154.209C469.233 154.209 469.99 154.027 470.609 153.662C471.229 153.298 471.771 152.81 472.236 152.199L473.768 153.416C473.449 153.899 473.043 154.359 472.551 154.797C472.059 155.234 471.452 155.59 470.732 155.863C470.021 156.137 469.178 156.273 468.203 156.273ZM486.236 153.129V135H488.779V156H486.455L486.236 153.129ZM476.283 148.768V148.48C476.283 147.35 476.42 146.325 476.693 145.404C476.976 144.475 477.372 143.677 477.883 143.012C478.402 142.346 479.018 141.836 479.729 141.48C480.449 141.116 481.251 140.934 482.135 140.934C483.064 140.934 483.876 141.098 484.568 141.426C485.27 141.745 485.863 142.214 486.346 142.834C486.838 143.445 487.225 144.183 487.508 145.049C487.79 145.915 487.986 146.895 488.096 147.988V149.246C487.995 150.331 487.799 151.306 487.508 152.172C487.225 153.038 486.838 153.776 486.346 154.387C485.863 154.997 485.27 155.467 484.568 155.795C483.867 156.114 483.046 156.273 482.107 156.273C481.242 156.273 480.449 156.087 479.729 155.713C479.018 155.339 478.402 154.815 477.883 154.141C477.372 153.466 476.976 152.673 476.693 151.762C476.42 150.841 476.283 149.843 476.283 148.768ZM478.826 148.48V148.768C478.826 149.506 478.899 150.199 479.045 150.846C479.2 151.493 479.437 152.062 479.756 152.555C480.075 153.047 480.48 153.434 480.973 153.717C481.465 153.99 482.053 154.127 482.736 154.127C483.575 154.127 484.263 153.949 484.801 153.594C485.348 153.238 485.785 152.769 486.113 152.186C486.441 151.602 486.697 150.969 486.879 150.285V146.99C486.77 146.489 486.61 146.006 486.4 145.541C486.2 145.067 485.936 144.648 485.607 144.283C485.288 143.91 484.892 143.613 484.418 143.395C483.953 143.176 483.402 143.066 482.764 143.066C482.071 143.066 481.474 143.212 480.973 143.504C480.48 143.786 480.075 144.178 479.756 144.68C479.437 145.172 479.2 145.746 479.045 146.402C478.899 147.049 478.826 147.742 478.826 148.48ZM502.191 144.051V161.688H499.648V141.207H501.973L502.191 144.051ZM512.158 148.48V148.768C512.158 149.843 512.031 150.841 511.775 151.762C511.52 152.673 511.146 153.466 510.654 154.141C510.171 154.815 509.574 155.339 508.863 155.713C508.152 156.087 507.337 156.273 506.416 156.273C505.477 156.273 504.648 156.118 503.928 155.809C503.208 155.499 502.597 155.048 502.096 154.455C501.594 153.863 501.193 153.152 500.893 152.322C500.601 151.493 500.4 150.559 500.291 149.52V147.988C500.4 146.895 500.605 145.915 500.906 145.049C501.207 144.183 501.604 143.445 502.096 142.834C502.597 142.214 503.203 141.745 503.914 141.426C504.625 141.098 505.445 140.934 506.375 140.934C507.305 140.934 508.13 141.116 508.85 141.48C509.57 141.836 510.176 142.346 510.668 143.012C511.16 143.677 511.529 144.475 511.775 145.404C512.031 146.325 512.158 147.35 512.158 148.48ZM509.615 148.768V148.48C509.615 147.742 509.538 147.049 509.383 146.402C509.228 145.746 508.986 145.172 508.658 144.68C508.339 144.178 507.929 143.786 507.428 143.504C506.926 143.212 506.329 143.066 505.637 143.066C504.999 143.066 504.443 143.176 503.969 143.395C503.504 143.613 503.107 143.91 502.779 144.283C502.451 144.648 502.182 145.067 501.973 145.541C501.772 146.006 501.622 146.489 501.521 146.99V150.531C501.704 151.169 501.959 151.771 502.287 152.336C502.615 152.892 503.053 153.343 503.6 153.689C504.146 154.027 504.835 154.195 505.664 154.195C506.348 154.195 506.936 154.054 507.428 153.771C507.929 153.48 508.339 153.083 508.658 152.582C508.986 152.081 509.228 151.507 509.383 150.859C509.538 150.203 509.615 149.506 509.615 148.768ZM517.914 143.531V156H515.385V141.207H517.846L517.914 143.531ZM522.535 141.125L522.521 143.477C522.312 143.431 522.111 143.404 521.92 143.395C521.738 143.376 521.528 143.367 521.291 143.367C520.708 143.367 520.193 143.458 519.746 143.641C519.299 143.823 518.921 144.078 518.611 144.406C518.301 144.734 518.055 145.126 517.873 145.582C517.7 146.029 517.586 146.521 517.531 147.059L516.82 147.469C516.82 146.576 516.907 145.737 517.08 144.953C517.262 144.169 517.54 143.477 517.914 142.875C518.288 142.264 518.762 141.79 519.336 141.453C519.919 141.107 520.612 140.934 521.414 140.934C521.596 140.934 521.806 140.956 522.043 141.002C522.28 141.038 522.444 141.079 522.535 141.125ZM523.93 148.768V148.453C523.93 147.387 524.085 146.398 524.395 145.486C524.704 144.566 525.151 143.768 525.734 143.094C526.318 142.41 527.024 141.882 527.854 141.508C528.683 141.125 529.613 140.934 530.643 140.934C531.682 140.934 532.616 141.125 533.445 141.508C534.284 141.882 534.995 142.41 535.578 143.094C536.171 143.768 536.622 144.566 536.932 145.486C537.242 146.398 537.396 147.387 537.396 148.453V148.768C537.396 149.834 537.242 150.823 536.932 151.734C536.622 152.646 536.171 153.443 535.578 154.127C534.995 154.801 534.288 155.33 533.459 155.713C532.639 156.087 531.709 156.273 530.67 156.273C529.631 156.273 528.697 156.087 527.867 155.713C527.038 155.33 526.327 154.801 525.734 154.127C525.151 153.443 524.704 152.646 524.395 151.734C524.085 150.823 523.93 149.834 523.93 148.768ZM526.459 148.453V148.768C526.459 149.506 526.546 150.203 526.719 150.859C526.892 151.507 527.152 152.081 527.498 152.582C527.854 153.083 528.296 153.48 528.824 153.771C529.353 154.054 529.968 154.195 530.67 154.195C531.363 154.195 531.969 154.054 532.488 153.771C533.017 153.48 533.454 153.083 533.801 152.582C534.147 152.081 534.407 151.507 534.58 150.859C534.762 150.203 534.854 149.506 534.854 148.768V148.453C534.854 147.724 534.762 147.036 534.58 146.389C534.407 145.732 534.143 145.154 533.787 144.652C533.441 144.142 533.003 143.741 532.475 143.449C531.955 143.158 531.344 143.012 530.643 143.012C529.95 143.012 529.339 143.158 528.811 143.449C528.291 143.741 527.854 144.142 527.498 144.652C527.152 145.154 526.892 145.732 526.719 146.389C526.546 147.036 526.459 147.724 526.459 148.453ZM543.098 144.051V161.688H540.555V141.207H542.879L543.098 144.051ZM553.064 148.48V148.768C553.064 149.843 552.937 150.841 552.682 151.762C552.426 152.673 552.053 153.466 551.561 154.141C551.077 154.815 550.48 155.339 549.77 155.713C549.059 156.087 548.243 156.273 547.322 156.273C546.383 156.273 545.554 156.118 544.834 155.809C544.114 155.499 543.503 155.048 543.002 154.455C542.501 153.863 542.1 153.152 541.799 152.322C541.507 151.493 541.307 150.559 541.197 149.52V147.988C541.307 146.895 541.512 145.915 541.812 145.049C542.113 144.183 542.51 143.445 543.002 142.834C543.503 142.214 544.109 141.745 544.82 141.426C545.531 141.098 546.352 140.934 547.281 140.934C548.211 140.934 549.036 141.116 549.756 141.48C550.476 141.836 551.082 142.346 551.574 143.012C552.066 143.677 552.436 144.475 552.682 145.404C552.937 146.325 553.064 147.35 553.064 148.48ZM550.521 148.768V148.48C550.521 147.742 550.444 147.049 550.289 146.402C550.134 145.746 549.893 145.172 549.564 144.68C549.245 144.178 548.835 143.786 548.334 143.504C547.833 143.212 547.236 143.066 546.543 143.066C545.905 143.066 545.349 143.176 544.875 143.395C544.41 143.613 544.014 143.91 543.686 144.283C543.357 144.648 543.089 145.067 542.879 145.541C542.678 146.006 542.528 146.489 542.428 146.99V150.531C542.61 151.169 542.865 151.771 543.193 152.336C543.521 152.892 543.959 153.343 544.506 153.689C545.053 154.027 545.741 154.195 546.57 154.195C547.254 154.195 547.842 154.054 548.334 153.771C548.835 153.48 549.245 153.083 549.564 152.582C549.893 152.081 550.134 151.507 550.289 150.859C550.444 150.203 550.521 149.506 550.521 148.768ZM562.43 156.273C561.4 156.273 560.465 156.1 559.627 155.754C558.798 155.398 558.082 154.902 557.48 154.264C556.888 153.626 556.432 152.869 556.113 151.994C555.794 151.119 555.635 150.162 555.635 149.123V148.549C555.635 147.346 555.812 146.275 556.168 145.336C556.523 144.388 557.007 143.586 557.617 142.93C558.228 142.273 558.921 141.777 559.695 141.439C560.47 141.102 561.272 140.934 562.102 140.934C563.159 140.934 564.07 141.116 564.836 141.48C565.611 141.845 566.244 142.355 566.736 143.012C567.229 143.659 567.593 144.424 567.83 145.309C568.067 146.184 568.186 147.141 568.186 148.18V149.314H557.139V147.25H565.656V147.059C565.62 146.402 565.483 145.764 565.246 145.145C565.018 144.525 564.654 144.014 564.152 143.613C563.651 143.212 562.967 143.012 562.102 143.012C561.527 143.012 560.999 143.135 560.516 143.381C560.033 143.618 559.618 143.973 559.271 144.447C558.925 144.921 558.656 145.5 558.465 146.184C558.273 146.867 558.178 147.656 558.178 148.549V149.123C558.178 149.825 558.273 150.486 558.465 151.105C558.665 151.716 558.952 152.254 559.326 152.719C559.709 153.184 560.169 153.548 560.707 153.812C561.254 154.077 561.874 154.209 562.566 154.209C563.46 154.209 564.216 154.027 564.836 153.662C565.456 153.298 565.998 152.81 566.463 152.199L567.994 153.416C567.675 153.899 567.27 154.359 566.777 154.797C566.285 155.234 565.679 155.59 564.959 155.863C564.248 156.137 563.405 156.273 562.43 156.273ZM573.668 143.531V156H571.139V141.207H573.6L573.668 143.531ZM578.289 141.125L578.275 143.477C578.066 143.431 577.865 143.404 577.674 143.395C577.492 143.376 577.282 143.367 577.045 143.367C576.462 143.367 575.947 143.458 575.5 143.641C575.053 143.823 574.675 144.078 574.365 144.406C574.055 144.734 573.809 145.126 573.627 145.582C573.454 146.029 573.34 146.521 573.285 147.059L572.574 147.469C572.574 146.576 572.661 145.737 572.834 144.953C573.016 144.169 573.294 143.477 573.668 142.875C574.042 142.264 574.516 141.79 575.09 141.453C575.673 141.107 576.366 140.934 577.168 140.934C577.35 140.934 577.56 140.956 577.797 141.002C578.034 141.038 578.198 141.079 578.289 141.125ZM587.504 141.207V143.148H579.506V141.207H587.504ZM582.213 137.611H584.742V152.336C584.742 152.837 584.82 153.215 584.975 153.471C585.13 153.726 585.33 153.895 585.576 153.977C585.822 154.059 586.087 154.1 586.369 154.1C586.579 154.1 586.798 154.081 587.025 154.045C587.262 153.999 587.44 153.963 587.559 153.936L587.572 156C587.372 156.064 587.107 156.123 586.779 156.178C586.46 156.242 586.073 156.273 585.617 156.273C584.997 156.273 584.428 156.15 583.908 155.904C583.389 155.658 582.974 155.248 582.664 154.674C582.363 154.09 582.213 153.307 582.213 152.322V137.611ZM593.219 141.207V156H590.676V141.207H593.219ZM590.484 137.283C590.484 136.873 590.607 136.527 590.854 136.244C591.109 135.962 591.482 135.82 591.975 135.82C592.458 135.82 592.827 135.962 593.082 136.244C593.346 136.527 593.479 136.873 593.479 137.283C593.479 137.675 593.346 138.012 593.082 138.295C592.827 138.568 592.458 138.705 591.975 138.705C591.482 138.705 591.109 138.568 590.854 138.295C590.607 138.012 590.484 137.675 590.484 137.283ZM603.418 156.273C602.388 156.273 601.454 156.1 600.615 155.754C599.786 155.398 599.07 154.902 598.469 154.264C597.876 153.626 597.421 152.869 597.102 151.994C596.783 151.119 596.623 150.162 596.623 149.123V148.549C596.623 147.346 596.801 146.275 597.156 145.336C597.512 144.388 597.995 143.586 598.605 142.93C599.216 142.273 599.909 141.777 600.684 141.439C601.458 141.102 602.26 140.934 603.09 140.934C604.147 140.934 605.059 141.116 605.824 141.48C606.599 141.845 607.232 142.355 607.725 143.012C608.217 143.659 608.581 144.424 608.818 145.309C609.055 146.184 609.174 147.141 609.174 148.18V149.314H598.127V147.25H606.645V147.059C606.608 146.402 606.471 145.764 606.234 145.145C606.007 144.525 605.642 144.014 605.141 143.613C604.639 143.212 603.956 143.012 603.09 143.012C602.516 143.012 601.987 143.135 601.504 143.381C601.021 143.618 600.606 143.973 600.26 144.447C599.913 144.921 599.645 145.5 599.453 146.184C599.262 146.867 599.166 147.656 599.166 148.549V149.123C599.166 149.825 599.262 150.486 599.453 151.105C599.654 151.716 599.941 152.254 600.314 152.719C600.697 153.184 601.158 153.548 601.695 153.812C602.242 154.077 602.862 154.209 603.555 154.209C604.448 154.209 605.204 154.027 605.824 153.662C606.444 153.298 606.986 152.81 607.451 152.199L608.982 153.416C608.663 153.899 608.258 154.359 607.766 154.797C607.273 155.234 606.667 155.59 605.947 155.863C605.236 156.137 604.393 156.273 603.418 156.273ZM620.74 152.076C620.74 151.712 620.658 151.374 620.494 151.064C620.339 150.745 620.016 150.458 619.523 150.203C619.04 149.939 618.311 149.711 617.336 149.52C616.516 149.346 615.773 149.141 615.107 148.904C614.451 148.667 613.891 148.38 613.426 148.043C612.97 147.706 612.619 147.309 612.373 146.854C612.127 146.398 612.004 145.865 612.004 145.254C612.004 144.671 612.132 144.119 612.387 143.6C612.651 143.08 613.02 142.62 613.494 142.219C613.977 141.818 614.556 141.503 615.23 141.275C615.905 141.048 616.657 140.934 617.486 140.934C618.671 140.934 619.683 141.143 620.521 141.562C621.36 141.982 622.003 142.542 622.449 143.244C622.896 143.937 623.119 144.707 623.119 145.555H620.59C620.59 145.145 620.467 144.748 620.221 144.365C619.984 143.973 619.633 143.65 619.168 143.395C618.712 143.139 618.152 143.012 617.486 143.012C616.785 143.012 616.215 143.121 615.777 143.34C615.349 143.549 615.035 143.818 614.834 144.146C614.643 144.475 614.547 144.821 614.547 145.186C614.547 145.459 614.592 145.705 614.684 145.924C614.784 146.133 614.957 146.329 615.203 146.512C615.449 146.685 615.796 146.849 616.242 147.004C616.689 147.159 617.258 147.314 617.951 147.469C619.163 147.742 620.161 148.07 620.945 148.453C621.729 148.836 622.312 149.305 622.695 149.861C623.078 150.417 623.27 151.092 623.27 151.885C623.27 152.532 623.133 153.124 622.859 153.662C622.595 154.2 622.208 154.665 621.697 155.057C621.196 155.439 620.594 155.74 619.893 155.959C619.2 156.169 618.421 156.273 617.555 156.273C616.251 156.273 615.148 156.041 614.246 155.576C613.344 155.111 612.66 154.51 612.195 153.771C611.73 153.033 611.498 152.254 611.498 151.434H614.041C614.077 152.126 614.278 152.678 614.643 153.088C615.007 153.489 615.454 153.776 615.982 153.949C616.511 154.113 617.035 154.195 617.555 154.195C618.247 154.195 618.826 154.104 619.291 153.922C619.765 153.74 620.125 153.489 620.371 153.17C620.617 152.851 620.74 152.486 620.74 152.076ZM637.283 153.375L641.084 141.207H642.752L642.424 143.627L638.555 156H636.928L637.283 153.375ZM634.727 141.207L637.967 153.512L638.199 156H636.49L632.197 141.207H634.727ZM646.389 153.416L649.479 141.207H651.994L647.701 156H646.006L646.389 153.416ZM643.121 141.207L646.84 153.17L647.264 156H645.65L641.672 143.6L641.344 141.207H643.121ZM657.34 141.207V156H654.797V141.207H657.34ZM654.605 137.283C654.605 136.873 654.729 136.527 654.975 136.244C655.23 135.962 655.604 135.82 656.096 135.82C656.579 135.82 656.948 135.962 657.203 136.244C657.467 136.527 657.6 136.873 657.6 137.283C657.6 137.675 657.467 138.012 657.203 138.295C656.948 138.568 656.579 138.705 656.096 138.705C655.604 138.705 655.23 138.568 654.975 138.295C654.729 138.012 654.605 137.675 654.605 137.283ZM667.594 141.207V143.148H659.596V141.207H667.594ZM662.303 137.611H664.832V152.336C664.832 152.837 664.91 153.215 665.064 153.471C665.219 153.726 665.42 153.895 665.666 153.977C665.912 154.059 666.176 154.1 666.459 154.1C666.669 154.1 666.887 154.081 667.115 154.045C667.352 153.999 667.53 153.963 667.648 153.936L667.662 156C667.462 156.064 667.197 156.123 666.869 156.178C666.55 156.242 666.163 156.273 665.707 156.273C665.087 156.273 664.518 156.15 663.998 155.904C663.479 155.658 663.064 155.248 662.754 154.674C662.453 154.09 662.303 153.307 662.303 152.322V137.611ZM673.09 135V156H670.561V135H673.09ZM672.488 148.043L671.436 148.002C671.445 146.99 671.595 146.056 671.887 145.199C672.178 144.333 672.589 143.581 673.117 142.943C673.646 142.305 674.275 141.813 675.004 141.467C675.742 141.111 676.558 140.934 677.451 140.934C678.18 140.934 678.837 141.034 679.42 141.234C680.003 141.426 680.5 141.736 680.91 142.164C681.329 142.592 681.648 143.148 681.867 143.832C682.086 144.507 682.195 145.331 682.195 146.307V156H679.652V146.279C679.652 145.505 679.538 144.885 679.311 144.42C679.083 143.946 678.75 143.604 678.312 143.395C677.875 143.176 677.337 143.066 676.699 143.066C676.07 143.066 675.496 143.199 674.977 143.463C674.466 143.727 674.024 144.092 673.65 144.557C673.286 145.021 672.999 145.555 672.789 146.156C672.589 146.749 672.488 147.378 672.488 148.043ZM701.541 152.076C701.541 151.712 701.459 151.374 701.295 151.064C701.14 150.745 700.816 150.458 700.324 150.203C699.841 149.939 699.112 149.711 698.137 149.52C697.316 149.346 696.574 149.141 695.908 148.904C695.252 148.667 694.691 148.38 694.227 148.043C693.771 147.706 693.42 147.309 693.174 146.854C692.928 146.398 692.805 145.865 692.805 145.254C692.805 144.671 692.932 144.119 693.188 143.6C693.452 143.08 693.821 142.62 694.295 142.219C694.778 141.818 695.357 141.503 696.031 141.275C696.706 141.048 697.458 140.934 698.287 140.934C699.472 140.934 700.484 141.143 701.322 141.562C702.161 141.982 702.803 142.542 703.25 143.244C703.697 143.937 703.92 144.707 703.92 145.555H701.391C701.391 145.145 701.268 144.748 701.021 144.365C700.785 143.973 700.434 143.65 699.969 143.395C699.513 143.139 698.952 143.012 698.287 143.012C697.585 143.012 697.016 143.121 696.578 143.34C696.15 143.549 695.835 143.818 695.635 144.146C695.443 144.475 695.348 144.821 695.348 145.186C695.348 145.459 695.393 145.705 695.484 145.924C695.585 146.133 695.758 146.329 696.004 146.512C696.25 146.685 696.596 146.849 697.043 147.004C697.49 147.159 698.059 147.314 698.752 147.469C699.964 147.742 700.962 148.07 701.746 148.453C702.53 148.836 703.113 149.305 703.496 149.861C703.879 150.417 704.07 151.092 704.07 151.885C704.07 152.532 703.934 153.124 703.66 153.662C703.396 154.2 703.008 154.665 702.498 155.057C701.997 155.439 701.395 155.74 700.693 155.959C700.001 156.169 699.221 156.273 698.355 156.273C697.052 156.273 695.949 156.041 695.047 155.576C694.145 155.111 693.461 154.51 692.996 153.771C692.531 153.033 692.299 152.254 692.299 151.434H694.842C694.878 152.126 695.079 152.678 695.443 153.088C695.808 153.489 696.255 153.776 696.783 153.949C697.312 154.113 697.836 154.195 698.355 154.195C699.048 154.195 699.627 154.104 700.092 153.922C700.566 153.74 700.926 153.489 701.172 153.17C701.418 152.851 701.541 152.486 701.541 152.076ZM713.586 141.207V143.148H705.588V141.207H713.586ZM708.295 137.611H710.824V152.336C710.824 152.837 710.902 153.215 711.057 153.471C711.212 153.726 711.412 153.895 711.658 153.977C711.904 154.059 712.169 154.1 712.451 154.1C712.661 154.1 712.88 154.081 713.107 154.045C713.344 153.999 713.522 153.963 713.641 153.936L713.654 156C713.454 156.064 713.189 156.123 712.861 156.178C712.542 156.242 712.155 156.273 711.699 156.273C711.079 156.273 710.51 156.15 709.99 155.904C709.471 155.658 709.056 155.248 708.746 154.674C708.445 154.09 708.295 153.307 708.295 152.322V137.611ZM725.275 153.471V145.855C725.275 145.272 725.157 144.766 724.92 144.338C724.692 143.9 724.346 143.563 723.881 143.326C723.416 143.089 722.842 142.971 722.158 142.971C721.52 142.971 720.96 143.08 720.477 143.299C720.003 143.518 719.629 143.805 719.355 144.16C719.091 144.516 718.959 144.898 718.959 145.309H716.43C716.43 144.78 716.566 144.256 716.84 143.736C717.113 143.217 717.505 142.747 718.016 142.328C718.535 141.9 719.155 141.562 719.875 141.316C720.604 141.061 721.415 140.934 722.309 140.934C723.384 140.934 724.332 141.116 725.152 141.48C725.982 141.845 726.629 142.396 727.094 143.135C727.568 143.864 727.805 144.78 727.805 145.883V152.773C727.805 153.266 727.846 153.79 727.928 154.346C728.019 154.902 728.151 155.38 728.324 155.781V156H725.686C725.558 155.708 725.458 155.321 725.385 154.838C725.312 154.346 725.275 153.89 725.275 153.471ZM725.713 147.031L725.74 148.809H723.184C722.464 148.809 721.821 148.868 721.256 148.986C720.691 149.096 720.217 149.264 719.834 149.492C719.451 149.72 719.16 150.007 718.959 150.354C718.758 150.691 718.658 151.087 718.658 151.543C718.658 152.008 718.763 152.432 718.973 152.814C719.182 153.197 719.497 153.503 719.916 153.73C720.344 153.949 720.868 154.059 721.488 154.059C722.263 154.059 722.947 153.895 723.539 153.566C724.132 153.238 724.601 152.837 724.947 152.363C725.303 151.889 725.494 151.429 725.521 150.982L726.602 152.199C726.538 152.582 726.365 153.006 726.082 153.471C725.799 153.936 725.421 154.382 724.947 154.811C724.482 155.23 723.926 155.581 723.279 155.863C722.641 156.137 721.921 156.273 721.119 156.273C720.117 156.273 719.237 156.077 718.48 155.686C717.733 155.294 717.15 154.77 716.73 154.113C716.32 153.448 716.115 152.705 716.115 151.885C716.115 151.092 716.27 150.395 716.58 149.793C716.89 149.182 717.337 148.676 717.92 148.275C718.503 147.865 719.205 147.555 720.025 147.346C720.846 147.136 721.762 147.031 722.773 147.031H725.713ZM734.312 144.365V156H731.783V141.207H734.176L734.312 144.365ZM733.711 148.043L732.658 148.002C732.667 146.99 732.818 146.056 733.109 145.199C733.401 144.333 733.811 143.581 734.34 142.943C734.868 142.305 735.497 141.813 736.227 141.467C736.965 141.111 737.781 140.934 738.674 140.934C739.403 140.934 740.059 141.034 740.643 141.234C741.226 141.426 741.723 141.736 742.133 142.164C742.552 142.592 742.871 143.148 743.09 143.832C743.309 144.507 743.418 145.331 743.418 146.307V156H740.875V146.279C740.875 145.505 740.761 144.885 740.533 144.42C740.305 143.946 739.973 143.604 739.535 143.395C739.098 143.176 738.56 143.066 737.922 143.066C737.293 143.066 736.719 143.199 736.199 143.463C735.689 143.727 735.247 144.092 734.873 144.557C734.508 145.021 734.221 145.555 734.012 146.156C733.811 146.749 733.711 147.378 733.711 148.043ZM756.584 153.129V135H759.127V156H756.803L756.584 153.129ZM746.631 148.768V148.48C746.631 147.35 746.768 146.325 747.041 145.404C747.324 144.475 747.72 143.677 748.23 143.012C748.75 142.346 749.365 141.836 750.076 141.48C750.796 141.116 751.598 140.934 752.482 140.934C753.412 140.934 754.223 141.098 754.916 141.426C755.618 141.745 756.21 142.214 756.693 142.834C757.186 143.445 757.573 144.183 757.855 145.049C758.138 145.915 758.334 146.895 758.443 147.988V149.246C758.343 150.331 758.147 151.306 757.855 152.172C757.573 153.038 757.186 153.776 756.693 154.387C756.21 154.997 755.618 155.467 754.916 155.795C754.214 156.114 753.394 156.273 752.455 156.273C751.589 156.273 750.796 156.087 750.076 155.713C749.365 155.339 748.75 154.815 748.23 154.141C747.72 153.466 747.324 152.673 747.041 151.762C746.768 150.841 746.631 149.843 746.631 148.768ZM749.174 148.48V148.768C749.174 149.506 749.247 150.199 749.393 150.846C749.548 151.493 749.785 152.062 750.104 152.555C750.423 153.047 750.828 153.434 751.32 153.717C751.812 153.99 752.4 154.127 753.084 154.127C753.923 154.127 754.611 153.949 755.148 153.594C755.695 153.238 756.133 152.769 756.461 152.186C756.789 151.602 757.044 150.969 757.227 150.285V146.99C757.117 146.489 756.958 146.006 756.748 145.541C756.548 145.067 756.283 144.648 755.955 144.283C755.636 143.91 755.24 143.613 754.766 143.395C754.301 143.176 753.749 143.066 753.111 143.066C752.419 143.066 751.822 143.212 751.32 143.504C750.828 143.786 750.423 144.178 750.104 144.68C749.785 145.172 749.548 145.746 749.393 146.402C749.247 147.049 749.174 147.742 749.174 148.48ZM771.787 153.471V145.855C771.787 145.272 771.669 144.766 771.432 144.338C771.204 143.9 770.857 143.563 770.393 143.326C769.928 143.089 769.354 142.971 768.67 142.971C768.032 142.971 767.471 143.08 766.988 143.299C766.514 143.518 766.141 143.805 765.867 144.16C765.603 144.516 765.471 144.898 765.471 145.309H762.941C762.941 144.78 763.078 144.256 763.352 143.736C763.625 143.217 764.017 142.747 764.527 142.328C765.047 141.9 765.667 141.562 766.387 141.316C767.116 141.061 767.927 140.934 768.82 140.934C769.896 140.934 770.844 141.116 771.664 141.48C772.493 141.845 773.141 142.396 773.605 143.135C774.079 143.864 774.316 144.78 774.316 145.883V152.773C774.316 153.266 774.357 153.79 774.439 154.346C774.531 154.902 774.663 155.38 774.836 155.781V156H772.197C772.07 155.708 771.969 155.321 771.896 154.838C771.824 154.346 771.787 153.89 771.787 153.471ZM772.225 147.031L772.252 148.809H769.695C768.975 148.809 768.333 148.868 767.768 148.986C767.202 149.096 766.729 149.264 766.346 149.492C765.963 149.72 765.671 150.007 765.471 150.354C765.27 150.691 765.17 151.087 765.17 151.543C765.17 152.008 765.275 152.432 765.484 152.814C765.694 153.197 766.008 153.503 766.428 153.73C766.856 153.949 767.38 154.059 768 154.059C768.775 154.059 769.458 153.895 770.051 153.566C770.643 153.238 771.113 152.837 771.459 152.363C771.814 151.889 772.006 151.429 772.033 150.982L773.113 152.199C773.049 152.582 772.876 153.006 772.594 153.471C772.311 153.936 771.933 154.382 771.459 154.811C770.994 155.23 770.438 155.581 769.791 155.863C769.153 156.137 768.433 156.273 767.631 156.273C766.628 156.273 765.749 156.077 764.992 155.686C764.245 155.294 763.661 154.77 763.242 154.113C762.832 153.448 762.627 152.705 762.627 151.885C762.627 151.092 762.782 150.395 763.092 149.793C763.402 149.182 763.848 148.676 764.432 148.275C765.015 147.865 765.717 147.555 766.537 147.346C767.357 147.136 768.273 147.031 769.285 147.031H772.225ZM780.824 143.531V156H778.295V141.207H780.756L780.824 143.531ZM785.445 141.125L785.432 143.477C785.222 143.431 785.021 143.404 784.83 143.395C784.648 143.376 784.438 143.367 784.201 143.367C783.618 143.367 783.103 143.458 782.656 143.641C782.21 143.823 781.831 144.078 781.521 144.406C781.212 144.734 780.965 145.126 780.783 145.582C780.61 146.029 780.496 146.521 780.441 147.059L779.73 147.469C779.73 146.576 779.817 145.737 779.99 144.953C780.173 144.169 780.451 143.477 780.824 142.875C781.198 142.264 781.672 141.79 782.246 141.453C782.829 141.107 783.522 140.934 784.324 140.934C784.507 140.934 784.716 140.956 784.953 141.002C785.19 141.038 785.354 141.079 785.445 141.125ZM796.834 153.129V135H799.377V156H797.053L796.834 153.129ZM786.881 148.768V148.48C786.881 147.35 787.018 146.325 787.291 145.404C787.574 144.475 787.97 143.677 788.48 143.012C789 142.346 789.615 141.836 790.326 141.48C791.046 141.116 791.848 140.934 792.732 140.934C793.662 140.934 794.473 141.098 795.166 141.426C795.868 141.745 796.46 142.214 796.943 142.834C797.436 143.445 797.823 144.183 798.105 145.049C798.388 145.915 798.584 146.895 798.693 147.988V149.246C798.593 150.331 798.397 151.306 798.105 152.172C797.823 153.038 797.436 153.776 796.943 154.387C796.46 154.997 795.868 155.467 795.166 155.795C794.464 156.114 793.644 156.273 792.705 156.273C791.839 156.273 791.046 156.087 790.326 155.713C789.615 155.339 789 154.815 788.48 154.141C787.97 153.466 787.574 152.673 787.291 151.762C787.018 150.841 786.881 149.843 786.881 148.768ZM789.424 148.48V148.768C789.424 149.506 789.497 150.199 789.643 150.846C789.798 151.493 790.035 152.062 790.354 152.555C790.673 153.047 791.078 153.434 791.57 153.717C792.062 153.99 792.65 154.127 793.334 154.127C794.173 154.127 794.861 153.949 795.398 153.594C795.945 153.238 796.383 152.769 796.711 152.186C797.039 151.602 797.294 150.969 797.477 150.285V146.99C797.367 146.489 797.208 146.006 796.998 145.541C796.798 145.067 796.533 144.648 796.205 144.283C795.886 143.91 795.49 143.613 795.016 143.395C794.551 143.176 793.999 143.066 793.361 143.066C792.669 143.066 792.072 143.212 791.57 143.504C791.078 143.786 790.673 144.178 790.354 144.68C790.035 145.172 789.798 145.746 789.643 146.402C789.497 147.049 789.424 147.742 789.424 148.48ZM812.789 144.051V161.688H810.246V141.207H812.57L812.789 144.051ZM822.756 148.48V148.768C822.756 149.843 822.628 150.841 822.373 151.762C822.118 152.673 821.744 153.466 821.252 154.141C820.769 154.815 820.172 155.339 819.461 155.713C818.75 156.087 817.934 156.273 817.014 156.273C816.075 156.273 815.245 156.118 814.525 155.809C813.805 155.499 813.195 155.048 812.693 154.455C812.192 153.863 811.791 153.152 811.49 152.322C811.199 151.493 810.998 150.559 810.889 149.52V147.988C810.998 146.895 811.203 145.915 811.504 145.049C811.805 144.183 812.201 143.445 812.693 142.834C813.195 142.214 813.801 141.745 814.512 141.426C815.223 141.098 816.043 140.934 816.973 140.934C817.902 140.934 818.727 141.116 819.447 141.48C820.167 141.836 820.773 142.346 821.266 143.012C821.758 143.677 822.127 144.475 822.373 145.404C822.628 146.325 822.756 147.35 822.756 148.48ZM820.213 148.768V148.48C820.213 147.742 820.135 147.049 819.98 146.402C819.826 145.746 819.584 145.172 819.256 144.68C818.937 144.178 818.527 143.786 818.025 143.504C817.524 143.212 816.927 143.066 816.234 143.066C815.596 143.066 815.04 143.176 814.566 143.395C814.102 143.613 813.705 143.91 813.377 144.283C813.049 144.648 812.78 145.067 812.57 145.541C812.37 146.006 812.219 146.489 812.119 146.99V150.531C812.301 151.169 812.557 151.771 812.885 152.336C813.213 152.892 813.65 153.343 814.197 153.689C814.744 154.027 815.432 154.195 816.262 154.195C816.945 154.195 817.533 154.054 818.025 153.771C818.527 153.48 818.937 153.083 819.256 152.582C819.584 152.081 819.826 151.507 819.98 150.859C820.135 150.203 820.213 149.506 820.213 148.768ZM834.705 153.471V145.855C834.705 145.272 834.587 144.766 834.35 144.338C834.122 143.9 833.775 143.563 833.311 143.326C832.846 143.089 832.271 142.971 831.588 142.971C830.95 142.971 830.389 143.08 829.906 143.299C829.432 143.518 829.059 143.805 828.785 144.16C828.521 144.516 828.389 144.898 828.389 145.309H825.859C825.859 144.78 825.996 144.256 826.27 143.736C826.543 143.217 826.935 142.747 827.445 142.328C827.965 141.9 828.585 141.562 829.305 141.316C830.034 141.061 830.845 140.934 831.738 140.934C832.814 140.934 833.762 141.116 834.582 141.48C835.411 141.845 836.059 142.396 836.523 143.135C836.997 143.864 837.234 144.78 837.234 145.883V152.773C837.234 153.266 837.275 153.79 837.357 154.346C837.449 154.902 837.581 155.38 837.754 155.781V156H835.115C834.988 155.708 834.887 155.321 834.814 154.838C834.742 154.346 834.705 153.89 834.705 153.471ZM835.143 147.031L835.17 148.809H832.613C831.893 148.809 831.251 148.868 830.686 148.986C830.12 149.096 829.646 149.264 829.264 149.492C828.881 149.72 828.589 150.007 828.389 150.354C828.188 150.691 828.088 151.087 828.088 151.543C828.088 152.008 828.193 152.432 828.402 152.814C828.612 153.197 828.926 153.503 829.346 153.73C829.774 153.949 830.298 154.059 830.918 154.059C831.693 154.059 832.376 153.895 832.969 153.566C833.561 153.238 834.031 152.837 834.377 152.363C834.732 151.889 834.924 151.429 834.951 150.982L836.031 152.199C835.967 152.582 835.794 153.006 835.512 153.471C835.229 153.936 834.851 154.382 834.377 154.811C833.912 155.23 833.356 155.581 832.709 155.863C832.071 156.137 831.351 156.273 830.549 156.273C829.546 156.273 828.667 156.077 827.91 155.686C827.163 155.294 826.579 154.77 826.16 154.113C825.75 153.448 825.545 152.705 825.545 151.885C825.545 151.092 825.7 150.395 826.01 149.793C826.32 149.182 826.766 148.676 827.35 148.275C827.933 147.865 828.635 147.555 829.455 147.346C830.275 147.136 831.191 147.031 832.203 147.031H835.143ZM847.406 141.207V143.148H839.408V141.207H847.406ZM842.115 137.611H844.645V152.336C844.645 152.837 844.722 153.215 844.877 153.471C845.032 153.726 845.232 153.895 845.479 153.977C845.725 154.059 845.989 154.1 846.271 154.1C846.481 154.1 846.7 154.081 846.928 154.045C847.165 153.999 847.342 153.963 847.461 153.936L847.475 156C847.274 156.064 847.01 156.123 846.682 156.178C846.363 156.242 845.975 156.273 845.52 156.273C844.9 156.273 844.33 156.15 843.811 155.904C843.291 155.658 842.876 155.248 842.566 154.674C842.266 154.09 842.115 153.307 842.115 152.322V137.611ZM852.902 135V156H850.373V135H852.902ZM852.301 148.043L851.248 148.002C851.257 146.99 851.408 146.056 851.699 145.199C851.991 144.333 852.401 143.581 852.93 142.943C853.458 142.305 854.087 141.813 854.816 141.467C855.555 141.111 856.37 140.934 857.264 140.934C857.993 140.934 858.649 141.034 859.232 141.234C859.816 141.426 860.312 141.736 860.723 142.164C861.142 142.592 861.461 143.148 861.68 143.832C861.898 144.507 862.008 145.331 862.008 146.307V156H859.465V146.279C859.465 145.505 859.351 144.885 859.123 144.42C858.895 143.946 858.562 143.604 858.125 143.395C857.688 143.176 857.15 143.066 856.512 143.066C855.883 143.066 855.309 143.199 854.789 143.463C854.279 143.727 853.837 144.092 853.463 144.557C853.098 145.021 852.811 145.555 852.602 146.156C852.401 146.749 852.301 147.378 852.301 148.043Z" fill="#171717"/>
<path d="M288.174 69.9609V71.6748C288.174 74.5928 287.77 77.2119 286.961 79.5322C286.17 81.8525 285.036 83.8301 283.56 85.4648C282.101 87.0996 280.36 88.3564 278.339 89.2354C276.335 90.0967 274.111 90.5273 271.668 90.5273C269.225 90.5273 266.992 90.0967 264.971 89.2354C262.949 88.3564 261.191 87.0996 259.697 85.4648C258.221 83.8301 257.078 81.8525 256.27 79.5322C255.461 77.2119 255.057 74.5928 255.057 71.6748V69.9609C255.057 67.043 255.461 64.4238 256.27 62.1035C257.078 59.7656 258.212 57.7793 259.671 56.1445C261.147 54.5098 262.896 53.2617 264.918 52.4004C266.939 51.5215 269.172 51.082 271.615 51.082C274.059 51.082 276.291 51.5215 278.312 52.4004C280.334 53.2617 282.074 54.5098 283.533 56.1445C285.01 57.7793 286.152 59.7656 286.961 62.1035C287.77 64.4238 288.174 67.043 288.174 69.9609ZM279.499 71.6748V69.9082C279.499 67.957 279.323 66.2344 278.972 64.7402C278.62 63.2285 278.11 61.9629 277.442 60.9434C276.774 59.9238 275.948 59.1592 274.964 58.6494C273.979 58.1221 272.863 57.8584 271.615 57.8584C270.314 57.8584 269.181 58.1221 268.214 58.6494C267.247 59.1592 266.43 59.9238 265.762 60.9434C265.111 61.9629 264.61 63.2285 264.259 64.7402C263.925 66.2344 263.758 67.957 263.758 69.9082V71.6748C263.758 73.6084 263.925 75.3311 264.259 76.8428C264.61 78.3369 265.12 79.6025 265.788 80.6396C266.456 81.6768 267.273 82.459 268.24 82.9863C269.225 83.5137 270.367 83.7773 271.668 83.7773C272.916 83.7773 274.023 83.5137 274.99 82.9863C275.975 82.459 276.801 81.6768 277.469 80.6396C278.137 79.6025 278.638 78.3369 278.972 76.8428C279.323 75.3311 279.499 73.6084 279.499 71.6748ZM293.052 49.5H301.278V83.2236L300.435 90H293.052V49.5ZM319.076 75.4189V75.9727C319.076 78.1348 318.848 80.1035 318.391 81.8789C317.951 83.6543 317.274 85.1924 316.36 86.4932C315.446 87.7764 314.295 88.7695 312.906 89.4727C311.518 90.1758 309.883 90.5273 308.002 90.5273C306.262 90.5273 304.768 90.167 303.52 89.4463C302.271 88.708 301.226 87.6885 300.382 86.3877C299.538 85.0869 298.853 83.5664 298.325 81.8262C297.815 80.0859 297.42 78.2139 297.139 76.21V75.2607C297.42 73.2568 297.815 71.3848 298.325 69.6445C298.853 67.9043 299.538 66.3838 300.382 65.083C301.226 63.7822 302.263 62.7715 303.493 62.0508C304.741 61.3125 306.227 60.9434 307.949 60.9434C309.848 60.9434 311.491 61.3037 312.88 62.0244C314.286 62.7451 315.446 63.7559 316.36 65.0566C317.274 66.3398 317.951 67.8691 318.391 69.6445C318.848 71.4023 319.076 73.3271 319.076 75.4189ZM310.85 75.9727V75.4189C310.85 74.3291 310.771 73.3008 310.612 72.334C310.472 71.3672 310.217 70.5146 309.848 69.7764C309.496 69.0205 308.995 68.4316 308.345 68.0098C307.712 67.5703 306.895 67.3506 305.893 67.3506C304.908 67.3506 304.073 67.5176 303.388 67.8516C302.702 68.1855 302.148 68.6602 301.727 69.2754C301.305 69.873 300.997 70.6025 300.804 71.4639C300.61 72.3252 300.505 73.2832 300.487 74.3379V77.1328C300.505 78.5391 300.689 79.7695 301.041 80.8242C301.393 81.8789 301.964 82.6963 302.755 83.2764C303.546 83.8389 304.609 84.1201 305.945 84.1201C306.965 84.1201 307.791 83.9268 308.424 83.54C309.074 83.1357 309.566 82.5732 309.9 81.8525C310.252 81.1318 310.498 80.2705 310.639 79.2686C310.779 78.2666 310.85 77.168 310.85 75.9727ZM323.98 61.4707H332.26V91.3184C332.26 93.5156 331.847 95.3701 331.021 96.8818C330.194 98.4111 328.999 99.5625 327.435 100.336C325.888 101.127 324.033 101.522 321.871 101.522C321.168 101.522 320.5 101.487 319.867 101.417C319.234 101.364 318.558 101.25 317.837 101.074V94.7988C318.276 94.8691 318.698 94.9219 319.103 94.957C319.489 95.0098 319.902 95.0361 320.342 95.0361C321.133 95.0361 321.792 94.9043 322.319 94.6406C322.864 94.377 323.277 93.9639 323.559 93.4014C323.84 92.8564 323.98 92.1621 323.98 91.3184V61.4707ZM323.348 54.0879C323.348 52.8926 323.77 51.917 324.613 51.1611C325.457 50.3877 326.573 50.001 327.962 50.001C329.333 50.001 330.44 50.3877 331.284 51.1611C332.128 51.917 332.55 52.8926 332.55 54.0879C332.55 55.2656 332.128 56.2412 331.284 57.0146C330.44 57.7705 329.333 58.1484 327.962 58.1484C326.573 58.1484 325.457 57.7705 324.613 57.0146C323.77 56.2412 323.348 55.2656 323.348 54.0879ZM351.244 90.5273C348.977 90.5273 346.946 90.167 345.153 89.4463C343.36 88.7256 341.84 87.7324 340.592 86.4668C339.361 85.1836 338.421 83.707 337.771 82.0371C337.12 80.3672 336.795 78.583 336.795 76.6846V75.6826C336.795 73.5557 337.094 71.5957 337.691 69.8027C338.289 68.0098 339.159 66.4541 340.302 65.1357C341.462 63.7998 342.886 62.7715 344.573 62.0508C346.261 61.3125 348.186 60.9434 350.348 60.9434C352.369 60.9434 354.171 61.2773 355.753 61.9453C357.335 62.5957 358.671 63.5361 359.761 64.7666C360.851 65.9795 361.677 67.4473 362.239 69.1699C362.819 70.875 363.109 72.791 363.109 74.918V78.293H340.117V72.9932H355.041V72.3604C355.041 71.3584 354.856 70.4795 354.487 69.7236C354.136 68.9678 353.608 68.3877 352.905 67.9834C352.22 67.5615 351.35 67.3506 350.295 67.3506C349.293 67.3506 348.458 67.5615 347.79 67.9834C347.122 68.4053 346.586 69.0029 346.182 69.7764C345.795 70.5322 345.514 71.4199 345.338 72.4395C345.162 73.4414 345.074 74.5225 345.074 75.6826V76.6846C345.074 77.792 345.224 78.8027 345.522 79.7168C345.821 80.6309 346.261 81.4131 346.841 82.0635C347.421 82.7139 348.124 83.2236 348.95 83.5928C349.776 83.9619 350.717 84.1465 351.771 84.1465C353.072 84.1465 354.312 83.9004 355.489 83.4082C356.667 82.8984 357.687 82.1074 358.548 81.0352L362.397 85.4385C361.817 86.2822 361 87.0996 359.945 87.8906C358.908 88.6641 357.66 89.2969 356.201 89.7891C354.742 90.2812 353.09 90.5273 351.244 90.5273ZM379.035 84.1201C379.914 84.1201 380.679 83.9531 381.329 83.6191C381.979 83.2852 382.48 82.8193 382.832 82.2217C383.201 81.6064 383.386 80.8682 383.386 80.0068H391.138C391.138 82.0811 390.602 83.9092 389.529 85.4912C388.475 87.0732 387.051 88.3125 385.258 89.209C383.465 90.0879 381.443 90.5273 379.193 90.5273C376.979 90.5273 375.045 90.167 373.393 89.4463C371.74 88.708 370.36 87.6797 369.253 86.3613C368.146 85.043 367.311 83.5137 366.748 81.7734C366.203 80.0156 365.931 78.1172 365.931 76.0781V75.3926C365.931 73.3711 366.203 71.4814 366.748 69.7236C367.311 67.9658 368.146 66.4277 369.253 65.1094C370.36 63.791 371.731 62.7715 373.366 62.0508C375.019 61.3125 376.952 60.9434 379.167 60.9434C381.505 60.9434 383.57 61.3916 385.363 62.2881C387.174 63.1846 388.589 64.4766 389.608 66.1641C390.628 67.834 391.138 69.8467 391.138 72.2021H383.386C383.386 71.2881 383.219 70.4707 382.885 69.75C382.568 69.0117 382.076 68.4316 381.408 68.0098C380.758 67.5703 379.949 67.3506 378.982 67.3506C377.98 67.3506 377.154 67.5703 376.504 68.0098C375.871 68.4316 375.388 69.0205 375.054 69.7764C374.72 70.5322 374.491 71.3936 374.368 72.3604C374.245 73.3096 374.184 74.3203 374.184 75.3926V76.0781C374.184 77.168 374.245 78.2051 374.368 79.1895C374.491 80.1562 374.72 81.0088 375.054 81.7471C375.405 82.4854 375.897 83.0654 376.53 83.4873C377.163 83.9092 377.998 84.1201 379.035 84.1201ZM409.727 61.4707V67.2451H392.799V61.4707H409.727ZM396.675 54.4043H404.928V81.0615C404.928 81.8525 405.024 82.459 405.218 82.8809C405.411 83.3027 405.728 83.6016 406.167 83.7773C406.606 83.9355 407.169 84.0146 407.854 84.0146C408.347 84.0146 408.769 83.9971 409.12 83.9619C409.472 83.9268 409.797 83.8828 410.096 83.8301V89.7891C409.393 90.0176 408.646 90.1934 407.854 90.3164C407.063 90.457 406.202 90.5273 405.271 90.5273C403.495 90.5273 401.957 90.2373 400.656 89.6572C399.373 89.0771 398.389 88.1631 397.703 86.915C397.018 85.6494 396.675 84.0059 396.675 81.9844V54.4043ZM447.458 79.875C447.458 79.2246 447.361 78.6445 447.168 78.1348C446.975 77.6074 446.623 77.124 446.113 76.6846C445.604 76.2451 444.883 75.8057 443.951 75.3662C443.02 74.9092 441.798 74.4434 440.286 73.9688C438.563 73.4062 436.92 72.7734 435.355 72.0703C433.809 71.3496 432.429 70.5146 431.216 69.5654C430.003 68.6162 429.045 67.5088 428.342 66.2432C427.656 64.9775 427.313 63.501 427.313 61.8135C427.313 60.1787 427.674 58.7021 428.395 57.3838C429.115 56.0654 430.126 54.9404 431.427 54.0088C432.728 53.0596 434.257 52.3389 436.015 51.8467C437.772 51.3369 439.706 51.082 441.815 51.082C444.628 51.082 447.098 51.583 449.225 52.585C451.369 53.5693 453.039 54.958 454.234 56.751C455.43 58.5264 456.027 60.5918 456.027 62.9473H447.484C447.484 61.9102 447.265 60.9961 446.825 60.2051C446.403 59.3965 445.753 58.7637 444.874 58.3066C444.013 57.8496 442.932 57.6211 441.631 57.6211C440.365 57.6211 439.302 57.8145 438.44 58.2012C437.597 58.5703 436.955 59.0801 436.516 59.7305C436.094 60.3809 435.883 61.0928 435.883 61.8662C435.883 62.4814 436.041 63.0439 436.357 63.5537C436.691 64.0459 437.166 64.5117 437.781 64.9512C438.414 65.373 439.188 65.7773 440.102 66.1641C441.016 66.5508 442.062 66.9199 443.239 67.2715C445.296 67.9219 447.115 68.6426 448.697 69.4336C450.297 70.2246 451.642 71.1211 452.731 72.123C453.821 73.125 454.639 74.2588 455.184 75.5244C455.746 76.79 456.027 78.2227 456.027 79.8223C456.027 81.5273 455.693 83.0391 455.025 84.3574C454.375 85.6758 453.426 86.8008 452.178 87.7324C450.947 88.6465 449.471 89.3408 447.748 89.8154C446.025 90.29 444.101 90.5273 441.974 90.5273C440.04 90.5273 438.133 90.2812 436.252 89.7891C434.371 89.2793 432.666 88.5059 431.137 87.4688C429.625 86.4316 428.412 85.1133 427.498 83.5137C426.602 81.8965 426.153 79.9805 426.153 77.7656H434.749C434.749 78.9258 434.916 79.9102 435.25 80.7188C435.584 81.5098 436.059 82.1514 436.674 82.6436C437.307 83.1357 438.071 83.4873 438.968 83.6982C439.864 83.9092 440.866 84.0146 441.974 84.0146C443.257 84.0146 444.294 83.8389 445.085 83.4873C445.894 83.1182 446.491 82.6172 446.878 81.9844C447.265 81.3516 447.458 80.6484 447.458 79.875ZM475.17 61.4707V67.2451H458.242V61.4707H475.17ZM462.118 54.4043H470.371V81.0615C470.371 81.8525 470.468 82.459 470.661 82.8809C470.854 83.3027 471.171 83.6016 471.61 83.7773C472.05 83.9355 472.612 84.0146 473.298 84.0146C473.79 84.0146 474.212 83.9971 474.563 83.9619C474.915 83.9268 475.24 83.8828 475.539 83.8301V89.7891C474.836 90.0176 474.089 90.1934 473.298 90.3164C472.507 90.457 471.646 90.5273 470.714 90.5273C468.938 90.5273 467.4 90.2373 466.1 89.6572C464.816 89.0771 463.832 88.1631 463.146 86.915C462.461 85.6494 462.118 84.0059 462.118 81.9844V54.4043ZM494.233 83.1973V70.9629C494.233 70.1016 494.102 69.3633 493.838 68.748C493.574 68.1328 493.161 67.6494 492.599 67.2979C492.036 66.9463 491.307 66.7705 490.41 66.7705C489.654 66.7705 488.995 66.9023 488.433 67.166C487.888 67.4297 487.466 67.8076 487.167 68.2998C486.886 68.792 486.745 69.3984 486.745 70.1191H478.519C478.519 68.8359 478.809 67.6406 479.389 66.5332C479.969 65.4258 480.795 64.4502 481.867 63.6064C482.957 62.7627 484.258 62.1123 485.77 61.6553C487.281 61.1807 488.978 60.9434 490.858 60.9434C493.091 60.9434 495.077 61.3213 496.817 62.0771C498.575 62.8154 499.964 63.9316 500.983 65.4258C502.003 66.9023 502.513 68.7656 502.513 71.0156V82.96C502.513 84.6826 502.609 86.0361 502.803 87.0205C503.014 87.9873 503.312 88.8311 503.699 89.5518V90H495.394C495.007 89.1738 494.717 88.1543 494.523 86.9414C494.33 85.7109 494.233 84.4629 494.233 83.1973ZM495.262 72.5977L495.314 77.1328H491.228C490.313 77.1328 489.522 77.2471 488.854 77.4756C488.204 77.7041 487.677 78.0205 487.272 78.4248C486.868 78.8115 486.569 79.2686 486.376 79.7959C486.2 80.3057 486.112 80.8682 486.112 81.4834C486.112 82.0635 486.253 82.5908 486.534 83.0654C486.815 83.5225 487.202 83.8828 487.694 84.1465C488.187 84.4102 488.758 84.542 489.408 84.542C490.48 84.542 491.395 84.3311 492.15 83.9092C492.924 83.4873 493.521 82.9775 493.943 82.3799C494.365 81.7646 494.576 81.1934 494.576 80.666L496.554 84.0938C496.237 84.7969 495.851 85.5264 495.394 86.2822C494.937 87.0205 494.356 87.7148 493.653 88.3652C492.95 88.998 492.098 89.5166 491.096 89.9209C490.111 90.3252 488.925 90.5273 487.536 90.5273C485.743 90.5273 484.117 90.167 482.658 89.4463C481.199 88.708 480.03 87.6973 479.151 86.4141C478.29 85.1309 477.859 83.6543 477.859 81.9844C477.859 80.4902 478.132 79.1631 478.677 78.0029C479.222 76.8428 480.039 75.8584 481.129 75.0498C482.236 74.2412 483.625 73.6348 485.295 73.2305C486.965 72.8086 488.916 72.5977 491.148 72.5977H495.262ZM515.986 67.5615V90H507.733V61.4707H515.485L515.986 67.5615ZM514.905 74.7334L512.849 74.7861C512.849 72.6416 513.112 70.7168 513.64 69.0117C514.167 67.3066 514.914 65.8564 515.881 64.6611C516.865 63.4482 518.034 62.5254 519.388 61.8926C520.759 61.2598 522.271 60.9434 523.923 60.9434C525.259 60.9434 526.48 61.1367 527.588 61.5234C528.695 61.9102 529.645 62.5342 530.436 63.3955C531.244 64.2393 531.859 65.3643 532.281 66.7705C532.703 68.1592 532.914 69.873 532.914 71.9121V90H524.635V71.8857C524.635 70.6904 524.468 69.7676 524.134 69.1172C523.8 68.4668 523.308 68.0098 522.657 67.7461C522.024 67.4824 521.251 67.3506 520.337 67.3506C519.37 67.3506 518.544 67.5439 517.858 67.9307C517.173 68.2998 516.61 68.8184 516.171 69.4863C515.731 70.1543 515.406 70.9365 515.195 71.833C515.002 72.7295 514.905 73.6963 514.905 74.7334ZM554.904 83.6191V49.5H563.184V90H555.748L554.904 83.6191ZM537.133 76.0781V75.5244C537.133 73.3623 537.37 71.3936 537.845 69.6182C538.337 67.8252 539.049 66.2871 539.98 65.0039C540.93 63.7031 542.099 62.7012 543.487 61.998C544.876 61.2949 546.467 60.9434 548.26 60.9434C549.912 60.9434 551.354 61.3125 552.584 62.0508C553.814 62.7715 554.86 63.791 555.722 65.1094C556.601 66.4102 557.312 67.9482 557.857 69.7236C558.402 71.4814 558.815 73.3887 559.097 75.4453V76.3945C558.833 78.3633 558.42 80.2002 557.857 81.9053C557.312 83.6104 556.601 85.1133 555.722 86.4141C554.86 87.6973 553.806 88.708 552.558 89.4463C551.327 90.167 549.877 90.5273 548.207 90.5273C546.414 90.5273 544.823 90.167 543.435 89.4463C542.063 88.7256 540.912 87.7148 539.98 86.4141C539.049 85.1133 538.337 83.584 537.845 81.8262C537.37 80.0684 537.133 78.1523 537.133 76.0781ZM545.359 75.5244V76.0781C545.359 77.2031 545.438 78.249 545.597 79.2158C545.772 80.1826 546.054 81.0352 546.44 81.7734C546.827 82.5117 547.337 83.0918 547.97 83.5137C548.603 83.918 549.376 84.1201 550.29 84.1201C551.521 84.1201 552.531 83.8389 553.322 83.2764C554.113 82.6963 554.711 81.8965 555.115 80.877C555.52 79.8574 555.73 78.6709 555.748 77.3174V74.5488C555.748 73.4238 555.634 72.4131 555.405 71.5166C555.177 70.6201 554.834 69.8643 554.377 69.249C553.938 68.6338 553.384 68.168 552.716 67.8516C552.048 67.5176 551.257 67.3506 550.343 67.3506C549.446 67.3506 548.682 67.5615 548.049 67.9834C547.416 68.3877 546.897 68.959 546.493 69.6973C546.106 70.4355 545.816 71.3057 545.623 72.3076C545.447 73.292 545.359 74.3643 545.359 75.5244ZM583.776 83.1973V70.9629C583.776 70.1016 583.645 69.3633 583.381 68.748C583.117 68.1328 582.704 67.6494 582.142 67.2979C581.579 66.9463 580.85 66.7705 579.953 66.7705C579.197 66.7705 578.538 66.9023 577.976 67.166C577.431 67.4297 577.009 67.8076 576.71 68.2998C576.429 68.792 576.288 69.3984 576.288 70.1191H568.062C568.062 68.8359 568.352 67.6406 568.932 66.5332C569.512 65.4258 570.338 64.4502 571.41 63.6064C572.5 62.7627 573.801 62.1123 575.312 61.6553C576.824 61.1807 578.521 60.9434 580.401 60.9434C582.634 60.9434 584.62 61.3213 586.36 62.0771C588.118 62.8154 589.507 63.9316 590.526 65.4258C591.546 66.9023 592.056 68.7656 592.056 71.0156V82.96C592.056 84.6826 592.152 86.0361 592.346 87.0205C592.557 87.9873 592.855 88.8311 593.242 89.5518V90H584.937C584.55 89.1738 584.26 88.1543 584.066 86.9414C583.873 85.7109 583.776 84.4629 583.776 83.1973ZM584.805 72.5977L584.857 77.1328H580.771C579.856 77.1328 579.065 77.2471 578.397 77.4756C577.747 77.7041 577.22 78.0205 576.815 78.4248C576.411 78.8115 576.112 79.2686 575.919 79.7959C575.743 80.3057 575.655 80.8682 575.655 81.4834C575.655 82.0635 575.796 82.5908 576.077 83.0654C576.358 83.5225 576.745 83.8828 577.237 84.1465C577.729 84.4102 578.301 84.542 578.951 84.542C580.023 84.542 580.938 84.3311 581.693 83.9092C582.467 83.4873 583.064 82.9775 583.486 82.3799C583.908 81.7646 584.119 81.1934 584.119 80.666L586.097 84.0938C585.78 84.7969 585.394 85.5264 584.937 86.2822C584.479 87.0205 583.899 87.7148 583.196 88.3652C582.493 88.998 581.641 89.5166 580.639 89.9209C579.654 90.3252 578.468 90.5273 577.079 90.5273C575.286 90.5273 573.66 90.167 572.201 89.4463C570.742 88.708 569.573 87.6973 568.694 86.4141C567.833 85.1309 567.402 83.6543 567.402 81.9844C567.402 80.4902 567.675 79.1631 568.22 78.0029C568.765 76.8428 569.582 75.8584 570.672 75.0498C571.779 74.2412 573.168 73.6348 574.838 73.2305C576.508 72.8086 578.459 72.5977 580.691 72.5977H584.805ZM605.714 68.1152V90H597.487V61.4707H605.213L605.714 68.1152ZM614.23 61.2598L614.099 68.9326C613.747 68.8799 613.29 68.8359 612.728 68.8008C612.165 68.748 611.682 68.7217 611.277 68.7217C610.223 68.7217 609.309 68.8535 608.535 69.1172C607.779 69.3633 607.146 69.7324 606.637 70.2246C606.145 70.7168 605.775 71.332 605.529 72.0703C605.283 72.791 605.16 73.626 605.16 74.5752L603.604 73.8105C603.604 71.9297 603.789 70.207 604.158 68.6426C604.527 67.0781 605.063 65.7246 605.767 64.582C606.47 63.4219 607.331 62.5254 608.351 61.8926C609.37 61.2598 610.53 60.9434 611.831 60.9434C612.253 60.9434 612.684 60.9697 613.123 61.0225C613.562 61.0752 613.932 61.1543 614.23 61.2598ZM633.689 83.6191V49.5H641.969V90H634.533L633.689 83.6191ZM615.918 76.0781V75.5244C615.918 73.3623 616.155 71.3936 616.63 69.6182C617.122 67.8252 617.834 66.2871 618.766 65.0039C619.715 63.7031 620.884 62.7012 622.272 61.998C623.661 61.2949 625.252 60.9434 627.045 60.9434C628.697 60.9434 630.139 61.3125 631.369 62.0508C632.6 62.7715 633.646 63.791 634.507 65.1094C635.386 66.4102 636.098 67.9482 636.643 69.7236C637.188 71.4814 637.601 73.3887 637.882 75.4453V76.3945C637.618 78.3633 637.205 80.2002 636.643 81.9053C636.098 83.6104 635.386 85.1133 634.507 86.4141C633.646 87.6973 632.591 88.708 631.343 89.4463C630.112 90.167 628.662 90.5273 626.992 90.5273C625.199 90.5273 623.608 90.167 622.22 89.4463C620.849 88.7256 619.697 87.7148 618.766 86.4141C617.834 85.1133 617.122 83.584 616.63 81.8262C616.155 80.0684 615.918 78.1523 615.918 76.0781ZM624.145 75.5244V76.0781C624.145 77.2031 624.224 78.249 624.382 79.2158C624.558 80.1826 624.839 81.0352 625.226 81.7734C625.612 82.5117 626.122 83.0918 626.755 83.5137C627.388 83.918 628.161 84.1201 629.075 84.1201C630.306 84.1201 631.316 83.8389 632.107 83.2764C632.898 82.6963 633.496 81.8965 633.9 80.877C634.305 79.8574 634.516 78.6709 634.533 77.3174V74.5488C634.533 73.4238 634.419 72.4131 634.19 71.5166C633.962 70.6201 633.619 69.8643 633.162 69.249C632.723 68.6338 632.169 68.168 631.501 67.8516C630.833 67.5176 630.042 67.3506 629.128 67.3506C628.231 67.3506 627.467 67.5615 626.834 67.9834C626.201 68.3877 625.683 68.959 625.278 69.6973C624.892 70.4355 624.602 71.3057 624.408 72.3076C624.232 73.292 624.145 74.3643 624.145 75.5244ZM676.457 76.6582H666.807V69.9873H676.457C677.881 69.9873 679.023 69.75 679.885 69.2754C680.764 68.8008 681.405 68.1504 681.81 67.3242C682.231 66.4805 682.442 65.5312 682.442 64.4766C682.442 63.3867 682.231 62.376 681.81 61.4443C681.405 60.4951 680.764 59.7305 679.885 59.1504C679.023 58.5703 677.881 58.2803 676.457 58.2803H669.918V90H661.322V51.6094H676.457C679.516 51.6094 682.135 52.1631 684.314 53.2705C686.512 54.3779 688.19 55.8984 689.351 57.832C690.528 59.748 691.117 61.9453 691.117 64.4238C691.117 66.9023 690.528 69.0557 689.351 70.8838C688.19 72.7119 686.512 74.1357 684.314 75.1553C682.135 76.1572 679.516 76.6582 676.457 76.6582ZM710.708 83.1973V70.9629C710.708 70.1016 710.576 69.3633 710.312 68.748C710.049 68.1328 709.636 67.6494 709.073 67.2979C708.511 66.9463 707.781 66.7705 706.885 66.7705C706.129 66.7705 705.47 66.9023 704.907 67.166C704.362 67.4297 703.94 67.8076 703.642 68.2998C703.36 68.792 703.22 69.3984 703.22 70.1191H694.993C694.993 68.8359 695.283 67.6406 695.863 66.5332C696.443 65.4258 697.27 64.4502 698.342 63.6064C699.432 62.7627 700.732 62.1123 702.244 61.6553C703.756 61.1807 705.452 60.9434 707.333 60.9434C709.565 60.9434 711.552 61.3213 713.292 62.0771C715.05 62.8154 716.438 63.9316 717.458 65.4258C718.478 66.9023 718.987 68.7656 718.987 71.0156V82.96C718.987 84.6826 719.084 86.0361 719.277 87.0205C719.488 87.9873 719.787 88.8311 720.174 89.5518V90H711.868C711.481 89.1738 711.191 88.1543 710.998 86.9414C710.805 85.7109 710.708 84.4629 710.708 83.1973ZM711.736 72.5977L711.789 77.1328H707.702C706.788 77.1328 705.997 77.2471 705.329 77.4756C704.679 77.7041 704.151 78.0205 703.747 78.4248C703.343 78.8115 703.044 79.2686 702.851 79.7959C702.675 80.3057 702.587 80.8682 702.587 81.4834C702.587 82.0635 702.728 82.5908 703.009 83.0654C703.29 83.5225 703.677 83.8828 704.169 84.1465C704.661 84.4102 705.232 84.542 705.883 84.542C706.955 84.542 707.869 84.3311 708.625 83.9092C709.398 83.4873 709.996 82.9775 710.418 82.3799C710.84 81.7646 711.051 81.1934 711.051 80.666L713.028 84.0938C712.712 84.7969 712.325 85.5264 711.868 86.2822C711.411 87.0205 710.831 87.7148 710.128 88.3652C709.425 88.998 708.572 89.5166 707.57 89.9209C706.586 90.3252 705.399 90.5273 704.011 90.5273C702.218 90.5273 700.592 90.167 699.133 89.4463C697.674 88.708 696.505 87.6973 695.626 86.4141C694.765 85.1309 694.334 83.6543 694.334 81.9844C694.334 80.4902 694.606 79.1631 695.151 78.0029C695.696 76.8428 696.514 75.8584 697.604 75.0498C698.711 74.2412 700.1 73.6348 701.77 73.2305C703.439 72.8086 705.391 72.5977 707.623 72.5977H711.736ZM738.895 61.4707V67.2451H721.967V61.4707H738.895ZM725.843 54.4043H734.096V81.0615C734.096 81.8525 734.192 82.459 734.386 82.8809C734.579 83.3027 734.896 83.6016 735.335 83.7773C735.774 83.9355 736.337 84.0146 737.022 84.0146C737.515 84.0146 737.937 83.9971 738.288 83.9619C738.64 83.9268 738.965 83.8828 739.264 83.8301V89.7891C738.561 90.0176 737.813 90.1934 737.022 90.3164C736.231 90.457 735.37 90.5273 734.438 90.5273C732.663 90.5273 731.125 90.2373 729.824 89.6572C728.541 89.0771 727.557 88.1631 726.871 86.915C726.186 85.6494 725.843 84.0059 725.843 81.9844V54.4043ZM750.892 49.5V90H742.665V49.5H750.892ZM749.811 74.7334L747.754 74.7861C747.754 72.7822 748 70.9453 748.492 69.2754C749.002 67.5879 749.723 66.1201 750.654 64.8721C751.586 63.624 752.702 62.6572 754.003 61.9717C755.321 61.2861 756.771 60.9434 758.354 60.9434C759.76 60.9434 761.043 61.1455 762.203 61.5498C763.363 61.9541 764.365 62.5957 765.209 63.4746C766.053 64.3535 766.703 65.5049 767.16 66.9287C767.617 68.3525 767.846 70.084 767.846 72.123V90H759.566V72.0703C759.566 70.8574 759.391 69.9082 759.039 69.2227C758.705 68.5371 758.213 68.0537 757.562 67.7725C756.93 67.4912 756.156 67.3506 755.242 67.3506C754.17 67.3506 753.282 67.5439 752.579 67.9307C751.876 68.2998 751.322 68.8184 750.918 69.4863C750.514 70.1543 750.224 70.9365 750.048 71.833C749.89 72.7295 749.811 73.6963 749.811 74.7334Z" fill="#4CB074"/>
</svg>
